CommonSerif-SemiBold.ufo
<glyph name="exclam" format="2">
  <advance width="273"/>
  <unicode hex="0021"/>
  <outline>
    <contour>
      <point x="136.666" y="658" type="curve" smooth="yes"/>
      <point x="108" y="658"/>
      <point x="71" y="639"/>
      <point x="71" y="583.667" type="curve" smooth="yes"/>
      <point x="71" y="468.981"/>
      <point x="111.801" y="342.15"/>
      <point x="111.753" y="223.625" type="curve" smooth="yes"/>
      <point x="111.727" y="200.218"/>
      <point x="119.829" y="188.667"/>
      <point x="136.666" y="188.667" type="curve" smooth="yes"/>
      <point x="152.11" y="188.667"/>
      <point x="159.992" y="200.819"/>
      <point x="160" y="223.333" type="curve" smooth="yes"/>
      <point x="160.068" y="341.953"/>
      <point x="202.333" y="466.431"/>
      <point x="202.333" y="583.667" type="curve" smooth="yes"/>
      <point x="202.333" y="635.667"/>
      <point x="169.333" y="658"/>
    </contour>
    <contour>
      <point x="70.333" y="54.333" type="curve" smooth="yes"/>
      <point x="70.333" y="19.333"/>
      <point x="99.667" y="-10"/>
      <point x="136" y="-10" type="curve" smooth="yes"/>
      <point x="172.333" y="-10"/>
      <point x="203" y="18.667"/>
      <point x="203" y="54.389" type="curve" smooth="yes"/>
      <point x="203" y="89.333"/>
      <point x="173.666" y="118"/>
      <point x="137.333" y="118" type="curve" smooth="yes"/>
      <point x="101" y="118"/>
      <point x="70.333" y="90"/>
    </contour>
  </outline>
</glyph>
<glyph name="numbersign" format="2">
  <advance width="498"/>
  <unicode hex="0023"/>
  <outline>
    <contour>
      <point x="193.333" y="197.38" type="line"/>
      <point x="193.333" y="242.38" type="line"/>
      <point x="51" y="242.38" type="line" smooth="yes"/>
      <point x="42" y="242.38"/>
      <point x="28" y="230.713"/>
      <point x="28" y="213.38" type="curve" smooth="yes"/>
      <point x="28" y="206.046"/>
      <point x="31" y="197.38"/>
      <point x="38.333" y="197.38" type="curve" smooth="yes"/>
    </contour>
    <contour>
      <point x="220.836" y="369.004" type="line"/>
      <point x="220.836" y="414.004" type="line"/>
      <point x="78.5029" y="414.004" type="line" smooth="yes"/>
      <point x="69.5029" y="414.004"/>
      <point x="55.5029" y="402.337"/>
      <point x="55.5029" y="385.004" type="curve" smooth="yes"/>
      <point x="55.5029" y="377.67"/>
      <point x="58.5029" y="369.004"/>
      <point x="65.8359" y="369.004" type="curve" smooth="yes"/>
    </contour>
    <contour>
      <point x="97" y="14" type="curve"/>
      <point x="113.17" y="9"/>
      <point x="129.83" y="9"/>
      <point x="146" y="14" type="curve"/>
      <point x="171.795" y="174.49"/>
      <point x="213.872" y="436.177"/>
      <point x="239.667" y="596.667" type="curve"/>
      <point x="223.167" y="601.667"/>
      <point x="206.167" y="601.667"/>
      <point x="189.667" y="596.667" type="curve"/>
      <point x="164.147" y="436.177"/>
      <point x="122.52" y="174.49"/>
    </contour>
    <contour>
      <point x="248.667" y="14" type="curve"/>
      <point x="264.507" y="9"/>
      <point x="280.827" y="9"/>
      <point x="296.667" y="14" type="curve"/>
      <point x="321.692" y="174.49"/>
      <point x="362.642" y="436.177"/>
      <point x="387.667" y="596.667" type="curve"/>
      <point x="372.047" y="601.667"/>
      <point x="355.953" y="601.667"/>
      <point x="340.333" y="596.667" type="curve"/>
      <point x="315.088" y="436.177"/>
      <point x="273.912" y="174.49"/>
    </contour>
    <contour>
      <point x="153.376" y="197.846" type="line"/>
      <point x="308.232" y="197.846" type="line"/>
      <point x="308.232" y="242.931" type="line"/>
      <point x="153.376" y="242.931" type="line"/>
    </contour>
    <contour>
      <point x="181.061" y="369.006" type="line"/>
      <point x="332.445" y="369.006" type="line"/>
      <point x="332.445" y="414.313" type="line"/>
      <point x="181.061" y="414.313" type="line"/>
    </contour>
    <contour>
      <point x="283.257" y="197.541" type="line"/>
      <point x="417.59" y="197.541" type="line" smooth="yes"/>
      <point x="428.923" y="197.541"/>
      <point x="441.257" y="210.541"/>
      <point x="441.257" y="225.541" type="curve" smooth="yes"/>
      <point x="441.257" y="233.207"/>
      <point x="438.257" y="242.541"/>
      <point x="430.59" y="242.541" type="curve" smooth="yes"/>
      <point x="283.257" y="242.541" type="line"/>
    </contour>
    <contour>
      <point x="309.714" y="369.016" type="line"/>
      <point x="444.047" y="369.016" type="line" smooth="yes"/>
      <point x="455.38" y="369.016"/>
      <point x="467.714" y="382.016"/>
      <point x="467.714" y="397.016" type="curve" smooth="yes"/>
      <point x="467.714" y="404.682"/>
      <point x="464.714" y="414.016"/>
      <point x="457.047" y="414.016" type="curve" smooth="yes"/>
      <point x="309.714" y="414.016" type="line"/>
    </contour>
  </outline>
</glyph>
<glyph name="dollar" format="2">
  <advance width="498"/>
  <unicode hex="0024"/>
  <outline>
    <contour>
      <point x="66.667" y="9.999" type="curve"/>
      <point x="121.334" y="9.999"/>
      <point x="177" y="-9.667"/>
      <point x="233.333" y="-9.667" type="curve" smooth="yes"/>
      <point x="354" y="-9.667"/>
      <point x="450.333" y="62.999"/>
      <point x="450.333" y="171" type="curve" smooth="yes"/>
      <point x="450.333" y="241"/>
      <point x="392.277" y="305.185"/>
      <point x="282.666" y="356.333" type="curve"/>
      <point x="251" y="370" type="line"/>
      <point x="189.042" y="399.111"/>
      <point x="160.667" y="427"/>
      <point x="160.667" y="484.667" type="curve" smooth="yes"/>
      <point x="160.667" y="538"/>
      <point x="202" y="574.667"/>
      <point x="254" y="574.667" type="curve" smooth="yes"/>
      <point x="329.666" y="574.667"/>
      <point x="358.333" y="508.334"/>
      <point x="377" y="445.667" type="curve"/>
      <point x="388.667" y="443"/>
      <point x="408.667" y="444"/>
      <point x="418" y="451" type="curve"/>
      <point x="417" y="498.667"/>
      <point x="413" y="532.667"/>
      <point x="405.667" y="585" type="curve"/>
      <point x="354" y="591.667"/>
      <point x="314.333" y="610"/>
      <point x="258.333" y="610" type="curve" smooth="yes"/>
      <point x="146.667" y="610"/>
      <point x="61" y="546.667"/>
      <point x="61" y="450.333" type="curve" smooth="yes"/>
      <point x="61" y="365.667"/>
      <point x="99" y="320.333"/>
      <point x="217.333" y="260.333" type="curve"/>
      <point x="243.333" y="248" type="line" smooth="yes"/>
      <point x="299" y="221"/>
      <point x="346.333" y="176.666"/>
      <point x="346.333" y="117.666" type="curve" smooth="yes"/>
      <point x="346.333" y="56.999"/>
      <point x="296.333" y="27.666"/>
      <point x="241" y="27.666" type="curve" smooth="yes"/>
      <point x="160" y="27.666"/>
      <point x="106" y="86.333"/>
      <point x="89" y="162" type="curve"/>
      <point x="71.333" y="164"/>
      <point x="57.333" y="162.666"/>
      <point x="48.333" y="159" type="curve"/>
      <point x="49.666" y="88.333"/>
      <point x="56.333" y="47.999"/>
    </contour>
    <contour>
      <point x="213" y="14.999" type="line"/>
      <point x="252" y="13.666" type="line"/>
      <point x="265.666" y="248.333" type="line"/>
      <point x="227" y="270" type="line"/>
    </contour>
    <contour>
      <point x="232.667" y="368.667" type="line"/>
      <point x="270.666" y="346" type="line"/>
      <point x="284" y="585.334" type="line"/>
      <point x="244.667" y="589" type="line"/>
    </contour>
    <contour>
      <point x="207.333" y="-98" type="line"/>
      <point x="217.333" y="-98"/>
      <point x="239" y="-97"/>
      <point x="247" y="-93" type="curve"/>
      <point x="252" y="6" type="line"/>
      <point x="213.333" y="7" type="line"/>
    </contour>
    <contour>
      <point x="244.333" y="595" type="line"/>
      <point x="284" y="594" type="line"/>
      <point x="290" y="695" type="line"/>
      <point x="277" y="695"/>
      <point x="259.333" y="693"/>
      <point x="250.333" y="690" type="curve"/>
    </contour>
  </outline>
</glyph>
<glyph name="percent" format="2">
  <advance width="637"/>
  <unicode hex="0025"/>
  <outline>
    <contour>
      <point x="53" y="408.666" type="curve" smooth="yes"/>
      <point x="53" y="346.333"/>
      <point x="82.333" y="299"/>
      <point x="151" y="299" type="curve" smooth="yes"/>
      <point x="231.666" y="299"/>
      <point x="282.333" y="389.333"/>
      <point x="282.333" y="476.666" type="curve" smooth="yes"/>
      <point x="282.333" y="483.666"/>
      <point x="282" y="490.666"/>
      <point x="280.666" y="497" type="curve"/>
      <point x="299.666" y="486.666"/>
      <point x="332.333" y="477.333"/>
      <point x="354" y="477.333" type="curve" smooth="yes"/>
      <point x="384" y="477.333"/>
      <point x="423" y="483.333"/>
      <point x="461.667" y="498.999" type="curve"/>
      <point x="98" y="-1.667" type="line"/>
      <point x="145.333" y="-14.667" type="line"/>
      <point x="556" y="551.666" type="line"/>
      <point x="514" y="570.999" type="line"/>
      <point x="476.333" y="527.666"/>
      <point x="406" y="519.666"/>
      <point x="364" y="519.666" type="curve" smooth="yes"/>
      <point x="334" y="519.666"/>
      <point x="300.333" y="524.999"/>
      <point x="259.666" y="544.666" type="curve"/>
      <point x="245" y="559.333"/>
      <point x="218.666" y="567.666"/>
      <point x="192" y="567.666" type="curve" smooth="yes"/>
      <point x="108.667" y="567.666"/>
      <point x="53" y="491.333"/>
    </contour>
    <contour>
      <point x="372.667" y="93.333" type="curve" smooth="yes"/>
      <point x="372.667" y="30.333"/>
      <point x="402.667" y="-16.667"/>
      <point x="471" y="-16.667" type="curve" smooth="yes"/>
      <point x="551.333" y="-16.667"/>
      <point x="602" y="72.666"/>
      <point x="602" y="161" type="curve" smooth="yes"/>
      <point x="602" y="233.334"/>
      <point x="557.333" y="252"/>
      <point x="512" y="252" type="curve" smooth="yes"/>
      <point x="428" y="252"/>
      <point x="372.667" y="174"/>
    </contour>
    <contour>
      <point x="133" y="378.666" type="curve" smooth="yes"/>
      <point x="133" y="422.666"/>
      <point x="148.667" y="533.333"/>
      <point x="203" y="533.333" type="curve" smooth="yes"/>
      <point x="218.333" y="533.333"/>
      <point x="243.333" y="526.333"/>
      <point x="243.333" y="475" type="curve" smooth="yes"/>
      <point x="243.333" y="427.666"/>
      <point x="216" y="335.333"/>
      <point x="164.333" y="335.333" type="curve" smooth="yes"/>
      <point x="146.333" y="335.333"/>
      <point x="133" y="347.333"/>
    </contour>
    <contour>
      <point x="453" y="63" type="curve" smooth="yes"/>
      <point x="453" y="107"/>
      <point x="468.667" y="217.667"/>
      <point x="523" y="217.667" type="curve" smooth="yes"/>
      <point x="537" y="217.667"/>
      <point x="563" y="211.334"/>
      <point x="563" y="159.333" type="curve" smooth="yes"/>
      <point x="563" y="112.666"/>
      <point x="536" y="19.666"/>
      <point x="484.333" y="19.666" type="curve" smooth="yes"/>
      <point x="466" y="19.666"/>
      <point x="453" y="31.666"/>
    </contour>
  </outline>
</glyph>
<glyph name="ampersand" format="2">
  <advance width="721"/>
  <unicode hex="0026"/>
  <outline>
    <contour>
      <point x="40.333" y="148" type="curve" smooth="yes"/>
      <point x="40.333" y="44.667"/>
      <point x="118" y="-10"/>
      <point x="233" y="-10" type="curve" smooth="yes"/>
      <point x="314" y="-10"/>
      <point x="373.666" y="26.333"/>
      <point x="417.666" y="75.334" type="curve"/>
      <point x="432.666" y="55" type="line" smooth="yes"/>
      <point x="471" y="0.667"/>
      <point x="512" y="-10"/>
      <point x="565.666" y="-10" type="curve" smooth="yes"/>
      <point x="607.333" y="-10"/>
      <point x="655.666" y="12.667"/>
      <point x="688.666" y="70" type="curve"/>
      <point x="687" y="81.667"/>
      <point x="680" y="97.334"/>
      <point x="669.666" y="97.334" type="curve"/>
      <point x="649" y="67.667"/>
      <point x="623.333" y="48.667"/>
      <point x="591" y="48.667" type="curve" smooth="yes"/>
      <point x="555.666" y="48.667"/>
      <point x="521.666" y="88"/>
      <point x="493.333" y="131" type="curve" smooth="yes"/>
      <point x="476" y="156.334" type="line"/>
      <point x="519.333" y="212.667"/>
      <point x="559.333" y="276"/>
      <point x="583" y="316.667" type="curve" smooth="yes"/>
      <point x="615.666" y="373.333"/>
      <point x="635.333" y="393.667"/>
      <point x="689.666" y="399" type="curve"/>
      <point x="695.666" y="405"/>
      <point x="695.666" y="426.667"/>
      <point x="689.666" y="432.667" type="curve"/>
      <point x="668.333" y="431.667"/>
      <point x="625.666" y="430.667"/>
      <point x="599.666" y="430.667" type="curve" smooth="yes"/>
      <point x="563.666" y="430.667"/>
      <point x="525.333" y="431.667"/>
      <point x="500.666" y="432.667" type="curve"/>
      <point x="494.666" y="426.667"/>
      <point x="494.666" y="405"/>
      <point x="500.666" y="399" type="curve"/>
      <point x="557.333" y="395.333"/>
      <point x="555.666" y="365"/>
      <point x="533.666" y="322.333" type="curve"/>
      <point x="513.333" y="279"/>
      <point x="486.666" y="239.333"/>
      <point x="452.666" y="193.667" type="curve"/>
      <point x="413.666" y="244.667"/>
      <point x="359.666" y="320.333"/>
      <point x="326.667" y="374.333" type="curve"/>
      <point x="411.666" y="413"/>
      <point x="476.333" y="472"/>
      <point x="476.333" y="544.333" type="curve" smooth="yes"/>
      <point x="476.333" y="598.666"/>
      <point x="423" y="654.333"/>
      <point x="338.333" y="654.333" type="curve" smooth="yes"/>
      <point x="237.667" y="654.333"/>
      <point x="159.667" y="591.333"/>
      <point x="159.667" y="499.667" type="curve" smooth="yes"/>
      <point x="159.667" y="456.334"/>
      <point x="177.667" y="420.667"/>
      <point x="219.334" y="358.667" type="curve"/>
      <point x="86" y="290.667"/>
      <point x="40.333" y="220.334"/>
    </contour>
    <contour>
      <point x="153" y="165.334" type="curve" smooth="yes"/>
      <point x="153" y="221"/>
      <point x="165.667" y="271"/>
      <point x="240.667" y="324" type="curve"/>
      <point x="261.667" y="287.667"/>
      <point x="339" y="176.334"/>
      <point x="389.333" y="109.334" type="curve"/>
      <point x="352.333" y="59"/>
      <point x="317.667" y="35"/>
      <point x="265.334" y="35" type="curve" smooth="yes"/>
      <point x="199.667" y="35"/>
      <point x="153" y="80.667"/>
    </contour>
    <contour>
      <point x="304.333" y="411.667" type="curve"/>
      <point x="281" y="445.334"/>
      <point x="255.667" y="499.333"/>
      <point x="255.667" y="530.333" type="curve" smooth="yes"/>
      <point x="255.667" y="583"/>
      <point x="288.667" y="615.333"/>
      <point x="324.667" y="615.333" type="curve" smooth="yes"/>
      <point x="361" y="615.333"/>
      <point x="385.333" y="581.333"/>
      <point x="385.333" y="537.667" type="curve" smooth="yes"/>
      <point x="385.333" y="501"/>
      <point x="353.666" y="447.667"/>
    </contour>
  </outline>
</glyph>
<glyph name="parenleft" format="2">
  <advance width="309"/>
  <unicode hex="0028"/>
  <outline>
    <contour>
      <point x="38.667" y="252.667" type="curve" smooth="yes"/>
      <point x="38.667" y="207.667"/>
      <point x="43.334" y="-19.333"/>
      <point x="264" y="-210" type="curve"/>
      <point x="270.95" y="-205.475"/>
      <point x="286.97" y="-188.899"/>
      <point x="291" y="-183" type="curve"/>
      <point x="258.667" y="-146.333"/>
      <point x="143" y="-11"/>
      <point x="143" y="252.667" type="curve" smooth="yes"/>
      <point x="143" y="516.333"/>
      <point x="260.333" y="651.667"/>
      <point x="291" y="687" type="curve"/>
      <point x="286.699" y="694.341"/>
      <point x="272.492" y="711.093"/>
      <point x="265.333" y="715.667" type="curve"/>
      <point x="138.333" y="606.333"/>
      <point x="38.667" y="436"/>
    </contour>
  </outline>
</glyph>
<glyph name="parenright" format="2">
  <advance width="309"/>
  <unicode hex="0029"/>
  <outline>
    <contour>
      <point x="270.666" y="251.333" type="curve" smooth="yes"/>
      <point x="270.666" y="296.333"/>
      <point x="265.999" y="523.333"/>
      <point x="45.333" y="714" type="curve"/>
      <point x="38.383" y="709.475"/>
      <point x="22.363" y="692.899"/>
      <point x="18.333" y="687" type="curve"/>
      <point x="50.666" y="650.333"/>
      <point x="166.333" y="515"/>
      <point x="166.333" y="251.333" type="curve" smooth="yes"/>
      <point x="166.333" y="-12.333"/>
      <point x="49" y="-147.667"/>
      <point x="18.333" y="-183" type="curve"/>
      <point x="22.634" y="-190.341"/>
      <point x="36.841" y="-207.093"/>
      <point x="44" y="-211.667" type="curve"/>
      <point x="171" y="-102.333"/>
      <point x="270.666" y="68"/>
    </contour>
  </outline>
</glyph>
<glyph name="asterisk" format="2">
  <advance width="412"/>
  <unicode hex="002A"/>
  <outline>
    <contour>
      <point x="104" y="477.052" type="curve" smooth="yes"/>
      <point x="104" y="456.512"/>
      <point x="116.702" y="444.333"/>
      <point x="138.141" y="444.333" type="curve" smooth="yes"/>
      <point x="184.821" y="444.333"/>
      <point x="180.818" y="505.767"/>
      <point x="203" y="545.182" type="curve"/>
      <point x="226.451" y="509.451"/>
      <point x="228.457" y="444.333"/>
      <point x="270.886" y="444.333" type="curve" smooth="yes"/>
      <point x="291.004" y="444.333"/>
      <point x="305" y="458.175"/>
      <point x="305" y="478.058" type="curve" smooth="yes"/>
      <point x="305" y="518.959"/>
      <point x="251.562" y="525.156"/>
      <point x="220.667" y="557.701" type="curve"/>
      <point x="235.285" y="560.111"/>
      <point x="249.625" y="561"/>
      <point x="275" y="561" type="curve" smooth="yes"/>
      <point x="318.336" y="561"/>
      <point x="344" y="576.01"/>
      <point x="344" y="601.187" type="curve" smooth="yes"/>
      <point x="344" y="620.018"/>
      <point x="329.215" y="634.06"/>
      <point x="309.361" y="634.104" type="curve" smooth="yes"/>
      <point x="276.445" y="634.179"/>
      <point x="245.197" y="593.004"/>
      <point x="215.667" y="580.413" type="curve"/>
      <point x="217.763" y="611.283"/>
      <point x="239.065" y="647.796"/>
      <point x="239.065" y="675.354" type="curve" smooth="yes"/>
      <point x="239.065" y="696.041"/>
      <point x="223.734" y="711.254"/>
      <point x="203.017" y="711.254" type="curve" smooth="yes"/>
      <point x="182.16" y="711.254"/>
      <point x="165.437" y="694.619"/>
      <point x="165.437" y="673.649" type="curve" smooth="yes"/>
      <point x="165.437" y="647.382"/>
      <point x="189.573" y="618.376"/>
      <point x="193.333" y="580.752" type="curve"/>
      <point x="153.392" y="597.821"/>
      <point x="130.733" y="632.667"/>
      <point x="98" y="632.667" type="curve" smooth="yes"/>
      <point x="77.413" y="632.667"/>
      <point x="64.065" y="618.673"/>
      <point x="64.086" y="597.059" type="curve" smooth="yes"/>
      <point x="64.115" y="572.884"/>
      <point x="79.126" y="562.146"/>
      <point x="112.715" y="562.262" type="curve" smooth="yes"/>
      <point x="137.136" y="562.341"/>
      <point x="165.458" y="567.005"/>
      <point x="187.333" y="558.356" type="curve"/>
      <point x="156.953" y="524.06"/>
      <point x="104" y="520.993"/>
    </contour>
  </outline>
</glyph>
<glyph name="comma" format="2">
  <advance width="236"/>
  <unicode hex="002C"/>
  <outline>
    <contour>
      <point x="112.843" y="116.333" type="curve" smooth="yes"/>
      <point x="75.662" y="116.333"/>
      <point x="49.667" y="90.671"/>
      <point x="49.667" y="57.082" type="curve" smooth="yes"/>
      <point x="49.667" y="31.704"/>
      <point x="67.496" y="12.786"/>
      <point x="88.667" y="6" type="curve" smooth="yes"/>
      <point x="97" y="3.333" type="line" smooth="yes"/>
      <point x="114.452" y="-2.045"/>
      <point x="127" y="-10.356"/>
      <point x="127" y="-30.29" type="curve" smooth="yes"/>
      <point x="127" y="-65.923"/>
      <point x="86.979" y="-113.072"/>
      <point x="33.667" y="-127" type="curve"/>
      <point x="33.667" y="-140.794"/>
      <point x="35.817" y="-147.384"/>
      <point x="41.334" y="-155.667" type="curve"/>
      <point x="119.173" y="-142.948"/>
      <point x="189.333" y="-66.989"/>
      <point x="189.333" y="12.74" type="curve" smooth="yes"/>
      <point x="189.333" y="77.446"/>
      <point x="161.384" y="116.333"/>
    </contour>
  </outline>
</glyph>
<glyph name="hyphen" format="2">
  <advance width="351"/>
  <unicode hex="002D"/>
  <outline>
    <contour>
      <point x="272.333" y="217.667" type="line" smooth="yes"/>
      <point x="292" y="217.667"/>
      <point x="312.667" y="257.001"/>
      <point x="312.667" y="269.667" type="curve" smooth="yes"/>
      <point x="312.667" y="280.334"/>
      <point x="306" y="290.334"/>
      <point x="284" y="290.334" type="curve" smooth="yes"/>
      <point x="77.667" y="290.334" type="line" smooth="yes"/>
      <point x="59.667" y="290.334"/>
      <point x="38.667" y="255.334"/>
      <point x="38.667" y="238" type="curve" smooth="yes"/>
      <point x="38.667" y="227.334"/>
      <point x="49.333" y="217.667"/>
      <point x="68.333" y="217.667" type="curve" smooth="yes"/>
    </contour>
  </outline>
</glyph>
<glyph name="period" format="2">
  <advance width="236"/>
  <unicode hex="002E"/>
  <outline>
    <contour>
      <point x="51.667" y="53" type="curve" smooth="yes"/>
      <point x="51.667" y="18"/>
      <point x="81" y="-10"/>
      <point x="117.334" y="-10" type="curve" smooth="yes"/>
      <point x="153.667" y="-10"/>
      <point x="184.334" y="19.333"/>
      <point x="184.334" y="54.333" type="curve" smooth="yes"/>
      <point x="184.334" y="90"/>
      <point x="155.001" y="118"/>
      <point x="118.667" y="118" type="curve" smooth="yes"/>
      <point x="82.334" y="118"/>
      <point x="51.667" y="88.667"/>
    </contour>
  </outline>
</glyph>
<glyph name="slash" format="2">
  <advance width="318"/>
  <unicode hex="002F"/>
  <outline>
    <contour>
      <point x="299" y="670" type="line"/>
      <point x="243.333" y="670" type="line"/>
      <point x="6.333" y="-33.667" type="line"/>
      <point x="62" y="-33.667" type="line"/>
    </contour>
  </outline>
</glyph>
<glyph name="zero" format="2">
  <advance width="498"/>
  <unicode hex="0030"/>
  <outline>
    <contour>
      <point x="33" y="296.667" type="curve" smooth="yes"/>
      <point x="33" y="118.334"/>
      <point x="122" y="-10"/>
      <point x="246" y="-10" type="curve" smooth="yes"/>
      <point x="373" y="-10"/>
      <point x="463.334" y="120.334"/>
      <point x="463.334" y="305.667" type="curve" smooth="yes"/>
      <point x="463.334" y="487.666"/>
      <point x="378.667" y="610"/>
      <point x="250.667" y="610" type="curve" smooth="yes"/>
      <point x="122" y="610"/>
      <point x="33" y="481.333"/>
    </contour>
    <contour>
      <point x="157.333" y="285.667" type="curve" smooth="yes"/>
      <point x="157.333" y="471.333"/>
      <point x="189.666" y="570.333"/>
      <point x="250.667" y="570.333" type="curve" smooth="yes"/>
      <point x="304.334" y="570.333"/>
      <point x="339.667" y="472.666"/>
      <point x="339.667" y="325.333" type="curve" smooth="yes"/>
      <point x="339.667" y="136.667"/>
      <point x="306" y="29.667"/>
      <point x="247" y="29.667" type="curve" smooth="yes"/>
      <point x="189" y="29.667"/>
      <point x="157.333" y="120.334"/>
    </contour>
  </outline>
</glyph>
<glyph name="one" format="2">
  <advance width="498"/>
  <unicode hex="0031"/>
  <outline>
    <contour>
      <point x="127.333" y="-2" type="curve"/>
      <point x="198.333" y="-1"/>
      <point x="241.667" y="0"/>
      <point x="286.333" y="0" type="curve" smooth="yes"/>
      <point x="329" y="0"/>
      <point x="367" y="-1"/>
      <point x="438.333" y="-2" type="curve"/>
      <point x="447" y="4"/>
      <point x="447" y="25.6667"/>
      <point x="438.333" y="31.6667" type="curve"/>
      <point x="378.333" y="34.6667"/>
      <point x="340.667" y="39"/>
      <point x="340.667" y="122" type="curve" smooth="yes"/>
      <point x="340.667" y="478.333" type="line" smooth="yes"/>
      <point x="340.667" y="533.667"/>
      <point x="345.8" y="588.2"/>
      <point x="347" y="596.333" type="curve"/>
      <point x="347" y="606.667"/>
      <point x="341" y="609.333"/>
      <point x="333.667" y="609.333" type="curve"/>
      <point x="284.62" y="581.38"/>
      <point x="215.258" y="552.237"/>
      <point x="91" y="507.333" type="curve"/>
      <point x="92.3333" y="492.333"/>
      <point x="98.3333" y="478.333"/>
      <point x="110.667" y="469.667" type="curve"/>
      <point x="154.382" y="486.299"/>
      <point x="187.067" y="494.868"/>
      <point x="203.667" y="494.667" type="curve" smooth="yes"/>
      <point x="221.79" y="494.41"/>
      <point x="228.333" y="483.402"/>
      <point x="228.333" y="456.033" type="curve" smooth="yes"/>
      <point x="228.333" y="122" type="line" smooth="yes"/>
      <point x="228.333" y="39"/>
      <point x="187.333" y="34.6667"/>
      <point x="127.333" y="31.6667" type="curve"/>
      <point x="118.667" y="25.6667"/>
      <point x="118.667" y="4"/>
    </contour>
  </outline>
</glyph>
<glyph name="two" format="2">
  <advance width="498"/>
  <unicode hex="0032"/>
  <outline>
    <contour>
      <point x="42.484" y="27.445" type="curve" smooth="yes"/>
      <point x="42.484" y="18.648"/>
      <point x="44.428" y="8.288"/>
      <point x="47" y="-0.667" type="curve"/>
      <point x="70.043" y="-0.6"/>
      <point x="105.759" y="0"/>
      <point x="138.484" y="0" type="curve" smooth="yes"/>
      <point x="324.754" y="0" type="line" smooth="yes"/>
      <point x="356.958" y="0"/>
      <point x="392.087" y="-0.6"/>
      <point x="415.249" y="-0.667" type="curve"/>
      <point x="420.501" y="44.127"/>
      <point x="431.891" y="115.087"/>
      <point x="443.999" y="161.274" type="curve"/>
      <point x="433.3" y="166.937"/>
      <point x="422.972" y="170.269"/>
      <point x="404.141" y="169.604" type="curve"/>
      <point x="385.542" y="106.452"/>
      <point x="346.815" y="74.333"/>
      <point x="297.321" y="74.333" type="curve" smooth="yes"/>
      <point x="170.965" y="74.333" type="line"/>
      <point x="172.94" y="109.639"/>
      <point x="197.166" y="146.767"/>
      <point x="224.451" y="172.257" type="curve" smooth="yes"/>
      <point x="323.517" y="264.222" type="line" smooth="yes"/>
      <point x="411.014" y="345.856"/>
      <point x="438.666" y="381.628"/>
      <point x="438.666" y="451.936" type="curve" smooth="yes"/>
      <point x="438.666" y="551.763"/>
      <point x="356.781" y="610"/>
      <point x="256.481" y="610" type="curve" smooth="yes"/>
      <point x="128.532" y="610"/>
      <point x="53.667" y="524.74"/>
      <point x="53.667" y="458.616" type="curve" smooth="yes"/>
      <point x="53.667" y="430.217"/>
      <point x="79.115" y="409.428"/>
      <point x="106.333" y="409.428" type="curve" smooth="yes"/>
      <point x="135.142" y="409.428"/>
      <point x="160.71" y="429.441"/>
      <point x="160.71" y="458.278" type="curve" smooth="yes"/>
      <point x="160.71" y="464.293"/>
      <point x="158.703" y="470.983"/>
      <point x="156.029" y="479.347" type="curve"/>
      <point x="153.355" y="486.37"/>
      <point x="149.333" y="494.729"/>
      <point x="149.333" y="504.767" type="curve" smooth="yes"/>
      <point x="149.333" y="536.991"/>
      <point x="184.293" y="571.333"/>
      <point x="237.414" y="571.333" type="curve" smooth="yes"/>
      <point x="288.265" y="571.333"/>
      <point x="323.333" y="536.955"/>
      <point x="323.333" y="448.594" type="curve" smooth="yes"/>
      <point x="323.333" y="376.151"/>
      <point x="300.043" y="322.905"/>
      <point x="240.19" y="265.463" type="curve" smooth="yes"/>
      <point x="177.219" y="204.908" type="line" smooth="yes"/>
      <point x="80.45" y="112.05"/>
      <point x="42.484" y="67.587"/>
    </contour>
  </outline>
</glyph>
<glyph name="three" format="2">
  <advance width="498"/>
  <unicode hex="0033"/>
  <outline>
    <contour>
      <point x="228.595" y="571.333" type="curve" smooth="yes"/>
      <point x="279.344" y="571.333"/>
      <point x="306" y="546.052"/>
      <point x="306" y="498.032" type="curve" smooth="yes"/>
      <point x="306" y="423.436"/>
      <point x="243.034" y="359.253"/>
      <point x="152.255" y="340.861" type="curve"/>
      <point x="158.569" y="303.331" type="line"/>
      <point x="175.076" y="307.85"/>
      <point x="186.377" y="309.368"/>
      <point x="201.546" y="309.368" type="curve" smooth="yes"/>
      <point x="288.39" y="309.368"/>
      <point x="333.667" y="264.327"/>
      <point x="333.667" y="178.424" type="curve" smooth="yes"/>
      <point x="333.667" y="91.925"/>
      <point x="287.024" y="28.667"/>
      <point x="223.433" y="28.667" type="curve" smooth="yes"/>
      <point x="194.005" y="28.667"/>
      <point x="169.541" y="42.44"/>
      <point x="149.774" y="70.119" type="curve" smooth="yes"/>
      <point x="133.478" y="92.862"/>
      <point x="115.66" y="103.983"/>
      <point x="95.513" y="103.983" type="curve" smooth="yes"/>
      <point x="69.141" y="103.983"/>
      <point x="45.333" y="84.405"/>
      <point x="45.333" y="62.734" type="curve" smooth="yes"/>
      <point x="45.333" y="25.085"/>
      <point x="121.468" y="-10"/>
      <point x="203.118" y="-10" type="curve" smooth="yes"/>
      <point x="338.279" y="-10"/>
      <point x="449" y="88.929"/>
      <point x="449" y="209.851" type="curve" smooth="yes"/>
      <point x="449" y="293.405"/>
      <point x="395.956" y="352.652"/>
      <point x="313.48" y="361.295" type="curve"/>
      <point x="313.07" y="363.059" type="line"/>
      <point x="375.161" y="394.263"/>
      <point x="411.333" y="444.899"/>
      <point x="411.333" y="498.736" type="curve" smooth="yes"/>
      <point x="411.333" y="568.04"/>
      <point x="351.681" y="610"/>
      <point x="252.683" y="610" type="curve" smooth="yes"/>
      <point x="151.687" y="610"/>
      <point x="56.333" y="551.555"/>
      <point x="56.333" y="489.703" type="curve" smooth="yes"/>
      <point x="56.333" y="463.4"/>
      <point x="70.804" y="448.926"/>
      <point x="97.388" y="448.926" type="curve" smooth="yes"/>
      <point x="128.994" y="448.926"/>
      <point x="147.153" y="468.442"/>
      <point x="147.153" y="502.153" type="curve" smooth="yes"/>
      <point x="147.153" y="545.281"/>
      <point x="177.752" y="571.333"/>
    </contour>
  </outline>
</glyph>
<glyph name="four" format="2">
  <advance width="498"/>
  <unicode hex="0034"/>
  <outline>
    <contour>
      <point x="56.2726" y="165.333" type="curve" smooth="yes"/>
      <point x="264.333" y="165.333" type="line"/>
      <point x="264.333" y="118.333" type="line" smooth="yes"/>
      <point x="264.333" y="46.0722"/>
      <point x="245.919" y="36.1914"/>
      <point x="175.333" y="31.6667" type="curve"/>
      <point x="166.667" y="25.6667"/>
      <point x="166.667" y="4"/>
      <point x="175.333" y="-2" type="curve"/>
      <point x="239.333" y="-1"/>
      <point x="276.667" y="0"/>
      <point x="316.333" y="0" type="curve" smooth="yes"/>
      <point x="330.667" y="0" type="line" smooth="yes"/>
      <point x="367" y="0"/>
      <point x="398.333" y="-1"/>
      <point x="457.667" y="-2" type="curve"/>
      <point x="466.333" y="4"/>
      <point x="466.333" y="25.6667"/>
      <point x="457.667" y="31.6667" type="curve"/>
      <point x="391.891" y="35.6029"/>
      <point x="372.333" y="47.7399"/>
      <point x="372.333" y="118.333" type="curve" smooth="yes"/>
      <point x="372.333" y="165.333" type="line"/>
      <point x="451.333" y="165.333" type="line" smooth="yes"/>
      <point x="465.333" y="165.333"/>
      <point x="480.333" y="184.333"/>
      <point x="480.333" y="196.333" type="curve" smooth="yes"/>
      <point x="480.333" y="206.333"/>
      <point x="476.333" y="212.333"/>
      <point x="465.333" y="212.333" type="curve" smooth="yes"/>
      <point x="372.333" y="212.333" type="line"/>
      <point x="372.333" y="519" type="line" smooth="yes"/>
      <point x="372.333" y="555"/>
      <point x="373" y="586"/>
      <point x="374.333" y="608" type="curve"/>
      <point x="372.333" y="610" type="line"/>
      <point x="308.154" y="610" type="line" smooth="yes"/>
      <point x="297.821" y="610"/>
      <point x="291.258" y="603.753"/>
      <point x="285.175" y="595.65" type="curve" smooth="yes"/>
      <point x="275.911" y="583.281" type="line" smooth="yes"/>
      <point x="203.922" y="488.05"/>
      <point x="112.56" y="353.008"/>
      <point x="32.3333" y="224.667" type="curve" smooth="yes"/>
      <point x="24" y="211.333" type="line"/>
      <point x="26.2688" y="179.364"/>
      <point x="41.9332" y="165.333"/>
    </contour>
    <contour>
      <point x="78" y="212.333" type="line"/>
      <point x="130.847" y="304.313"/>
      <point x="206" y="423.667"/>
      <point x="264.333" y="503" type="curve"/>
      <point x="264.333" y="212.333" type="line"/>
    </contour>
  </outline>
</glyph>
<glyph name="five" format="2">
  <advance width="498"/>
  <unicode hex="0035"/>
  <outline>
    <contour>
      <point x="52.667" y="68.667" type="curve" smooth="yes"/>
      <point x="52.667" y="26.855"/>
      <point x="127.995" y="-10.333"/>
      <point x="212.667" y="-10.333" type="curve" smooth="yes"/>
      <point x="352.794" y="-10.333"/>
      <point x="442.917" y="80.375"/>
      <point x="442.917" y="220.865" type="curve" smooth="yes"/>
      <point x="442.917" y="323.472"/>
      <point x="367.103" y="393.133"/>
      <point x="255.427" y="393.151" type="curve" smooth="yes"/>
      <point x="212.817" y="393.156"/>
      <point x="181.684" y="388.864"/>
      <point x="144.334" y="379" type="curve"/>
      <point x="163.667" y="522.666" type="line"/>
      <point x="194.422" y="518.635"/>
      <point x="242.896" y="516.333"/>
      <point x="288" y="516.333" type="curve" smooth="yes"/>
      <point x="304.334" y="516.333" type="line" smooth="yes"/>
      <point x="335.115" y="516.333"/>
      <point x="360.276" y="517.841"/>
      <point x="411" y="522.333" type="curve"/>
      <point x="429" y="602.333" type="line"/>
      <point x="411.334" y="612.333" type="line"/>
      <point x="347.837" y="603.358"/>
      <point x="306.163" y="600"/>
      <point x="248.667" y="600" type="curve" smooth="yes"/>
      <point x="232" y="600" type="line" smooth="yes"/>
      <point x="195.289" y="600"/>
      <point x="161.397" y="602.168"/>
      <point x="120.667" y="608.333" type="curve"/>
      <point x="82.667" y="313.667" type="line"/>
      <point x="93.271" y="306.621" type="line"/>
      <point x="135.74" y="327.993"/>
      <point x="178.068" y="339"/>
      <point x="216.334" y="339" type="curve" smooth="yes"/>
      <point x="286.172" y="339"/>
      <point x="321.667" y="288.417"/>
      <point x="321.667" y="188.333" type="curve" smooth="yes"/>
      <point x="321.667" y="93.463"/>
      <point x="282.98" y="30.667"/>
      <point x="225" y="30.667" type="curve" smooth="yes"/>
      <point x="206.885" y="30.667"/>
      <point x="191.776" y="41.743"/>
      <point x="169.334" y="71.667" type="curve" smooth="yes"/>
      <point x="160.334" y="83.667" type="line" smooth="yes"/>
      <point x="146.553" y="102.042"/>
      <point x="124.512" y="112.334"/>
      <point x="99.334" y="112.334" type="curve" smooth="yes"/>
      <point x="72.786" y="112.334"/>
      <point x="52.667" y="93.476"/>
    </contour>
  </outline>
</glyph>
<glyph name="six" format="2">
  <advance width="498"/>
  <unicode hex="0036"/>
  <outline>
    <contour>
      <point x="44" y="241.655" type="curve" smooth="yes"/>
      <point x="44" y="32.3193"/>
      <point x="161.624" y="-10.3333"/>
      <point x="254" y="-10.3333" type="curve" smooth="yes"/>
      <point x="387.381" y="-10.3333"/>
      <point x="458.333" y="85.5274"/>
      <point x="458.333" y="203.851" type="curve" smooth="yes"/>
      <point x="458.333" y="306.386"/>
      <point x="382.541" y="365"/>
      <point x="270.333" y="365" type="curve" smooth="yes"/>
      <point x="235.861" y="365"/>
      <point x="197.102" y="352.061"/>
      <point x="165.333" y="334.333" type="curve"/>
      <point x="187.501" y="471.925"/>
      <point x="276.105" y="554.565"/>
      <point x="422.667" y="574.333" type="curve"/>
      <point x="424.667" y="586.333"/>
      <point x="422.667" y="602"/>
      <point x="414.667" y="610.333" type="curve"/>
      <point x="186.765" y="580.441"/>
      <point x="44" y="446.383"/>
    </contour>
    <contour>
      <point x="154.333" y="217.485" type="curve" smooth="yes"/>
      <point x="154.333" y="243.448"/>
      <point x="155.802" y="269.334"/>
      <point x="159" y="295.121" type="curve"/>
      <point x="195.333" y="318.343"/>
      <point x="220.333" y="320"/>
      <point x="238" y="320" type="curve" smooth="yes"/>
      <point x="305.062" y="320"/>
      <point x="341.333" y="257.576"/>
      <point x="341.333" y="190.268" type="curve" smooth="yes"/>
      <point x="341.333" y="108.179"/>
      <point x="320.642" y="28.6667"/>
      <point x="265.667" y="28.6667" type="curve" smooth="yes"/>
      <point x="199.973" y="28.6667"/>
      <point x="154.333" y="84.9949"/>
    </contour>
  </outline>
</glyph>
<glyph name="seven" format="2">
  <advance width="498"/>
  <unicode hex="0037"/>
  <outline>
    <contour>
      <point x="122" y="-2" type="curve"/>
      <point x="128.667" y="-12.3333" type="line"/>
      <point x="219.333" y="-4.66667" type="line"/>
      <point x="265.085" y="155.765"/>
      <point x="335.37" y="324.93"/>
      <point x="470.663" y="593.667" type="curve"/>
      <point x="461.33" y="603.667" type="line"/>
      <point x="436.997" y="602"/>
      <point x="410.997" y="600"/>
      <point x="379.663" y="600" type="curve" smooth="yes"/>
      <point x="133.667" y="600" type="line" smooth="yes"/>
      <point x="106.346" y="600"/>
      <point x="97.7557" y="608.742"/>
      <point x="81" y="614" type="curve"/>
      <point x="78" y="614"/>
      <point x="77" y="613.667"/>
      <point x="77" y="610.667" type="curve" smooth="yes"/>
      <point x="77" y="562.667"/>
      <point x="65.9721" y="478.511"/>
      <point x="57" y="426.333" type="curve"/>
      <point x="69.3333" y="422.667"/>
      <point x="79.3333" y="421.667"/>
      <point x="91" y="423.333" type="curve"/>
      <point x="113" y="503.333"/>
      <point x="146.667" y="510.333"/>
      <point x="179.333" y="510.333" type="curve" smooth="yes"/>
      <point x="382.201" y="510.333" type="line"/>
      <point x="254.542" y="307.078"/>
      <point x="148.878" y="109.739"/>
    </contour>
  </outline>
</glyph>
<glyph name="eight" format="2">
  <advance width="498"/>
  <unicode hex="0038"/>
  <outline>
    <contour>
      <point x="431.667" y="486.219" type="curve" smooth="yes"/>
      <point x="431.667" y="562.65"/>
      <point x="365.333" y="610"/>
      <point x="261.667" y="610" type="curve" smooth="yes"/>
      <point x="143.666" y="610"/>
      <point x="67" y="550.969"/>
      <point x="67" y="460.188" type="curve" smooth="yes"/>
      <point x="67" y="406.12"/>
      <point x="93.667" y="368.744"/>
      <point x="160.333" y="332.367" type="curve" smooth="yes"/>
      <point x="183" y="319.687" type="line"/>
      <point x="85" y="271.626"/>
      <point x="38" y="214.56"/>
      <point x="38" y="142.14" type="curve" smooth="yes"/>
      <point x="38" y="48.022"/>
      <point x="115.333" y="-10"/>
      <point x="240" y="-10" type="curve" smooth="yes"/>
      <point x="365.333" y="-10"/>
      <point x="459.667" y="66.712"/>
      <point x="459.667" y="169.17" type="curve" smooth="yes"/>
      <point x="459.667" y="227.242"/>
      <point x="429" y="279.642"/>
      <point x="378.333" y="310.347" type="curve" smooth="yes"/>
      <point x="315.667" y="346.721" type="line"/>
      <point x="385.333" y="371.744"/>
      <point x="431.667" y="427.144"/>
    </contour>
    <contour>
      <point x="245.334" y="28.667" type="curve" smooth="yes"/>
      <point x="180.334" y="28.667"/>
      <point x="142.333" y="71.383"/>
      <point x="142.333" y="146.146" type="curve" smooth="yes"/>
      <point x="142.333" y="211.228"/>
      <point x="169.334" y="264.621"/>
      <point x="219.334" y="298.325" type="curve"/>
      <point x="270.667" y="270.29" type="line" smooth="yes"/>
      <point x="330" y="237.252"/>
      <point x="354" y="201.214"/>
      <point x="354" y="143.477" type="curve" smooth="yes"/>
      <point x="354" y="72.386"/>
      <point x="312" y="28.667"/>
    </contour>
    <contour>
      <point x="255.334" y="575.333" type="curve" smooth="yes"/>
      <point x="301.667" y="575.333"/>
      <point x="330.667" y="542.961"/>
      <point x="330.667" y="489.56" type="curve" smooth="yes"/>
      <point x="330.667" y="447.174"/>
      <point x="309.334" y="397.445"/>
      <point x="278" y="369.75" type="curve"/>
      <point x="234.667" y="393.449" type="line" smooth="yes"/>
      <point x="197" y="414.47"/>
      <point x="172.667" y="452.52"/>
      <point x="172.667" y="490.567" type="curve" smooth="yes"/>
      <point x="172.667" y="540.29"/>
      <point x="206.334" y="575.333"/>
    </contour>
  </outline>
</glyph>
<glyph name="nine" format="2">
  <advance width="498"/>
  <unicode hex="0039"/>
  <outline>
    <contour>
      <point x="81.667" y="25.334" type="curve"/>
      <point x="79.667" y="13.334"/>
      <point x="81.667" y="-2.333"/>
      <point x="89.667" y="-10.666" type="curve"/>
      <point x="300" y="11"/>
      <point x="460.334" y="130"/>
      <point x="460.334" y="358.012" type="curve" smooth="yes"/>
      <point x="460.334" y="567.347"/>
      <point x="343.334" y="610"/>
      <point x="250.333" y="610" type="curve" smooth="yes"/>
      <point x="102.667" y="610"/>
      <point x="46" y="482.739"/>
      <point x="46" y="395.816" type="curve" smooth="yes"/>
      <point x="46" y="325.378"/>
      <point x="100.333" y="234.667"/>
      <point x="234" y="234.667" type="curve" smooth="yes"/>
      <point x="268" y="234.667"/>
      <point x="307" y="248"/>
      <point x="338.334" y="265.334" type="curve"/>
      <point x="315.334" y="120.334"/>
      <point x="220.667" y="44.667"/>
    </contour>
    <contour>
      <point x="345.334" y="304.546" type="curve"/>
      <point x="309" y="281.324"/>
      <point x="284" y="279.667"/>
      <point x="266.334" y="279.667" type="curve" smooth="yes"/>
      <point x="194" y="279.667"/>
      <point x="163" y="349.679"/>
      <point x="163" y="413.732" type="curve" smooth="yes"/>
      <point x="163" y="521.895"/>
      <point x="198.333" y="571"/>
      <point x="238.667" y="571" type="curve" smooth="yes"/>
      <point x="323.667" y="571"/>
      <point x="348.667" y="465.662"/>
      <point x="348.667" y="361.66" type="curve" smooth="yes"/>
      <point x="348.667" y="345.711"/>
      <point x="348" y="320.494"/>
    </contour>
  </outline>
</glyph>
<glyph name="colon" format="2">
  <advance width="249"/>
  <unicode hex="003A"/>
  <outline>
    <contour>
      <point x="63.336" y="59.982" type="curve" smooth="yes"/>
      <point x="63.336" y="24.982"/>
      <point x="92.669" y="-3.018"/>
      <point x="129.003" y="-3.018" type="curve" smooth="yes"/>
      <point x="165.336" y="-3.018"/>
      <point x="196.003" y="26.315"/>
      <point x="196.003" y="61.315" type="curve" smooth="yes"/>
      <point x="196.003" y="96.982"/>
      <point x="166.67" y="124.982"/>
      <point x="130.336" y="124.982" type="curve" smooth="yes"/>
      <point x="94.003" y="124.982"/>
      <point x="63.336" y="95.649"/>
    </contour>
    <contour>
      <point x="63.334" y="358" type="curve" smooth="yes"/>
      <point x="63.334" y="323"/>
      <point x="92.667" y="295"/>
      <point x="129" y="295" type="curve" smooth="yes"/>
      <point x="165.334" y="295"/>
      <point x="196.001" y="324.333"/>
      <point x="196.001" y="359.333" type="curve" smooth="yes"/>
      <point x="196.001" y="395"/>
      <point x="166.667" y="423"/>
      <point x="130.334" y="423" type="curve" smooth="yes"/>
      <point x="94" y="423"/>
      <point x="63.334" y="393.667"/>
    </contour>
  </outline>
</glyph>
<glyph name="less" format="2">
  <advance width="525"/>
  <unicode hex="003C"/>
  <outline>
    <contour>
      <point x="148" y="239.667" type="line"/>
      <point x="465.667" y="355.333" type="line"/>
      <point x="470" y="366.906"/>
      <point x="470.333" y="405.828"/>
      <point x="465.667" y="413.333" type="curve"/>
      <point x="49.667" y="262.333" type="line"/>
      <point x="46.667" y="251.065"/>
      <point x="46.667" y="227.094"/>
      <point x="49.667" y="217" type="curve"/>
      <point x="465.667" y="65.667" type="line"/>
      <point x="470.333" y="73.172"/>
      <point x="470" y="112.094"/>
      <point x="465.667" y="123.667" type="curve"/>
    </contour>
  </outline>
</glyph>
<glyph name="equal" format="2">
  <advance width="551"/>
  <unicode hex="003D"/>
  <outline>
    <contour>
      <point x="59.333" y="299.333" type="curve" smooth="yes"/>
      <point x="59.333" y="289.701"/>
      <point x="66.667" y="280.333"/>
      <point x="79" y="280.333" type="curve" smooth="yes"/>
      <point x="462.333" y="280.333" type="line" smooth="yes"/>
      <point x="472.667" y="280.333"/>
      <point x="492.333" y="300"/>
      <point x="492.333" y="316" type="curve" smooth="yes"/>
      <point x="492.333" y="325.538"/>
      <point x="485.747" y="335"/>
      <point x="473" y="335" type="curve" smooth="yes"/>
      <point x="89.333" y="335" type="line" smooth="yes"/>
      <point x="79.333" y="335"/>
      <point x="59.333" y="317"/>
    </contour>
    <contour>
      <point x="59.333" y="161.333" type="curve" smooth="yes"/>
      <point x="59.333" y="151.474"/>
      <point x="66.667" y="142.333"/>
      <point x="79" y="142.333" type="curve" smooth="yes"/>
      <point x="462.333" y="142.333" type="line" smooth="yes"/>
      <point x="472.667" y="142.333"/>
      <point x="492.333" y="161.333"/>
      <point x="492.333" y="177.333" type="curve" smooth="yes"/>
      <point x="492.333" y="187.937"/>
      <point x="485.074" y="196.333"/>
      <point x="473" y="196.333" type="curve" smooth="yes"/>
      <point x="89.333" y="196.333" type="line" smooth="yes"/>
      <point x="79.333" y="196.333"/>
      <point x="59.333" y="179"/>
    </contour>
  </outline>
</glyph>
<glyph name="question" format="2">
  <advance width="432"/>
  <unicode hex="003F"/>
  <outline>
    <contour>
      <point x="167" y="208" type="line" smooth="yes"/>
      <point x="167" y="189.588"/>
      <point x="173.248" y="179.333"/>
      <point x="194.215" y="179.333" type="curve" smooth="yes"/>
      <point x="217.838" y="179.333"/>
      <point x="221.333" y="187.47"/>
      <point x="221.333" y="207.667" type="curve" smooth="yes"/>
      <point x="221.333" y="228.667" type="line" smooth="yes"/>
      <point x="221.333" y="288.788"/>
      <point x="238.398" y="314.481"/>
      <point x="284.994" y="348.749" type="curve" smooth="yes"/>
      <point x="345.313" y="393.362"/>
      <point x="397" y="437.654"/>
      <point x="397" y="506.671" type="curve" smooth="yes"/>
      <point x="397" y="597.667"/>
      <point x="327.667" y="658.333"/>
      <point x="217.667" y="658.333" type="curve" smooth="yes"/>
      <point x="146.431" y="658.333"/>
      <point x="32.6667" y="620.194"/>
      <point x="32.6667" y="533.739" type="curve" smooth="yes"/>
      <point x="32.6667" y="499.053"/>
      <point x="57.9263" y="479"/>
      <point x="84.3333" y="479" type="curve" smooth="yes"/>
      <point x="110.667" y="479"/>
      <point x="132.667" y="493.667" name=".hr01"/>
      <point x="132.667" y="519.45" type="curve" smooth="yes"/>
      <point x="132.667" y="531.667"/>
      <point x="130.667" y="539"/>
      <point x="128" y="545.333" type="curve" name=".hr02"/>
      <point x="124.667" y="552.333"/>
      <point x="122.667" y="559"/>
      <point x="122.667" y="568.408" type="curve" smooth="yes"/>
      <point x="122.667" y="599.333"/>
      <point x="159.333" y="623.333"/>
      <point x="207.667" y="623.333" type="curve" smooth="yes"/>
      <point x="267.338" y="623.333"/>
      <point x="292.667" y="566.406"/>
      <point x="292.667" y="508.458" type="curve" smooth="yes"/>
      <point x="292.667" y="463.667"/>
      <point x="277.853" y="430.452"/>
      <point x="244.333" y="399" type="curve" smooth="yes"/>
      <point x="233.333" y="388.667" type="line" smooth="yes"/>
      <point x="184.531" y="342.961"/>
      <point x="167" y="287.225" name=".hr03"/>
      <point x="167" y="230.667" type="curve" smooth="yes"/>
    </contour>
    <contour>
      <point x="128.667" y="53" type="curve" smooth="yes" name=".hr04"/>
      <point x="128.667" y="18"/>
      <point x="158" y="-10"/>
      <point x="194.333" y="-10" type="curve" smooth="yes"/>
      <point x="230.667" y="-10"/>
      <point x="261.333" y="19.3333"/>
      <point x="261.333" y="54.3333" type="curve" smooth="yes"/>
      <point x="261.333" y="90"/>
      <point x="232" y="118"/>
      <point x="195.667" y="118" type="curve" smooth="yes"/>
      <point x="159.333" y="118"/>
      <point x="128.667" y="88.6667"/>
    </contour>
  </outline>
</glyph>
<glyph name="at" format="2">
  <advance width="957"/>
  <unicode hex="0040"/>
  <outline>
    <contour>
      <point x="621" y="78" type="curve" smooth="yes"/>
      <point x="621" y="87.667"/>
      <point x="628" y="118"/>
      <point x="634" y="144.333" type="curve" smooth="yes"/>
      <point x="693.334" y="399" type="line"/>
      <point x="679.667" y="404.667" type="line"/>
      <point x="611.423" y="396.333" type="line"/>
      <point x="605.636" y="373.666" type="line"/>
      <point x="594.341" y="396.817"/>
      <point x="556.876" y="413.018"/>
      <point x="522.835" y="413.018" type="curve" smooth="yes"/>
      <point x="410.739" y="413.018"/>
      <point x="289" y="288.181"/>
      <point x="289" y="156.333" type="curve" smooth="yes"/>
      <point x="289" y="70.871"/>
      <point x="331.948" y="26.826"/>
      <point x="404.225" y="26.826" type="curve" smooth="yes"/>
      <point x="454.356" y="26.826"/>
      <point x="510.37" y="51.301"/>
      <point x="545.664" y="111.797" type="curve"/>
      <point x="547.14" y="111.463" type="line"/>
      <point x="541.546" y="95.465"/>
      <point x="537.46" y="80.171"/>
      <point x="537.461" y="68.269" type="curve" smooth="yes"/>
      <point x="537.463" y="40.429"/>
      <point x="561.858" y="25.316"/>
      <point x="590.283" y="25.244" type="curve" smooth="yes"/>
      <point x="753.749" y="24.677"/>
      <point x="873" y="134.673"/>
      <point x="873" y="285.333" type="curve" smooth="yes"/>
      <point x="873" y="473.667"/>
      <point x="720.667" y="617.667"/>
      <point x="498.333" y="617.667" type="curve" smooth="yes"/>
      <point x="254.667" y="617.667"/>
      <point x="81" y="431.333"/>
      <point x="81" y="221.667" type="curve" smooth="yes"/>
      <point x="81" y="-1.333"/>
      <point x="248.333" y="-159.333"/>
      <point x="486" y="-159.333" type="curve" smooth="yes"/>
      <point x="605.667" y="-159.333"/>
      <point x="667.667" y="-123.666"/>
      <point x="730.334" y="-75.667" type="curve"/>
      <point x="712" y="-50.333" type="line"/>
      <point x="652.667" y="-98.666"/>
      <point x="584.667" y="-122.333"/>
      <point x="505" y="-122.333" type="curve" smooth="yes"/>
      <point x="256.333" y="-122.333"/>
      <point x="170.333" y="83.667"/>
      <point x="170.333" y="232.333" type="curve" smooth="yes"/>
      <point x="170.333" y="465.333"/>
      <point x="335" y="582.667"/>
      <point x="489" y="582.667" type="curve" smooth="yes"/>
      <point x="671.045" y="582.667"/>
      <point x="789.667" y="461.153"/>
      <point x="789.667" y="273.666" type="curve" smooth="yes"/>
      <point x="789.667" y="128.055"/>
      <point x="699.765" y="64.666"/>
      <point x="636.667" y="64.666" type="curve" smooth="yes"/>
      <point x="628.667" y="64.666"/>
      <point x="621" y="65.999"/>
    </contour>
    <contour>
      <point x="580.333" y="318.666" type="curve" smooth="yes"/>
      <point x="580.333" y="292.666"/>
      <point x="563.869" y="237.239"/>
      <point x="553" y="202.667" type="curve" smooth="yes"/>
      <point x="548.667" y="189.667" type="line" smooth="yes"/>
      <point x="523.729" y="109.402"/>
      <point x="481.324" y="73.384"/>
      <point x="448.547" y="73.384" type="curve" smooth="yes"/>
      <point x="401.35" y="73.384"/>
      <point x="391.333" y="116.056"/>
      <point x="391.333" y="163.333" type="curve" smooth="yes"/>
      <point x="391.333" y="243.338"/>
      <point x="433.934" y="378.69"/>
      <point x="528.034" y="378.69" type="curve" smooth="yes"/>
      <point x="560.37" y="378.69"/>
      <point x="580.333" y="353.454"/>
    </contour>
  </outline>
</glyph>
<glyph name="A" format="2">
  <advance width="725"/>
  <unicode hex="0041"/>
  <anchor x="354" y="740" name="t.uni0302"/>
  <anchor x="373.333" y="600" name="t.ring"/>
  <anchor x="352.333" y="-60" name="b.minus-60"/>
  <anchor x="614.667" y="10" name="b.ogonek"/>
  <outline>
    <contour>
      <point x="161.667" y="79" type="curve" smooth="yes"/>
      <point x="215.333" y="220" type="line" smooth="yes"/>
      <point x="220.333" y="233"/>
      <point x="226.333" y="237"/>
      <point x="250.333" y="237" type="curve" smooth="yes"/>
      <point x="447.333" y="237" type="line"/>
      <point x="504" y="72" type="line" smooth="yes"/>
      <point x="514.667" y="40.667"/>
      <point x="465.333" y="34.667"/>
      <point x="430" y="31.667" type="curve"/>
      <point x="424" y="25.667"/>
      <point x="424" y="4"/>
      <point x="430" y="-2" type="curve"/>
      <point x="467" y="-1"/>
      <point x="548.667" y="0"/>
      <point x="587.667" y="0" type="curve" smooth="yes"/>
      <point x="628.667" y="0"/>
      <point x="678.667" y="-1"/>
      <point x="715" y="-2" type="curve"/>
      <point x="721" y="4"/>
      <point x="721" y="25.667"/>
      <point x="715" y="31.667" type="curve"/>
      <point x="676" y="35.667"/>
      <point x="642.968" y="36.108"/>
      <point x="625" y="86" type="curve" smooth="yes"/>
      <point x="419" y="658" type="line"/>
      <point x="404" y="649"/>
      <point x="355" y="622"/>
      <point x="327.333" y="622" type="curve"/>
      <point x="107" y="102" type="line" smooth="yes"/>
      <point x="81" y="40"/>
      <point x="51" y="34.667"/>
      <point x="7" y="31.667" type="curve"/>
      <point x="1" y="25.667"/>
      <point x="1" y="4"/>
      <point x="7" y="-2" type="curve"/>
      <point x="40.333" y="-1"/>
      <point x="63.333" y="0"/>
      <point x="99.333" y="0" type="curve" smooth="yes"/>
      <point x="140.333" y="0"/>
      <point x="193.667" y="-1"/>
      <point x="230.667" y="-2" type="curve"/>
      <point x="236.667" y="4"/>
      <point x="236.667" y="25.667"/>
      <point x="230.667" y="31.667" type="curve"/>
      <point x="192.667" y="34.667"/>
      <point x="145.667" y="38"/>
    </contour>
    <contour>
      <point x="269.667" y="283" type="line" smooth="yes"/>
      <point x="247.667" y="283"/>
      <point x="240.667" y="286"/>
      <point x="244.667" y="296" type="curve" smooth="yes"/>
      <point x="337.333" y="531.667" type="line"/>
      <point x="344" y="531.667" type="line"/>
      <point x="430" y="283" type="line"/>
    </contour>
  </outline>
</glyph>
<glyph name="B" format="2">
  <advance width="631"/>
  <unicode hex="0042"/>
  <anchor x="226.333" y="740" name="t.uni0302"/>
  <anchor x="225.333" y="-60" name="b.minus-60"/>
  <outline>
    <contour>
      <point x="24.333" y="-2" type="curve"/>
      <point x="69.333" y="-1"/>
      <point x="158.666" y="0"/>
      <point x="176" y="0" type="curve"/>
      <point x="176" y="645" type="line"/>
      <point x="159.333" y="645"/>
      <point x="71" y="646"/>
      <point x="24.333" y="647" type="curve"/>
      <point x="18.333" y="641"/>
      <point x="18.333" y="619.334"/>
      <point x="24.333" y="613.334" type="curve"/>
      <point x="94.333" y="610.334"/>
      <point x="111.333" y="604.667"/>
      <point x="111.333" y="523.667" type="curve" smooth="yes"/>
      <point x="111.333" y="122" type="line" smooth="yes"/>
      <point x="111.333" y="39"/>
      <point x="94.333" y="34.667"/>
      <point x="24.333" y="31.667" type="curve"/>
      <point x="18.333" y="25.667"/>
      <point x="18.333" y="4"/>
    </contour>
    <contour>
      <point x="166" y="645" type="curve"/>
      <point x="166" y="0" type="line"/>
      <point x="204.667" y="0"/>
      <point x="261" y="-2"/>
      <point x="329" y="-2" type="curve" smooth="yes"/>
      <point x="532" y="-2"/>
      <point x="593.667" y="88.667"/>
      <point x="593.667" y="185.333" type="curve" smooth="yes"/>
      <point x="593.667" y="276"/>
      <point x="542" y="332.333"/>
      <point x="442.334" y="359.333" type="curve"/>
      <point x="442.334" y="361.333" type="line"/>
      <point x="495" y="385.666"/>
      <point x="538" y="439.666"/>
      <point x="538" y="491.667" type="curve" smooth="yes"/>
      <point x="538" y="560"/>
      <point x="503.667" y="647"/>
      <point x="307" y="647" type="curve" smooth="yes"/>
      <point x="262" y="647"/>
      <point x="199.333" y="645"/>
    </contour>
    <contour>
      <point x="231" y="333.333" type="line"/>
      <point x="301.333" y="333.333" type="line" smooth="yes"/>
      <point x="415.667" y="333.333"/>
      <point x="464.667" y="267"/>
      <point x="464.667" y="179.667" type="curve" smooth="yes"/>
      <point x="464.667" y="115.333"/>
      <point x="441.334" y="37"/>
      <point x="302.667" y="37" type="curve" smooth="yes"/>
      <point x="239.333" y="37"/>
      <point x="231" y="55.667"/>
      <point x="231" y="95.334" type="curve" smooth="yes"/>
    </contour>
    <contour>
      <point x="231" y="558" type="line" smooth="yes"/>
      <point x="231" y="595"/>
      <point x="234.333" y="607.667"/>
      <point x="306.667" y="607.667" type="curve" smooth="yes"/>
      <point x="356" y="607.667"/>
      <point x="417.667" y="585.667"/>
      <point x="417.667" y="486.333" type="curve" smooth="yes"/>
      <point x="417.667" y="404.666"/>
      <point x="368" y="372.666"/>
      <point x="293" y="372.666" type="curve" smooth="yes"/>
      <point x="231" y="372.666" type="line"/>
    </contour>
  </outline>
</glyph>
<glyph name="C" format="2">
  <advance width="686"/>
  <unicode hex="0043"/>
  <anchor x="349.667" y="740" name="t.uni0302"/>
  <anchor x="348.333" y="-60" name="b.minus-60"/>
  <anchor x="356.333" y="0" name="b.cedilla"/>
  <outline>
    <contour>
      <point x="383.999" y="-10" type="curve" smooth="yes"/>
      <point x="480.999" y="-10"/>
      <point x="569.999" y="36"/>
      <point x="637.999" y="125" type="curve"/>
      <point x="632.999" y="134"/>
      <point x="619.333" y="144"/>
      <point x="608.333" y="144" type="curve"/>
      <point x="537.333" y="66"/>
      <point x="460.666" y="38.333"/>
      <point x="382.999" y="38.333" type="curve" smooth="yes"/>
      <point x="260.666" y="38.333"/>
      <point x="168.333" y="179.666"/>
      <point x="168.333" y="332.333" type="curve" smooth="yes"/>
      <point x="168.333" y="477.666"/>
      <point x="244.666" y="618.333"/>
      <point x="373.999" y="618.333" type="curve" smooth="yes"/>
      <point x="511.999" y="618.333"/>
      <point x="560.333" y="539"/>
      <point x="586.333" y="453" type="curve"/>
      <point x="598.333" y="449"/>
      <point x="614.999" y="452"/>
      <point x="625.999" y="458" type="curve"/>
      <point x="620.999" y="510"/>
      <point x="613.333" y="558"/>
      <point x="603.999" y="613" type="curve"/>
      <point x="552.999" y="618"/>
      <point x="507.999" y="658"/>
      <point x="384.999" y="658" type="curve" smooth="yes"/>
      <point x="189.666" y="658"/>
      <point x="37.3333" y="522"/>
      <point x="37.3333" y="313.333" type="curve" smooth="yes"/>
      <point x="37.3333" y="106"/>
      <point x="175.666" y="-10"/>
    </contour>
  </outline>
</glyph>
<glyph name="D" format="2">
  <advance width="722"/>
  <unicode hex="0044"/>
  <anchor x="335.333" y="740" name="t.uni0302"/>
  <anchor x="344" y="-60" name="b.minus-60"/>
  <outline>
    <contour>
      <point x="24.333" y="-2" type="curve"/>
      <point x="69.333" y="-1"/>
      <point x="153.5" y="0"/>
      <point x="171" y="0" type="curve"/>
      <point x="171" y="645" type="line"/>
      <point x="154.333" y="645"/>
      <point x="71" y="646"/>
      <point x="24.333" y="647" type="curve"/>
      <point x="18.333" y="641"/>
      <point x="18.333" y="619.333"/>
      <point x="24.333" y="613.333" type="curve"/>
      <point x="94.333" y="610.333"/>
      <point x="111.333" y="604.667"/>
      <point x="111.333" y="523.667" type="curve" smooth="yes"/>
      <point x="111.333" y="122" type="line" smooth="yes"/>
      <point x="111.333" y="39"/>
      <point x="94.333" y="34.666"/>
      <point x="24.333" y="31.666" type="curve"/>
      <point x="18.333" y="25.666"/>
      <point x="18.333" y="4"/>
    </contour>
    <contour>
      <point x="24.333" y="-2" type="curve"/>
      <point x="69.333" y="-1"/>
      <point x="153.5" y="0"/>
      <point x="171" y="0" type="curve"/>
      <point x="171" y="645" type="line"/>
      <point x="154.333" y="645"/>
      <point x="71" y="646"/>
      <point x="24.333" y="647" type="curve"/>
      <point x="18.333" y="641"/>
      <point x="18.333" y="619.333"/>
      <point x="24.333" y="613.333" type="curve"/>
      <point x="94.333" y="610.333"/>
      <point x="111.333" y="604.667"/>
      <point x="111.333" y="523.667" type="curve" smooth="yes"/>
      <point x="111.333" y="122" type="line" smooth="yes"/>
      <point x="111.333" y="39"/>
      <point x="94.333" y="34.666"/>
      <point x="24.333" y="31.666" type="curve"/>
      <point x="18.333" y="25.666"/>
      <point x="18.333" y="4"/>
    </contour>
    <contour>
      <point x="170.833" y="0" type="line"/>
      <point x="209.833" y="0"/>
      <point x="280" y="-2"/>
      <point x="341" y="-2" type="curve" smooth="yes"/>
      <point x="525.333" y="-2"/>
      <point x="676" y="84.162"/>
      <point x="676" y="308.97" type="curve" smooth="yes"/>
      <point x="676" y="494"/>
      <point x="545" y="646.333"/>
      <point x="317" y="646.333" type="curve" smooth="yes"/>
      <point x="258" y="646.333"/>
      <point x="210.5" y="645"/>
      <point x="170.833" y="645" type="curve"/>
    </contour>
    <contour>
      <point x="231" y="107.566" type="curve" smooth="yes"/>
      <point x="231" y="540.667" type="line" smooth="yes"/>
      <point x="231" y="589"/>
      <point x="260" y="607"/>
      <point x="300.333" y="607" type="curve" smooth="yes"/>
      <point x="503.667" y="607"/>
      <point x="542" y="436"/>
      <point x="542" y="284.664" type="curve" smooth="yes"/>
      <point x="542" y="95.515"/>
      <point x="429" y="37.333"/>
      <point x="331.333" y="37.333" type="curve" smooth="yes"/>
      <point x="252" y="37.333"/>
      <point x="231" y="52.035"/>
    </contour>
  </outline>
</glyph>
<glyph name="E" format="2">
  <advance width="600"/>
  <unicode hex="0045"/>
  <anchor x="287.333" y="740" name="t.uni0302"/>
  <anchor x="347.333" y="10" name="b.ogonek"/>
  <anchor x="317.333" y="-60" name="b.minus-60"/>
  <anchor x="364.333" y="0" name="b.cedilla"/>
  <outline>
    <contour>
      <point x="24.3333" y="-2" type="curve"/>
      <point x="69.3333" y="-1"/>
      <point x="153.5" y="0"/>
      <point x="171" y="0" type="curve"/>
      <point x="171" y="645" type="line"/>
      <point x="154.333" y="645"/>
      <point x="71" y="646"/>
      <point x="24.3333" y="647" type="curve"/>
      <point x="18.3333" y="641"/>
      <point x="18.3333" y="619.333"/>
      <point x="24.3333" y="613.333" type="curve"/>
      <point x="94.3333" y="610.333"/>
      <point x="111.333" y="604.667"/>
      <point x="111.333" y="523.667" type="curve" smooth="yes"/>
      <point x="111.333" y="122" type="line" smooth="yes"/>
      <point x="111.333" y="39"/>
      <point x="94.3333" y="34.6667"/>
      <point x="24.3333" y="31.6667" type="curve"/>
      <point x="18.3333" y="25.6667"/>
      <point x="18.3333" y="4"/>
    </contour>
    <contour>
      <point x="171" y="0" type="line"/>
      <point x="399.333" y="0" type="line" smooth="yes"/>
      <point x="447.333" y="0"/>
      <point x="525.333" y="-1.8"/>
      <point x="534" y="-2" type="curve"/>
      <point x="548" y="48"/>
      <point x="556.333" y="114"/>
      <point x="564.333" y="165" type="curve"/>
      <point x="554.333" y="171"/>
      <point x="535.667" y="173"/>
      <point x="522.667" y="170" type="curve"/>
      <point x="502.667" y="98"/>
      <point x="461" y="41"/>
      <point x="385" y="41" type="curve" smooth="yes"/>
      <point x="279" y="41" type="line" smooth="yes"/>
      <point x="250.333" y="41"/>
      <point x="233" y="60.3333"/>
      <point x="233" y="94" type="curve" smooth="yes"/>
      <point x="233" y="549.667" type="line" smooth="yes"/>
      <point x="233" y="580.333"/>
      <point x="248.333" y="603.667"/>
      <point x="282.333" y="603.667" type="curve" smooth="yes"/>
      <point x="364" y="603.667" type="line" smooth="yes"/>
      <point x="439" y="603.667"/>
      <point x="458.333" y="565"/>
      <point x="480.333" y="496" type="curve"/>
      <point x="492.333" y="494"/>
      <point x="510" y="496"/>
      <point x="520" y="501" type="curve"/>
      <point x="515" y="542"/>
      <point x="506.667" y="638"/>
      <point x="504.667" y="646" type="curve"/>
      <point x="504.667" y="648"/>
      <point x="503.667" y="649"/>
      <point x="500.667" y="649" type="curve"/>
      <point x="483.667" y="646"/>
      <point x="475.667" y="645"/>
      <point x="451.667" y="645" type="curve" smooth="yes"/>
      <point x="171" y="645" type="line"/>
    </contour>
    <contour>
      <point x="317.333" y="363.667" type="curve" smooth="yes"/>
      <point x="218" y="363.667" type="line"/>
      <point x="218" y="320.333" type="line"/>
      <point x="317.333" y="320.333" type="line" smooth="yes"/>
      <point x="391.667" y="320.333"/>
      <point x="405.333" y="300"/>
      <point x="408.333" y="255" type="curve"/>
      <point x="414.333" y="249"/>
      <point x="442" y="249"/>
      <point x="448" y="255" type="curve"/>
      <point x="447" y="287"/>
      <point x="446" y="309"/>
      <point x="446" y="343" type="curve" smooth="yes"/>
      <point x="446" y="375"/>
      <point x="447" y="401"/>
      <point x="448" y="429" type="curve"/>
      <point x="442" y="435"/>
      <point x="414.333" y="435"/>
      <point x="408.333" y="429" type="curve"/>
      <point x="405.333" y="374"/>
      <point x="390.333" y="363.667"/>
    </contour>
  </outline>
</glyph>
<glyph name="F" format="2">
  <advance width="533"/>
  <unicode hex="0046"/>
  <anchor x="324.333" y="740" name="t.uni0302"/>
  <anchor x="323" y="-60" name="b.minus-60"/>
  <outline>
    <contour>
      <point x="24.333" y="-2" type="curve"/>
      <point x="69.333" y="-1"/>
      <point x="158.666" y="0"/>
      <point x="176" y="0" type="curve"/>
      <point x="176" y="645" type="line"/>
      <point x="159.333" y="645"/>
      <point x="71" y="646"/>
      <point x="24.333" y="647" type="curve"/>
      <point x="18.333" y="641"/>
      <point x="18.333" y="619.333"/>
      <point x="24.333" y="613.333" type="curve"/>
      <point x="94.333" y="610.333"/>
      <point x="111.333" y="604.667"/>
      <point x="111.333" y="523.667" type="curve" smooth="yes"/>
      <point x="111.333" y="122" type="line" smooth="yes"/>
      <point x="111.333" y="39"/>
      <point x="94.333" y="34.667"/>
      <point x="24.333" y="31.667" type="curve"/>
      <point x="18.333" y="25.667"/>
      <point x="18.333" y="4"/>
    </contour>
    <contour>
      <point x="170.833" y="0" type="line"/>
      <point x="212.5" y="0"/>
      <point x="285" y="-1"/>
      <point x="323.333" y="-2" type="curve"/>
      <point x="332" y="4"/>
      <point x="332" y="25.667"/>
      <point x="323.333" y="31.667" type="curve"/>
      <point x="263.333" y="34.667"/>
      <point x="232.333" y="39.334"/>
      <point x="232.333" y="121.47" type="curve" smooth="yes"/>
      <point x="232.333" y="549.667" type="line" smooth="yes"/>
      <point x="232.333" y="583.667"/>
      <point x="247.666" y="603.667"/>
      <point x="278.333" y="603.667" type="curve" smooth="yes"/>
      <point x="353.333" y="603.667" type="line" smooth="yes"/>
      <point x="438.667" y="603.667"/>
      <point x="464.333" y="561.667"/>
      <point x="486.333" y="492.667" type="curve"/>
      <point x="498.333" y="491.333"/>
      <point x="510.667" y="493.333"/>
      <point x="520" y="497.667" type="curve"/>
      <point x="516.333" y="540.667"/>
      <point x="506" y="638"/>
      <point x="504.667" y="646" type="curve"/>
      <point x="504.667" y="648"/>
      <point x="503.667" y="649"/>
      <point x="500.667" y="649" type="curve"/>
      <point x="483.667" y="646"/>
      <point x="476.667" y="645"/>
      <point x="452.333" y="645" type="curve" smooth="yes"/>
      <point x="170.833" y="645" type="line"/>
    </contour>
    <contour>
      <point x="217.333" y="307" type="line"/>
      <point x="317.333" y="307" type="line" smooth="yes"/>
      <point x="391.666" y="307"/>
      <point x="405.333" y="286.667"/>
      <point x="408.333" y="241.667" type="curve"/>
      <point x="414.333" y="235.667"/>
      <point x="442" y="235.667"/>
      <point x="448" y="241.667" type="curve"/>
      <point x="446.333" y="273.333"/>
      <point x="446" y="303"/>
      <point x="446" y="329.666" type="curve" smooth="yes"/>
      <point x="446" y="356.333"/>
      <point x="447" y="387.666"/>
      <point x="448" y="415.667" type="curve"/>
      <point x="442" y="421.667"/>
      <point x="414.333" y="421.667"/>
      <point x="408.333" y="415.667" type="curve"/>
      <point x="405.333" y="360.666"/>
      <point x="390.333" y="350.333"/>
      <point x="317.333" y="350.333" type="curve" smooth="yes"/>
      <point x="217.333" y="350.333" type="line"/>
    </contour>
  </outline>
</glyph>
<glyph name="G" format="2">
  <advance width="719"/>
  <unicode hex="0047"/>
  <anchor x="360" y="740" name="t.uni0302"/>
  <anchor x="358.667" y="-60" name="b.minus-60"/>
  <outline>
    <contour>
      <point x="392" y="658" type="curve" smooth="yes"/>
      <point x="197.667" y="658"/>
      <point x="37.333" y="521.667"/>
      <point x="37.333" y="307" type="curve" smooth="yes"/>
      <point x="37.333" y="105"/>
      <point x="181.333" y="-10"/>
      <point x="377" y="-10" type="curve" smooth="yes"/>
      <point x="491" y="-10"/>
      <point x="594" y="21"/>
      <point x="659.333" y="76.333" type="curve"/>
      <point x="649" y="85.333"/>
      <point x="644" y="93.333"/>
      <point x="644" y="104.333" type="curve" smooth="yes"/>
      <point x="644" y="221" type="line" smooth="yes"/>
      <point x="644" y="256"/>
      <point x="659.667" y="266"/>
      <point x="688" y="269" type="curve"/>
      <point x="694" y="275"/>
      <point x="694" y="299.667"/>
      <point x="688" y="305.667" type="curve"/>
      <point x="661.333" y="304.667"/>
      <point x="621.667" y="303.667"/>
      <point x="583" y="303.667" type="curve" smooth="yes"/>
      <point x="547.333" y="303.667"/>
      <point x="487.666" y="304.667"/>
      <point x="443" y="305.667" type="curve"/>
      <point x="437" y="299.667"/>
      <point x="437" y="275"/>
      <point x="443" y="269" type="curve"/>
      <point x="496" y="265"/>
      <point x="522.333" y="261"/>
      <point x="522.333" y="221" type="curve" smooth="yes"/>
      <point x="522.333" y="70.667" type="line"/>
      <point x="489.666" y="38.667"/>
      <point x="451.333" y="30"/>
      <point x="399.333" y="30" type="curve" smooth="yes"/>
      <point x="234" y="30"/>
      <point x="170" y="195"/>
      <point x="170" y="327" type="curve" smooth="yes"/>
      <point x="170" y="472.667"/>
      <point x="231.333" y="618"/>
      <point x="378" y="618" type="curve" smooth="yes"/>
      <point x="513" y="618"/>
      <point x="570.666" y="539"/>
      <point x="596" y="453" type="curve"/>
      <point x="610.333" y="451.334"/>
      <point x="624.667" y="453.334"/>
      <point x="636.333" y="459" type="curve"/>
      <point x="629.667" y="501"/>
      <point x="624.667" y="547.667"/>
      <point x="614.667" y="619.667" type="curve"/>
      <point x="560" y="623"/>
      <point x="512.333" y="658"/>
    </contour>
  </outline>
</glyph>
<glyph name="H" format="2">
  <advance width="785"/>
  <unicode hex="0048"/>
  <anchor x="356" y="740" name="t.uni0302"/>
  <anchor x="396" y="-60" name="b.minus-60"/>
  <anchor x="173.667" y="10" name="b.cedilla"/>
  <outline>
    <contour>
      <point x="26.3333" y="-2" type="curve"/>
      <point x="67.6667" y="-1"/>
      <point x="133" y="0"/>
      <point x="172.333" y="0" type="curve" smooth="yes"/>
      <point x="211" y="0"/>
      <point x="275.333" y="-1"/>
      <point x="316.667" y="-2" type="curve"/>
      <point x="325.333" y="4"/>
      <point x="325.333" y="25.6667"/>
      <point x="316.667" y="31.6667" type="curve"/>
      <point x="256.667" y="34.6667"/>
      <point x="232.333" y="39"/>
      <point x="232.333" y="122" type="curve" smooth="yes"/>
      <point x="232.333" y="319.667" type="line"/>
      <point x="553" y="319.667" type="line"/>
      <point x="553" y="122" type="line" smooth="yes"/>
      <point x="553" y="39"/>
      <point x="528.667" y="34.6667"/>
      <point x="468.667" y="31.6667" type="curve"/>
      <point x="460" y="25.6667"/>
      <point x="460" y="4"/>
      <point x="468.667" y="-2" type="curve"/>
      <point x="510.333" y="-1"/>
      <point x="575.667" y="0"/>
      <point x="614.667" y="0" type="curve" smooth="yes"/>
      <point x="653.667" y="0"/>
      <point x="717.667" y="-1"/>
      <point x="759" y="-2" type="curve"/>
      <point x="767.667" y="4"/>
      <point x="767.667" y="25.6667"/>
      <point x="759" y="31.6667" type="curve"/>
      <point x="699" y="34.6667"/>
      <point x="674.667" y="39"/>
      <point x="674.667" y="122" type="curve" smooth="yes"/>
      <point x="674.667" y="523" type="line" smooth="yes"/>
      <point x="674.667" y="606"/>
      <point x="699" y="610.333"/>
      <point x="759" y="613.333" type="curve"/>
      <point x="767.667" y="619.333"/>
      <point x="767.667" y="641"/>
      <point x="759" y="647" type="curve"/>
      <point x="718.667" y="646"/>
      <point x="653.667" y="645"/>
      <point x="614.333" y="645" type="curve" smooth="yes"/>
      <point x="575.333" y="645"/>
      <point x="510" y="646"/>
      <point x="468.667" y="647" type="curve"/>
      <point x="460" y="641"/>
      <point x="460" y="619.333"/>
      <point x="468.667" y="613.333" type="curve"/>
      <point x="528.667" y="610.333"/>
      <point x="553" y="606"/>
      <point x="553" y="523" type="curve" smooth="yes"/>
      <point x="553" y="365.667" type="line"/>
      <point x="232.333" y="365.667" type="line"/>
      <point x="232.333" y="523" type="line" smooth="yes"/>
      <point x="232.333" y="606"/>
      <point x="256.667" y="610.333"/>
      <point x="316.667" y="613.333" type="curve"/>
      <point x="325.333" y="619.333"/>
      <point x="325.333" y="641"/>
      <point x="316.667" y="647" type="curve"/>
      <point x="277.333" y="646"/>
      <point x="215.667" y="645"/>
      <point x="172" y="645" type="curve" smooth="yes"/>
      <point x="128.667" y="645"/>
      <point x="65.6667" y="646"/>
      <point x="26.3333" y="647" type="curve"/>
      <point x="17.6667" y="641"/>
      <point x="17.6667" y="619.333"/>
      <point x="26.3333" y="613.333" type="curve"/>
      <point x="86.3333" y="610.333"/>
      <point x="110.667" y="606"/>
      <point x="110.667" y="523" type="curve" smooth="yes"/>
      <point x="110.667" y="122" type="line" smooth="yes"/>
      <point x="110.667" y="39"/>
      <point x="86.3333" y="34.6667"/>
      <point x="26.3333" y="31.6667" type="curve"/>
      <point x="17.6667" y="25.6667"/>
      <point x="17.6667" y="4"/>
    </contour>
  </outline>
  <guideline angle="90" x="362" y="0"/>
</glyph>
<glyph name="I" format="2">
  <advance width="343"/>
  <unicode hex="0049"/>
  <anchor x="171.333" y="740" name="t.uni0302"/>
  <anchor x="216.333" y="10" name="b.ogonek"/>
  <anchor x="174" y="-60" name="b.minus-60"/>
  <outline>
    <contour>
      <point x="26.3333" y="-2" type="curve"/>
      <point x="68" y="-1"/>
      <point x="133.667" y="0"/>
      <point x="172.333" y="0" type="curve" smooth="yes"/>
      <point x="211" y="0"/>
      <point x="275" y="-1"/>
      <point x="316.667" y="-2" type="curve"/>
      <point x="325.333" y="4"/>
      <point x="325.333" y="25.6667"/>
      <point x="316.667" y="31.6667" type="curve"/>
      <point x="256.667" y="34.6701"/>
      <point x="232.333" y="38.3412"/>
      <point x="232.333" y="121.435" type="curve"/>
      <point x="110.667" y="121.435" type="line"/>
      <point x="110.667" y="38.3412"/>
      <point x="86.3333" y="34.6701"/>
      <point x="26.3333" y="31.6667" type="curve"/>
      <point x="17.6667" y="25.6667"/>
      <point x="17.6667" y="4"/>
    </contour>
    <contour>
      <point x="110.667" y="121.333" type="line"/>
      <point x="232.333" y="121.333" type="line"/>
      <point x="232.333" y="524.333" type="line"/>
      <point x="110.667" y="524.333" type="line"/>
    </contour>
    <contour>
      <point x="232.333" y="524.333" type="line"/>
      <point x="232.333" y="585.433"/>
      <point x="256.667" y="610.333"/>
      <point x="316.667" y="613.333" type="curve"/>
      <point x="325.333" y="619.333"/>
      <point x="325.333" y="641"/>
      <point x="316.667" y="647" type="curve"/>
      <point x="275.333" y="646"/>
      <point x="211.667" y="645"/>
      <point x="172" y="645" type="curve" smooth="yes"/>
      <point x="134.333" y="645"/>
      <point x="68.6667" y="646"/>
      <point x="26.3333" y="647" type="curve"/>
      <point x="17.6667" y="641"/>
      <point x="17.6667" y="619.333"/>
      <point x="26.3333" y="613.333" type="curve"/>
      <point x="86.3333" y="610.333"/>
      <point x="110.882" y="585.433"/>
      <point x="110.667" y="524.333" type="curve"/>
    </contour>
  </outline>
  <guideline angle="90" x="148" y="0"/>
</glyph>
<glyph name="J" format="2">
  <advance width="332"/>
  <unicode hex="004A"/>
  <anchor x="159.333" y="740" name="t.uni0302"/>
  <outline>
    <contour>
      <point x="238.334" y="522.333" type="line" smooth="yes"/>
      <point x="238.334" y="605.333"/>
      <point x="255.334" y="610.333"/>
      <point x="315.334" y="613.333" type="curve"/>
      <point x="321.334" y="619.333"/>
      <point x="321.334" y="641"/>
      <point x="315.334" y="647" type="curve"/>
      <point x="270.001" y="646"/>
      <point x="228.334" y="645"/>
      <point x="176.668" y="645" type="curve" smooth="yes"/>
      <point x="121.334" y="645"/>
      <point x="69.6667" y="646"/>
      <point x="19.6667" y="647" type="curve"/>
      <point x="13.6667" y="641"/>
      <point x="13.6667" y="619.333"/>
      <point x="19.6667" y="613.333" type="curve"/>
      <point x="99.6667" y="610.333"/>
      <point x="116.667" y="605.333"/>
      <point x="116.667" y="522.333" type="curve" smooth="yes"/>
      <point x="116.667" y="81" type="line" smooth="yes"/>
      <point x="116.667" y="-99"/>
      <point x="95.3337" y="-127.667"/>
      <point x="55.6667" y="-127.667" type="curve" smooth="yes"/>
      <point x="37.3337" y="-127.667"/>
      <point x="20.6667" y="-117"/>
      <point x="11.6667" y="-103.334" type="curve" smooth="yes"/>
      <point x="1.00067" y="-88"/>
      <point x="-5.33333" y="-65"/>
      <point x="-40.3333" y="-65" type="curve" smooth="yes"/>
      <point x="-56.9993" y="-65"/>
      <point x="-93.6663" y="-90"/>
      <point x="-93.6663" y="-116.667" type="curve" smooth="yes"/>
      <point x="-93.6663" y="-160"/>
      <point x="-29.9993" y="-182"/>
      <point x="-3.33333" y="-182" type="curve" smooth="yes"/>
      <point x="51.0007" y="-182"/>
      <point x="95.3337" y="-164"/>
      <point x="136.334" y="-129" type="curve" smooth="yes"/>
      <point x="180.334" y="-92"/>
      <point x="238.334" y="-40"/>
      <point x="238.334" y="103" type="curve" smooth="yes"/>
    </contour>
  </outline>
</glyph>
<glyph name="K" format="2">
  <advance width="706"/>
  <unicode hex="004B"/>
  <anchor x="343.667" y="740" name="t.uni0302"/>
  <anchor x="342.333" y="-60" name="b.minus-60"/>
  <outline>
    <contour>
      <point x="24.3333" y="-2" type="curve"/>
      <point x="69.3333" y="-1"/>
      <point x="152.833" y="0"/>
      <point x="170.833" y="0" type="curve"/>
      <point x="170.833" y="645" type="line"/>
      <point x="154.167" y="645"/>
      <point x="71" y="646"/>
      <point x="24.3333" y="647" type="curve"/>
      <point x="18.3333" y="641"/>
      <point x="18.3333" y="619.333"/>
      <point x="24.3333" y="613.333" type="curve"/>
      <point x="94.3333" y="610.333"/>
      <point x="111.333" y="604.667"/>
      <point x="111.333" y="523.667" type="curve" smooth="yes"/>
      <point x="111.333" y="121.817" type="line" smooth="yes"/>
      <point x="111.333" y="39"/>
      <point x="94.3333" y="34.6667"/>
      <point x="24.3333" y="31.6667" type="curve"/>
      <point x="18.3333" y="25.6667"/>
      <point x="18.3333" y="4"/>
    </contour>
    <contour>
      <point x="170.833" y="0" type="line"/>
      <point x="210.167" y="0"/>
      <point x="273.667" y="-1"/>
      <point x="315.333" y="-2" type="curve"/>
      <point x="324" y="4"/>
      <point x="324" y="25.6667"/>
      <point x="315.333" y="31.6667" type="curve"/>
      <point x="255.333" y="34.6667"/>
      <point x="231" y="39"/>
      <point x="231" y="122" type="curve" smooth="yes"/>
      <point x="231" y="523" type="line" smooth="yes"/>
      <point x="231" y="606"/>
      <point x="255.333" y="610.333"/>
      <point x="315.333" y="613.333" type="curve"/>
      <point x="324" y="619.333"/>
      <point x="324" y="641"/>
      <point x="315.333" y="647" type="curve"/>
      <point x="273.333" y="646"/>
      <point x="209.833" y="645"/>
      <point x="170.833" y="645" type="curve"/>
    </contour>
    <contour>
      <point x="216" y="317" type="line"/>
      <point x="250.333" y="317"/>
      <point x="277.974" y="302.314"/>
      <point x="302" y="271" type="curve" smooth="yes"/>
      <point x="455" y="73.6667" type="line" smooth="yes"/>
      <point x="474.97" y="47.6438"/>
      <point x="489" y="20"/>
      <point x="491" y="4" type="curve"/>
      <point x="491" y="1"/>
      <point x="492" y="-2"/>
      <point x="496" y="-2" type="curve"/>
      <point x="516" y="-1"/>
      <point x="555.667" y="0"/>
      <point x="582.667" y="0" type="curve" smooth="yes"/>
      <point x="620" y="0"/>
      <point x="658" y="-1"/>
      <point x="695" y="-2" type="curve"/>
      <point x="701" y="4"/>
      <point x="701" y="25.6667"/>
      <point x="695" y="31.6667" type="curve"/>
      <point x="665.333" y="35.3333"/>
      <point x="641.088" y="41.457"/>
      <point x="613.667" y="73.6667" type="curve" smooth="yes"/>
      <point x="394.667" y="333" type="line" smooth="yes"/>
      <point x="380.701" y="349.363"/>
      <point x="370.333" y="363.333"/>
      <point x="370.333" y="371.333" type="curve" smooth="yes"/>
      <point x="370.333" y="378.333"/>
      <point x="371.251" y="388.757"/>
      <point x="390" y="407" type="curve" smooth="yes"/>
      <point x="511.667" y="522" type="line" smooth="yes"/>
      <point x="566.461" y="572.907"/>
      <point x="617" y="607"/>
      <point x="669.667" y="613.333" type="curve"/>
      <point x="675.667" y="619.333"/>
      <point x="675.667" y="641"/>
      <point x="669.667" y="647" type="curve"/>
      <point x="642.667" y="646"/>
      <point x="608.667" y="645"/>
      <point x="574.667" y="645" type="curve" smooth="yes"/>
      <point x="535.667" y="645"/>
      <point x="492.667" y="646"/>
      <point x="455" y="647" type="curve"/>
      <point x="449" y="641"/>
      <point x="449" y="619.333"/>
      <point x="455" y="613.333" type="curve"/>
      <point x="506.333" y="608.333"/>
      <point x="517.306" y="583.915"/>
      <point x="467.667" y="537.333" type="curve" smooth="yes"/>
      <point x="341.333" y="415.333" type="line"/>
      <point x="286.148" y="364.865"/>
      <point x="249" y="341.333"/>
      <point x="216" y="341.333" type="curve"/>
    </contour>
  </outline>
  <guideline angle="90" x="313" y="0"/>
</glyph>
<glyph name="L" format="2">
  <advance width="560"/>
  <unicode hex="004C"/>
  <anchor x="285" y="740" name="t.uni0302"/>
  <anchor x="318.333" y="-60" name="b.minus-60"/>
  <anchor x="375" y="654" name="apostrophe"/>
  <outline>
    <contour>
      <point x="24.333" y="-2" type="curve"/>
      <point x="69.333" y="-1"/>
      <point x="158.666" y="0"/>
      <point x="176" y="0" type="curve"/>
      <point x="176" y="645" type="line"/>
      <point x="159.333" y="645"/>
      <point x="71" y="646"/>
      <point x="24.333" y="647" type="curve"/>
      <point x="18.333" y="641"/>
      <point x="18.333" y="619.333"/>
      <point x="24.333" y="613.333" type="curve"/>
      <point x="94.333" y="610.333"/>
      <point x="111.333" y="604.666"/>
      <point x="111.333" y="523.666" type="curve" smooth="yes"/>
      <point x="111.333" y="122" type="line" smooth="yes"/>
      <point x="111.333" y="39"/>
      <point x="94.333" y="34.667"/>
      <point x="24.333" y="31.667" type="curve"/>
      <point x="18.333" y="25.667"/>
      <point x="18.333" y="4"/>
    </contour>
    <contour>
      <point x="170.833" y="0" type="line"/>
      <point x="390.667" y="0" type="line" smooth="yes"/>
      <point x="419" y="0"/>
      <point x="501.333" y="-2"/>
      <point x="510.333" y="-2" type="curve"/>
      <point x="520.333" y="48"/>
      <point x="530.333" y="113"/>
      <point x="536.333" y="165" type="curve"/>
      <point x="526.333" y="170"/>
      <point x="508.667" y="172"/>
      <point x="496.667" y="170" type="curve"/>
      <point x="476.667" y="98"/>
      <point x="439.667" y="41"/>
      <point x="334.333" y="41" type="curve" smooth="yes"/>
      <point x="273.333" y="41" type="line" smooth="yes"/>
      <point x="246.333" y="41"/>
      <point x="231" y="60"/>
      <point x="231" y="117" type="curve" smooth="yes"/>
      <point x="231" y="523" type="line" smooth="yes"/>
      <point x="231" y="606"/>
      <point x="255.333" y="610.333"/>
      <point x="315.333" y="613.333" type="curve"/>
      <point x="324" y="619.333"/>
      <point x="324" y="641"/>
      <point x="315.333" y="647" type="curve"/>
      <point x="245.667" y="646"/>
      <point x="210.167" y="645"/>
      <point x="170.833" y="645" type="curve"/>
    </contour>
  </outline>
</glyph>
<glyph name="M" format="2">
  <advance width="879"/>
  <unicode hex="004D"/>
  <anchor x="414.667" y="740" name="t.uni0302"/>
  <anchor x="406.667" y="-60" name="b.minus-60"/>
  <outline>
    <contour>
      <point x="663" y="116" type="line" smooth="yes"/>
      <point x="668.038" y="35.003"/>
      <point x="664" y="34.667"/>
      <point x="599" y="31.667" type="curve"/>
      <point x="593" y="25.667"/>
      <point x="593" y="4"/>
      <point x="599" y="-2" type="curve"/>
      <point x="642.667" y="-1"/>
      <point x="716" y="0"/>
      <point x="746" y="0" type="curve" smooth="yes"/>
      <point x="776" y="0"/>
      <point x="822" y="-1"/>
      <point x="855" y="-2" type="curve"/>
      <point x="861" y="4"/>
      <point x="861" y="25.667"/>
      <point x="855" y="31.667" type="curve"/>
      <point x="787" y="34.667"/>
      <point x="783.915" y="37.994"/>
      <point x="778" y="121" type="curve" smooth="yes"/>
      <point x="748" y="542" type="line" smooth="yes"/>
      <point x="744.151" y="596.011"/>
      <point x="749" y="609.333"/>
      <point x="817" y="613.333" type="curve"/>
      <point x="823" y="619.333"/>
      <point x="823" y="641"/>
      <point x="817" y="647" type="curve"/>
      <point x="639.333" y="645" type="line"/>
      <point x="442" y="180" type="line" smooth="yes"/>
      <point x="440" y="175.334"/>
      <point x="438.333" y="172.667"/>
      <point x="437" y="172.667" type="curve" smooth="yes"/>
      <point x="435.667" y="172.667"/>
      <point x="434" y="175.667"/>
      <point x="432.333" y="179.667" type="curve" smooth="yes"/>
      <point x="245.333" y="645" type="line"/>
      <point x="60.333" y="647" type="line"/>
      <point x="54.333" y="641"/>
      <point x="54.333" y="619.333"/>
      <point x="60.333" y="613.333" type="curve"/>
      <point x="129.333" y="609.333"/>
      <point x="135.333" y="608"/>
      <point x="128.333" y="533" type="curve" smooth="yes"/>
      <point x="88.333" y="121" type="line" smooth="yes"/>
      <point x="82.333" y="61"/>
      <point x="70.333" y="36.667"/>
      <point x="13.333" y="31.667" type="curve"/>
      <point x="7.333" y="25.667"/>
      <point x="7.333" y="4"/>
      <point x="13.333" y="-2" type="curve"/>
      <point x="43.333" y="-1"/>
      <point x="75.333" y="0"/>
      <point x="99.333" y="0" type="curve" smooth="yes"/>
      <point x="123.333" y="0"/>
      <point x="176.667" y="-1"/>
      <point x="206.667" y="-2" type="curve"/>
      <point x="212.667" y="4"/>
      <point x="212.667" y="25.667"/>
      <point x="206.667" y="31.667" type="curve"/>
      <point x="140.667" y="36.667"/>
      <point x="136.333" y="67"/>
      <point x="140.667" y="123" type="curve" smooth="yes"/>
      <point x="170.667" y="506.666" type="line"/>
      <point x="174" y="506.666" type="line"/>
      <point x="374.333" y="5" type="line" smooth="yes"/>
      <point x="377.333" y="-2"/>
      <point x="386.667" y="-8.667"/>
      <point x="392.667" y="-8.667" type="curve" smooth="yes"/>
      <point x="398.667" y="-8.667"/>
      <point x="406" y="-3.667"/>
      <point x="410" y="5" type="curve"/>
      <point x="635" y="534" type="line"/>
      <point x="637" y="534" type="line"/>
    </contour>
  </outline>
</glyph>
<glyph name="O" format="2">
  <advance width="721"/>
  <unicode hex="004F"/>
  <anchor x="345" y="740" name="t.uni0302"/>
  <anchor x="397" y="10" name="b.ogonek"/>
  <anchor x="350.333" y="-60" name="b.minus-60"/>
  <outline>
    <contour>
      <point x="684" y="323.11" type="curve" smooth="yes"/>
      <point x="684" y="523.52"/>
      <point x="544.171" y="658"/>
      <point x="360.561" y="658" type="curve" smooth="yes"/>
      <point x="167.205" y="658"/>
      <point x="37.333" y="509.046"/>
      <point x="37.333" y="319.823" type="curve" smooth="yes"/>
      <point x="37.333" y="122.197"/>
      <point x="179.067" y="-10"/>
      <point x="366.772" y="-10" type="curve" smooth="yes"/>
      <point x="556.898" y="-10"/>
      <point x="684" y="131.817"/>
    </contour>
    <contour>
      <point x="348.542" y="619.333" type="curve" smooth="yes"/>
      <point x="465.578" y="619.333"/>
      <point x="551.333" y="500.857"/>
      <point x="551.333" y="308.202" type="curve" smooth="yes"/>
      <point x="551.333" y="134.492"/>
      <point x="481.876" y="30"/>
      <point x="374.367" y="30" type="curve" smooth="yes"/>
      <point x="260.47" y="30"/>
      <point x="170" y="147.743"/>
      <point x="170" y="329.011" type="curve" smooth="yes"/>
      <point x="170" y="520.509"/>
      <point x="242.58" y="619.333"/>
    </contour>
  </outline>
</glyph>
<glyph name="P" format="2">
  <advance width="591"/>
  <unicode hex="0050"/>
  <anchor x="320" y="740" name="t.uni0302"/>
  <anchor x="318.667" y="-60" name="b.minus-60"/>
  <outline>
    <contour>
      <point x="24.333" y="-2" type="curve"/>
      <point x="69.333" y="-1"/>
      <point x="158.666" y="0"/>
      <point x="175.999" y="0" type="curve"/>
      <point x="175.999" y="645" type="line"/>
      <point x="159.333" y="645"/>
      <point x="71" y="646"/>
      <point x="24.333" y="647" type="curve"/>
      <point x="18.333" y="641"/>
      <point x="18.333" y="619.334"/>
      <point x="24.333" y="613.333" type="curve"/>
      <point x="94.333" y="610.333"/>
      <point x="111.333" y="604.666"/>
      <point x="111.333" y="523.666" type="curve" smooth="yes"/>
      <point x="111.333" y="122" type="line" smooth="yes"/>
      <point x="111.333" y="39"/>
      <point x="94.333" y="34.667"/>
      <point x="24.333" y="31.667" type="curve"/>
      <point x="18.333" y="25.667"/>
      <point x="18.333" y="4"/>
    </contour>
    <contour>
      <point x="170.833" y="0" type="line"/>
      <point x="209.166" y="0"/>
      <point x="279.666" y="-1"/>
      <point x="323" y="-2" type="curve"/>
      <point x="331.666" y="4"/>
      <point x="331.666" y="25.667"/>
      <point x="323" y="31.667" type="curve"/>
      <point x="260.333" y="35"/>
      <point x="233.666" y="39"/>
      <point x="233.666" y="122" type="curve" smooth="yes"/>
      <point x="233.666" y="534" type="line" smooth="yes"/>
      <point x="233.666" y="589"/>
      <point x="243.333" y="614.667"/>
      <point x="302.666" y="614.667" type="curve" smooth="yes"/>
      <point x="364.333" y="614.667"/>
      <point x="432" y="591"/>
      <point x="432" y="467.333" type="curve" smooth="yes"/>
      <point x="432" y="362"/>
      <point x="395.333" y="318"/>
      <point x="308.333" y="318" type="curve" smooth="yes"/>
      <point x="280.999" y="318"/>
      <point x="259.666" y="319.667"/>
      <point x="238.666" y="323" type="curve"/>
      <point x="238.666" y="306.333"/>
      <point x="244.333" y="293.334"/>
      <point x="256.666" y="284" type="curve"/>
      <point x="274.333" y="280.667"/>
      <point x="283.666" y="278.667"/>
      <point x="313.333" y="278.667" type="curve" smooth="yes"/>
      <point x="468.667" y="278.667"/>
      <point x="563.667" y="348.333"/>
      <point x="563.667" y="484.666" type="curve" smooth="yes"/>
      <point x="563.667" y="598.333"/>
      <point x="463.333" y="653.334"/>
      <point x="326.333" y="653.334" type="curve" smooth="yes"/>
      <point x="299.666" y="653.334"/>
      <point x="232.833" y="646.333"/>
      <point x="170.833" y="645" type="curve"/>
    </contour>
  </outline>
</glyph>
<glyph name="Q" format="2">
  <advance width="732"/>
  <unicode hex="0051"/>
  <anchor x="280.333" y="740" name="t.uni0302"/>
  <outline>
    <contour>
      <point x="37.333" y="309.333" type="curve" smooth="yes"/>
      <point x="37.333" y="126.333"/>
      <point x="167.667" y="9"/>
      <point x="322" y="-8" type="curve"/>
      <point x="266" y="-36.667"/>
      <point x="187.333" y="-98"/>
      <point x="152.667" y="-153" type="curve"/>
      <point x="191.667" y="-179.667" type="line"/>
      <point x="203" y="-163.333"/>
      <point x="216" y="-148.333"/>
      <point x="228.333" y="-134.333" type="curve"/>
      <point x="243" y="-124.333"/>
      <point x="256.667" y="-120.666"/>
      <point x="264.667" y="-120.666" type="curve" smooth="yes"/>
      <point x="307" y="-120.666"/>
      <point x="343.667" y="-141.667"/>
      <point x="382.666" y="-165" type="curve" smooth="yes"/>
      <point x="429.666" y="-192.666"/>
      <point x="479.666" y="-222.333"/>
      <point x="550.666" y="-222.333" type="curve" smooth="yes"/>
      <point x="613.666" y="-222.333"/>
      <point x="655.667" y="-189.666"/>
      <point x="694.667" y="-133.667" type="curve"/>
      <point x="677.667" y="-115" type="line"/>
      <point x="655.667" y="-142"/>
      <point x="619.667" y="-152"/>
      <point x="590.666" y="-152" type="curve" smooth="yes"/>
      <point x="549.333" y="-152"/>
      <point x="510.69" y="-132.618"/>
      <point x="470" y="-111.333" type="curve" smooth="yes"/>
      <point x="424.356" y="-87.951"/>
      <point x="376.333" y="-63.333"/>
      <point x="318.333" y="-63.333" type="curve" smooth="yes"/>
      <point x="315" y="-63.333"/>
      <point x="311.333" y="-63.333"/>
      <point x="308.333" y="-63.666" type="curve"/>
      <point x="353.667" y="-31.667"/>
      <point x="398" y="-12"/>
      <point x="426.666" y="-4.333" type="curve"/>
      <point x="594.333" y="25.667"/>
      <point x="685" y="164.667"/>
      <point x="685" y="329" type="curve" smooth="yes"/>
      <point x="685" y="530.667"/>
      <point x="538.666" y="658"/>
      <point x="357" y="658" type="curve" smooth="yes"/>
      <point x="160.333" y="658"/>
      <point x="37.333" y="500.667"/>
    </contour>
    <contour>
      <point x="170" y="328.333" type="curve" smooth="yes"/>
      <point x="170" y="534.333"/>
      <point x="252.333" y="618"/>
      <point x="344.667" y="618" type="curve" smooth="yes"/>
      <point x="460" y="618"/>
      <point x="552.333" y="511.333"/>
      <point x="552.333" y="308.667" type="curve" smooth="yes"/>
      <point x="552.333" y="138.333"/>
      <point x="485" y="30"/>
      <point x="379.666" y="30" type="curve" smooth="yes"/>
      <point x="265.667" y="30"/>
      <point x="170" y="139"/>
    </contour>
  </outline>
</glyph>
<glyph name="R" format="2">
  <advance width="673"/>
  <unicode hex="0052"/>
  <anchor x="302.333" y="850" name="m.uni0302"/>
  <anchor x="291.333" y="-110" name="m.uni0316_2"/>
  <anchor x="545.667" y="732" name="m.uni031A_3"/>
  <anchor x="291.333" y="740" name="t.uni0302"/>
  <outline>
    <contour>
      <point x="26.3333" y="-2" type="curve"/>
      <point x="68" y="-1"/>
      <point x="133" y="0"/>
      <point x="172.333" y="0" type="curve" smooth="yes"/>
      <point x="211.667" y="0"/>
      <point x="275.333" y="-1"/>
      <point x="316.667" y="-2" type="curve"/>
      <point x="325.333" y="4"/>
      <point x="325.333" y="25.6667"/>
      <point x="316.667" y="31.6667" type="curve"/>
      <point x="256.667" y="34.6667"/>
      <point x="232.333" y="39"/>
      <point x="232.333" y="122" type="curve" smooth="yes"/>
      <point x="232.333" y="285.667" type="line"/>
      <point x="313" y="285.667"/>
      <point x="325.333" y="276"/>
      <point x="339.333" y="253" type="curve"/>
      <point x="453" y="79" type="line" smooth="yes"/>
      <point x="483.333" y="33.3333"/>
      <point x="525" y="-10" name=".hr01"/>
      <point x="585" y="-10" type="curve" smooth="yes"/>
      <point x="616.667" y="-10"/>
      <point x="657" y="-7.33333"/>
      <point x="667" y="-2.33333" type="curve" name=".hr02"/>
      <point x="671" y="4.66667"/>
      <point x="670" y="20.3333"/>
      <point x="666" y="28.3333" type="curve" name=".hr03"/>
      <point x="621" y="28.3333"/>
      <point x="597.333" y="55.6667"/>
      <point x="570" y="98" type="curve" smooth="yes"/>
      <point x="437.333" y="308" type="line"/>
      <point x="487.667" y="327.333"/>
      <point x="569.667" y="379.333"/>
      <point x="569.667" y="482.333" type="curve" smooth="yes"/>
      <point x="569.667" y="621.667"/>
      <point x="445.667" y="653.333"/>
      <point x="331.667" y="653.333" type="curve" smooth="yes"/>
      <point x="301.333" y="653.333"/>
      <point x="230" y="643.667"/>
      <point x="165.333" y="642.333" type="curve" smooth="yes"/>
      <point x="110.333" y="641"/>
      <point x="54" y="646.667" name=".hr04"/>
      <point x="26.3333" y="647" type="curve"/>
      <point x="17.6667" y="641"/>
      <point x="17.6667" y="619.333"/>
      <point x="26.3333" y="613.333" type="curve"/>
      <point x="86.3333" y="610.333"/>
      <point x="110.667" y="606"/>
      <point x="110.667" y="523" type="curve" smooth="yes"/>
      <point x="110.667" y="122" type="line" smooth="yes"/>
      <point x="110.667" y="39"/>
      <point x="86.3333" y="34.6667"/>
      <point x="26.3333" y="31.6667" type="curve"/>
      <point x="17.6667" y="25.6667"/>
      <point x="17.6667" y="4"/>
    </contour>
    <contour>
      <point x="232.333" y="325" type="line"/>
      <point x="232.333" y="534" type="line" smooth="yes"/>
      <point x="232.333" y="589"/>
      <point x="251.667" y="614.667"/>
      <point x="310.667" y="614.667" type="curve" smooth="yes" name=".hr05"/>
      <point x="369.667" y="614.667"/>
      <point x="438.333" y="591.333"/>
      <point x="438.333" y="470.667" type="curve" smooth="yes"/>
      <point x="438.333" y="347"/>
      <point x="365.333" y="325"/>
      <point x="277" y="325" type="curve" smooth="yes"/>
    </contour>
  </outline>
  <guideline angle="0" x="0" y="816"/>
</glyph>
<glyph name="S" format="2">
  <advance width="498"/>
  <unicode hex="0053"/>
  <anchor x="232" y="740" name="t.uni0302"/>
  <anchor x="234" y="-110" name="m.uni0316_2"/>
  <anchor x="481" y="732" name="m.uni031A_3"/>
  <outline>
    <contour>
      <point x="46.3333" y="11" type="curve"/>
      <point x="103.337" y="11"/>
      <point x="152.351" y="-10.0413" name=".hr01"/>
      <point x="226.247" y="-10.0413" type="curve" smooth="yes"/>
      <point x="368.285" y="-10.0413"/>
      <point x="456.667" y="63.9976"/>
      <point x="456.667" y="184" type="curve" smooth="yes"/>
      <point x="456.667" y="277.249"/>
      <point x="403.298" y="339.374"/>
      <point x="281.875" y="386.717" type="curve" smooth="yes"/>
      <point x="193.179" y="420.987"/>
      <point x="151.333" y="465.249"/>
      <point x="151.333" y="522" type="curve" smooth="yes"/>
      <point x="151.333" y="578.012"/>
      <point x="191.037" y="618.667"/>
      <point x="244.667" y="618.667" type="curve" smooth="yes"/>
      <point x="305.071" y="618.667"/>
      <point x="354.247" y="577.321"/>
      <point x="381.333" y="481.333" type="curve"/>
      <point x="397.119" y="477.269"/>
      <point x="416.875" y="479.579"/>
      <point x="425.667" y="486.667" type="curve"/>
      <point x="416.549" y="532.175"/>
      <point x="414.058" y="568.523"/>
      <point x="416" y="630.667" type="curve"/>
      <point x="358.667" y="638.667"/>
      <point x="337.699" y="658"/>
      <point x="248.333" y="658" type="curve" smooth="yes"/>
      <point x="130.12" y="658"/>
      <point x="44.3333" y="585.031"/>
      <point x="44.3333" y="485" type="curve" smooth="yes"/>
      <point x="44.3333" y="393.771"/>
      <point x="84.1909" y="331.94"/>
      <point x="210" y="278.667" type="curve" smooth="yes"/>
      <point x="295.442" y="242.054"/>
      <point x="344.667" y="204.706"/>
      <point x="344.667" y="126.333" type="curve" smooth="yes"/>
      <point x="344.667" y="65.3871"/>
      <point x="299.523" y="30"/>
      <point x="233.667" y="30" type="curve" smooth="yes"/>
      <point x="155.178" y="30"/>
      <point x="91.3507" y="83.9413"/>
      <point x="71.3333" y="174.667" type="curve" name=".hr02"/>
      <point x="57.2298" y="178.477"/>
      <point x="38.4735" y="177.249"/>
      <point x="27" y="171.667" type="curve"/>
      <point x="38.1524" y="108.634"/>
      <point x="44.3217" y="56.5447"/>
    </contour>
  </outline>
</glyph>
<glyph name="T" format="2">
  <advance width="634"/>
  <unicode hex="0054"/>
  <anchor x="338.667" y="740" name="t.uni0302"/>
  <anchor x="337.333" y="-60" name="b.minus-60"/>
  <anchor x="356" y="0" name="b.cedilla"/>
  <outline>
    <contour>
      <point x="386.667" y="122.667" type="curve" smooth="yes"/>
      <point x="386.667" y="503.334" type="line" smooth="yes"/>
      <point x="386.667" y="567.334"/>
      <point x="396.667" y="604.667"/>
      <point x="432.667" y="604.667" type="curve" smooth="yes"/>
      <point x="454.667" y="604.667" type="line" smooth="yes"/>
      <point x="529.667" y="604.667"/>
      <point x="573.334" y="579.334"/>
      <point x="590.334" y="502.334" type="curve"/>
      <point x="601.334" y="502.334"/>
      <point x="618.667" y="503.334"/>
      <point x="627.667" y="507.334" type="curve"/>
      <point x="620.667" y="553.334"/>
      <point x="615.667" y="605"/>
      <point x="614.667" y="650" type="curve"/>
      <point x="614.667" y="651"/>
      <point x="612.667" y="653"/>
      <point x="611.667" y="653" type="curve"/>
      <point x="577.667" y="650"/>
      <point x="466.667" y="645"/>
      <point x="387.667" y="645" type="curve" smooth="yes"/>
      <point x="265" y="645" type="line" smooth="yes"/>
      <point x="188" y="645"/>
      <point x="70" y="650"/>
      <point x="32" y="653" type="curve"/>
      <point x="30" y="653"/>
      <point x="28" y="651"/>
      <point x="28" y="650" type="curve"/>
      <point x="24" y="605"/>
      <point x="14" y="552.334"/>
      <point x="3" y="504.334" type="curve"/>
      <point x="13" y="500.334"/>
      <point x="28.333" y="499.334"/>
      <point x="40.333" y="499.334" type="curve"/>
      <point x="60.333" y="579.334"/>
      <point x="103" y="604.667"/>
      <point x="169" y="604.667" type="curve" smooth="yes"/>
      <point x="218" y="604.667" type="line" smooth="yes"/>
      <point x="255" y="604.667"/>
      <point x="265" y="567.334"/>
      <point x="265" y="506.334" type="curve" smooth="yes"/>
      <point x="265" y="122.667" type="line" smooth="yes"/>
      <point x="265" y="39.667"/>
      <point x="248" y="34.667"/>
      <point x="168" y="31.667" type="curve"/>
      <point x="162" y="25.667"/>
      <point x="162" y="4"/>
      <point x="168" y="-2" type="curve"/>
      <point x="217" y="-1"/>
      <point x="268.667" y="0"/>
      <point x="324.667" y="0" type="curve" smooth="yes"/>
      <point x="381.334" y="0"/>
      <point x="433.667" y="-1"/>
      <point x="483.667" y="-2" type="curve"/>
      <point x="489.667" y="4"/>
      <point x="489.667" y="25.667"/>
      <point x="483.667" y="31.667" type="curve"/>
      <point x="403.667" y="34.667"/>
      <point x="386.667" y="39.667"/>
    </contour>
  </outline>
</glyph>
<glyph name="U" format="2">
  <advance width="708"/>
  <unicode hex="0055"/>
  <anchor x="364.667" y="721.333" name="t.uni0302"/>
  <anchor x="410.333" y="10" name="b.ogonek"/>
  <anchor x="364" y="-60" name="b.minus-60"/>
  <outline>
    <contour>
      <point x="208.667" y="522.333" type="line" smooth="yes"/>
      <point x="208.667" y="605.333"/>
      <point x="223.667" y="610.333"/>
      <point x="300.667" y="613.333" type="curve"/>
      <point x="306.667" y="619.333"/>
      <point x="306.667" y="641"/>
      <point x="300.667" y="647" type="curve"/>
      <point x="252.334" y="646"/>
      <point x="192" y="645"/>
      <point x="147" y="645" type="curve" smooth="yes"/>
      <point x="104" y="645"/>
      <point x="56.333" y="646"/>
      <point x="10" y="647" type="curve"/>
      <point x="4" y="641"/>
      <point x="4" y="619.333"/>
      <point x="10" y="613.333" type="curve"/>
      <point x="70" y="610.333"/>
      <point x="87" y="605.333"/>
      <point x="87" y="522.333" type="curve" smooth="yes"/>
      <point x="87" y="235" type="line" smooth="yes"/>
      <point x="87" y="35"/>
      <point x="206.334" y="-10"/>
      <point x="357.667" y="-10" type="curve" smooth="yes"/>
      <point x="562.667" y="-10"/>
      <point x="622.334" y="117"/>
      <point x="622.334" y="295" type="curve" smooth="yes"/>
      <point x="622.334" y="522.333" type="line" smooth="yes"/>
      <point x="622.334" y="604.333"/>
      <point x="640.001" y="607"/>
      <point x="699.334" y="613.333" type="curve"/>
      <point x="705.334" y="619.333"/>
      <point x="705.334" y="641"/>
      <point x="699.334" y="647" type="curve"/>
      <point x="660.667" y="646"/>
      <point x="620.334" y="645"/>
      <point x="594.001" y="645" type="curve" smooth="yes"/>
      <point x="567.667" y="645"/>
      <point x="516.667" y="646"/>
      <point x="470.667" y="647" type="curve"/>
      <point x="464.667" y="641"/>
      <point x="464.667" y="619.333"/>
      <point x="470.667" y="613.333" type="curve"/>
      <point x="546.334" y="607"/>
      <point x="562.667" y="604.666"/>
      <point x="562.667" y="522.333" type="curve" smooth="yes"/>
      <point x="562.667" y="277" type="line" smooth="yes"/>
      <point x="562.667" y="165"/>
      <point x="547.667" y="31.667"/>
      <point x="378.667" y="31.667" type="curve" smooth="yes"/>
      <point x="238.667" y="31.667"/>
      <point x="208.667" y="152"/>
      <point x="208.667" y="268" type="curve" smooth="yes"/>
    </contour>
  </outline>
</glyph>
<glyph name="V" format="2">
  <advance width="686"/>
  <unicode hex="0056"/>
  <anchor x="348" y="740" name="t.uni0302"/>
  <anchor x="350.667" y="-60" name="b.minus-60"/>
  <outline>
    <contour>
      <point x="308.333" y="11" type="line" smooth="yes"/>
      <point x="315" y="-5.667"/>
      <point x="325.333" y="-12"/>
      <point x="338" y="-12" type="curve" smooth="yes"/>
      <point x="351" y="-12"/>
      <point x="362" y="-5.667"/>
      <point x="368.666" y="11" type="curve" smooth="yes"/>
      <point x="579.666" y="535.666" type="line" smooth="yes"/>
      <point x="602" y="591.333"/>
      <point x="628.666" y="609"/>
      <point x="679" y="613.333" type="curve"/>
      <point x="685" y="619.333"/>
      <point x="685" y="641"/>
      <point x="679" y="647" type="curve"/>
      <point x="649" y="646"/>
      <point x="616" y="645"/>
      <point x="587" y="645" type="curve" smooth="yes"/>
      <point x="552" y="645"/>
      <point x="500.333" y="646"/>
      <point x="462" y="647" type="curve"/>
      <point x="456" y="641"/>
      <point x="456" y="619.333"/>
      <point x="462" y="613.333" type="curve"/>
      <point x="512" y="609.666"/>
      <point x="542.666" y="596.666"/>
      <point x="525.666" y="553.333" type="curve" smooth="yes"/>
      <point x="371" y="158.333" type="line"/>
      <point x="367.666" y="158.333" type="line"/>
      <point x="222.333" y="560" type="line" smooth="yes"/>
      <point x="207.333" y="602"/>
      <point x="234" y="609"/>
      <point x="288.666" y="613.333" type="curve"/>
      <point x="294.666" y="619.333"/>
      <point x="294.666" y="641"/>
      <point x="288.666" y="647" type="curve"/>
      <point x="250.666" y="646"/>
      <point x="169" y="645"/>
      <point x="131" y="645" type="curve" smooth="yes"/>
      <point x="91.6663" y="645"/>
      <point x="42.6663" y="646"/>
      <point x="7.00033" y="647" type="curve"/>
      <point x="1.00033" y="641"/>
      <point x="1.33333" y="619.333"/>
      <point x="7.33333" y="613.333" type="curve"/>
      <point x="51.6663" y="609"/>
      <point x="76.3333" y="600"/>
      <point x="97.3333" y="547" type="curve" smooth="yes"/>
    </contour>
  </outline>
</glyph>
<glyph name="W" format="2">
  <advance width="998"/>
  <unicode hex="0057"/>
  <anchor x="500" y="740" name="t.uni0302"/>
  <anchor x="454.667" y="-60" name="b.minus-60"/>
  <outline>
    <contour>
      <point x="639.666" y="12.333" type="line" smooth="yes"/>
      <point x="646.333" y="-6"/>
      <point x="655.333" y="-12"/>
      <point x="669.333" y="-12" type="curve" smooth="yes"/>
      <point x="681.666" y="-12"/>
      <point x="693.333" y="-5"/>
      <point x="699.666" y="12" type="curve" smooth="yes"/>
      <point x="892" y="533" type="line" smooth="yes"/>
      <point x="910.333" y="584"/>
      <point x="943" y="610.333"/>
      <point x="990.666" y="613.333" type="curve"/>
      <point x="996.666" y="619.333"/>
      <point x="996.666" y="641"/>
      <point x="990.666" y="647" type="curve"/>
      <point x="959" y="646"/>
      <point x="925.666" y="645"/>
      <point x="893.666" y="645" type="curve" smooth="yes"/>
      <point x="857.666" y="645"/>
      <point x="811.666" y="646"/>
      <point x="773.666" y="647" type="curve"/>
      <point x="767.666" y="641"/>
      <point x="767.666" y="619.333"/>
      <point x="773.666" y="613.333" type="curve"/>
      <point x="825.333" y="606.333"/>
      <point x="851.333" y="591.333"/>
      <point x="838.333" y="552.333" type="curve" smooth="yes"/>
      <point x="703" y="159.666" type="line"/>
      <point x="698" y="160.666" type="line"/>
      <point x="562" y="566.666" type="line" smooth="yes"/>
      <point x="549" y="606.666"/>
      <point x="585.333" y="610.333"/>
      <point x="628.666" y="613.333" type="curve"/>
      <point x="634.666" y="619.333"/>
      <point x="634.666" y="641"/>
      <point x="628.666" y="647" type="curve"/>
      <point x="590.333" y="646"/>
      <point x="509" y="645"/>
      <point x="469.666" y="645" type="curve" smooth="yes"/>
      <point x="431.333" y="645"/>
      <point x="382.333" y="646"/>
      <point x="347" y="647" type="curve"/>
      <point x="341" y="641"/>
      <point x="341" y="619.333"/>
      <point x="347" y="613.333" type="curve"/>
      <point x="390.666" y="609.666"/>
      <point x="420.666" y="594"/>
      <point x="435" y="557.333" type="curve" smooth="yes"/>
    </contour>
    <contour>
      <point x="278.666" y="12.333" type="line" smooth="yes"/>
      <point x="285" y="-7"/>
      <point x="297" y="-12"/>
      <point x="308" y="-12" type="curve" smooth="yes"/>
      <point x="319" y="-12"/>
      <point x="331.666" y="-7.334"/>
      <point x="339.333" y="12.333" type="curve" smooth="yes"/>
      <point x="501.333" y="419.333" type="line"/>
      <point x="472.666" y="496.333" type="line"/>
      <point x="347" y="165.666" type="line"/>
      <point x="343.333" y="166.666" type="line"/>
      <point x="217.333" y="572.666" type="line" smooth="yes"/>
      <point x="206.666" y="606.333"/>
      <point x="239.666" y="610.666"/>
      <point x="283.333" y="613.333" type="curve"/>
      <point x="289.333" y="619.333"/>
      <point x="289.333" y="641"/>
      <point x="283.333" y="647" type="curve"/>
      <point x="247.666" y="646"/>
      <point x="166.333" y="645"/>
      <point x="127.333" y="645" type="curve" smooth="yes"/>
      <point x="88.3333" y="645"/>
      <point x="41.3333" y="646"/>
      <point x="7.00033" y="647" type="curve"/>
      <point x="1.00033" y="641"/>
      <point x="1.00033" y="619.333"/>
      <point x="7.00033" y="613.333" type="curve"/>
      <point x="48.0003" y="609.666"/>
      <point x="74.3333" y="604.666"/>
      <point x="90.6663" y="558" type="curve" smooth="yes"/>
    </contour>
  </outline>
</glyph>
<glyph name="X" format="2">
  <advance width="699"/>
  <unicode hex="0058"/>
  <anchor x="345.333" y="740" name="t.uni0302"/>
  <anchor x="352.333" y="-60" name="b.minus-60"/>
  <outline>
    <contour>
      <point x="414.667" y="-1.333" type="curve"/>
      <point x="453.667" y="-0.333"/>
      <point x="516.667" y="0.667"/>
      <point x="556.667" y="0.667" type="curve" smooth="yes"/>
      <point x="595.667" y="0.667"/>
      <point x="655.333" y="-0.333"/>
      <point x="685.333" y="-1.333" type="curve"/>
      <point x="691.333" y="4.667"/>
      <point x="690.333" y="26.334"/>
      <point x="684.333" y="32.334" type="curve"/>
      <point x="642.333" y="35.334"/>
      <point x="619.333" y="44.667"/>
      <point x="580.667" y="100.001" type="curve" smooth="yes"/>
      <point x="385.333" y="375.667" type="line"/>
      <point x="270.667" y="558" type="line" smooth="yes"/>
      <point x="246.333" y="596"/>
      <point x="245.667" y="610.333"/>
      <point x="301.667" y="613.333" type="curve"/>
      <point x="307.667" y="619.333"/>
      <point x="307.667" y="641"/>
      <point x="301.667" y="647" type="curve"/>
      <point x="262.667" y="646"/>
      <point x="205.667" y="645"/>
      <point x="165.667" y="645" type="curve" smooth="yes"/>
      <point x="126.667" y="645"/>
      <point x="58.333" y="646"/>
      <point x="28.333" y="647" type="curve"/>
      <point x="22.333" y="641"/>
      <point x="23.333" y="619.333"/>
      <point x="29.333" y="613.333" type="curve"/>
      <point x="71.333" y="610.333"/>
      <point x="90.333" y="602"/>
      <point x="129.333" y="547" type="curve" smooth="yes"/>
      <point x="308" y="297.667" type="line"/>
      <point x="438.667" y="87.667" type="line"/>
      <point x="464.667" y="51.001"/>
      <point x="470.667" y="35.334"/>
      <point x="414.667" y="32.334" type="curve"/>
      <point x="408.667" y="26.334"/>
      <point x="408.667" y="4.667"/>
    </contour>
    <contour>
      <point x="9" y="-1.333" type="curve"/>
      <point x="39" y="-0.333"/>
      <point x="90" y="0.667"/>
      <point x="113" y="0.667" type="curve" smooth="yes"/>
      <point x="136" y="0.667"/>
      <point x="189.333" y="-0.333"/>
      <point x="229.333" y="-1.333" type="curve"/>
      <point x="235.333" y="4.667"/>
      <point x="235.333" y="26.334"/>
      <point x="229.333" y="32.334" type="curve"/>
      <point x="185.333" y="35.334"/>
      <point x="166.333" y="49.001"/>
      <point x="187" y="79.001" type="curve" smooth="yes"/>
      <point x="340" y="305.334" type="line"/>
      <point x="313.667" y="339.667" type="line"/>
      <point x="118" y="85.001" type="line" smooth="yes"/>
      <point x="88" y="45.667"/>
      <point x="54" y="36.334"/>
      <point x="9" y="32.334" type="curve"/>
      <point x="3" y="26.334"/>
      <point x="3" y="4.667"/>
    </contour>
    <contour>
      <point x="356" y="364" type="line"/>
      <point x="381.667" y="332.333" type="line"/>
      <point x="557.333" y="560.666" type="line" smooth="yes"/>
      <point x="587.667" y="599.666"/>
      <point x="618" y="609.333"/>
      <point x="663" y="613.333" type="curve"/>
      <point x="669" y="619.333"/>
      <point x="669" y="641"/>
      <point x="663" y="647" type="curve"/>
      <point x="633" y="646"/>
      <point x="588" y="645"/>
      <point x="565" y="645" type="curve" smooth="yes"/>
      <point x="542" y="645"/>
      <point x="492.667" y="646"/>
      <point x="452.667" y="647" type="curve"/>
      <point x="446.667" y="641"/>
      <point x="446.667" y="619.333"/>
      <point x="452.667" y="613.333" type="curve"/>
      <point x="496.667" y="610.333"/>
      <point x="513" y="597.666"/>
      <point x="495" y="566.666" type="curve"/>
    </contour>
  </outline>
</glyph>
<glyph name="Y" format="2">
  <advance width="608"/>
  <unicode hex="0059"/>
  <anchor x="337" y="740" name="t.uni0302"/>
  <anchor x="352.333" y="-60" name="b.minus-60"/>
  <outline>
    <contour>
      <point x="370.334" y="122" type="curve" smooth="yes"/>
      <point x="370.334" y="264.667" type="line" smooth="yes"/>
      <point x="370.334" y="301.333"/>
      <point x="373.334" y="320.667"/>
      <point x="387.667" y="345.333" type="curve" smooth="yes"/>
      <point x="512.667" y="560" type="line" smooth="yes"/>
      <point x="537.334" y="602.333"/>
      <point x="557.334" y="609.333"/>
      <point x="602.334" y="613.333" type="curve"/>
      <point x="608.334" y="619.333"/>
      <point x="608.334" y="641"/>
      <point x="602.334" y="647" type="curve"/>
      <point x="573.001" y="646"/>
      <point x="535.667" y="645"/>
      <point x="512.667" y="645" type="curve" smooth="yes"/>
      <point x="489.667" y="645"/>
      <point x="445.667" y="646"/>
      <point x="408.334" y="647" type="curve"/>
      <point x="402.334" y="641"/>
      <point x="402.334" y="619.333"/>
      <point x="408.334" y="613.333" type="curve"/>
      <point x="452.334" y="610.333"/>
      <point x="473.001" y="596.333"/>
      <point x="455.334" y="563" type="curve" smooth="yes"/>
      <point x="349.667" y="364" type="line" smooth="yes"/>
      <point x="342.334" y="350.333"/>
      <point x="336.001" y="350.667"/>
      <point x="327.001" y="366.667" type="curve" smooth="yes"/>
      <point x="219" y="557.666" type="line" smooth="yes"/>
      <point x="197" y="597"/>
      <point x="198.334" y="610.333"/>
      <point x="254.334" y="613.333" type="curve"/>
      <point x="260.334" y="619.333"/>
      <point x="260.334" y="641"/>
      <point x="254.334" y="647" type="curve"/>
      <point x="215.667" y="646"/>
      <point x="173.667" y="645"/>
      <point x="133.667" y="645" type="curve" smooth="yes"/>
      <point x="94.667" y="645"/>
      <point x="35" y="646"/>
      <point x="5" y="647" type="curve"/>
      <point x="-1" y="641"/>
      <point x="0" y="619.333"/>
      <point x="6" y="613.333" type="curve"/>
      <point x="48" y="610.333"/>
      <point x="66.334" y="603.666"/>
      <point x="100" y="547" type="curve" smooth="yes"/>
      <point x="228.334" y="330" type="line" smooth="yes"/>
      <point x="246.334" y="301"/>
      <point x="248.667" y="292.667"/>
      <point x="248.667" y="255.667" type="curve" smooth="yes"/>
      <point x="248.667" y="122" type="line" smooth="yes"/>
      <point x="248.667" y="39"/>
      <point x="231.667" y="34.667"/>
      <point x="151.667" y="31.667" type="curve"/>
      <point x="145.667" y="25.667"/>
      <point x="145.667" y="4"/>
      <point x="151.667" y="-2" type="curve"/>
      <point x="200.667" y="-1"/>
      <point x="256.667" y="0"/>
      <point x="315.001" y="0" type="curve" smooth="yes"/>
      <point x="364.667" y="0"/>
      <point x="417.334" y="-1"/>
      <point x="467.334" y="-2" type="curve"/>
      <point x="473.334" y="4"/>
      <point x="473.334" y="25.667"/>
      <point x="467.334" y="31.667" type="curve"/>
      <point x="387.334" y="34.667"/>
      <point x="370.334" y="39"/>
    </contour>
  </outline>
</glyph>
<glyph name="Z" format="2">
  <advance width="617"/>
  <unicode hex="005A"/>
  <anchor x="338.667" y="740" name="t.uni0302"/>
  <anchor x="286" y="-60" name="b.minus-60"/>
  <outline>
    <contour>
      <point x="27" y="15" type="curve" smooth="yes"/>
      <point x="27" y="5"/>
      <point x="32" y="0"/>
      <point x="46" y="0" type="curve" smooth="yes"/>
      <point x="366.667" y="0" type="line" smooth="yes"/>
      <point x="427" y="0"/>
      <point x="535.667" y="-4"/>
      <point x="564" y="-6.333" type="curve"/>
      <point x="565.333" y="-6.333"/>
      <point x="567.333" y="-4.333"/>
      <point x="567.333" y="-3.667" type="curve"/>
      <point x="570.667" y="41.333"/>
      <point x="580.667" y="110.333"/>
      <point x="594" y="169.667" type="curve"/>
      <point x="585" y="173"/>
      <point x="570" y="174.667"/>
      <point x="557.667" y="174.667" type="curve"/>
      <point x="534" y="97.667"/>
      <point x="493.667" y="44"/>
      <point x="413.333" y="43.333" type="curve" smooth="yes"/>
      <point x="215.667" y="42" type="line"/>
      <point x="198" y="42"/>
      <point x="190.667" y="45.667"/>
      <point x="190.667" y="52.667" type="curve" smooth="yes"/>
      <point x="190.667" y="57.667"/>
      <point x="194.333" y="63.667"/>
      <point x="199.333" y="72" type="curve"/>
      <point x="560.333" y="591" type="line" smooth="yes"/>
      <point x="580.333" y="619.667"/>
      <point x="583" y="625.667"/>
      <point x="583" y="636.667" type="curve" smooth="yes"/>
      <point x="583" y="643"/>
      <point x="579.333" y="647"/>
      <point x="567.333" y="647" type="curve" smooth="yes"/>
      <point x="554.667" y="647"/>
      <point x="528.333" y="645"/>
      <point x="499" y="645" type="curve" smooth="yes"/>
      <point x="291.333" y="645" type="line" smooth="yes"/>
      <point x="224.333" y="645"/>
      <point x="114" y="650"/>
      <point x="76.667" y="653.333" type="curve"/>
      <point x="75.333" y="653.333"/>
      <point x="72.667" y="651.333"/>
      <point x="72.667" y="650.333" type="curve"/>
      <point x="69" y="602.667"/>
      <point x="58.333" y="533.333"/>
      <point x="48.333" y="487.667" type="curve"/>
      <point x="58.333" y="484"/>
      <point x="72.667" y="482.667"/>
      <point x="84.333" y="482.667" type="curve"/>
      <point x="104.667" y="559"/>
      <point x="145.336" y="601.526"/>
      <point x="214.333" y="602" type="curve" smooth="yes"/>
      <point x="412" y="603.333" type="line"/>
      <point x="419.333" y="603.333"/>
      <point x="422.667" y="601"/>
      <point x="422.667" y="596.333" type="curve" smooth="yes"/>
      <point x="422.667" y="592.667"/>
      <point x="418.333" y="585.333"/>
      <point x="414" y="579" type="curve" smooth="yes"/>
      <point x="35" y="38" type="line"/>
      <point x="29" y="30"/>
      <point x="27" y="22"/>
    </contour>
  </outline>
</glyph>
<glyph name="underscore" format="2">
  <advance width="486"/>
  <unicode hex="005F"/>
  <outline>
    <contour>
      <point x="167.333" y="-150.333" type="line"/>
      <point x="167.333" y="-105.333" type="line"/>
      <point x="25" y="-105.333" type="line" smooth="yes"/>
      <point x="16" y="-105.333"/>
      <point x="2" y="-117"/>
      <point x="2" y="-134.333" type="curve" smooth="yes"/>
      <point x="2" y="-141.666"/>
      <point x="5" y="-150.333"/>
      <point x="12.333" y="-150.333" type="curve" smooth="yes"/>
    </contour>
    <contour>
      <point x="346.667" y="-105.333" type="line"/>
      <point x="146.667" y="-105.333" type="line"/>
      <point x="146.667" y="-150.333" type="line"/>
      <point x="346.667" y="-150.333" type="line"/>
    </contour>
    <contour>
      <point x="326.334" y="-150.333" type="line"/>
      <point x="460.667" y="-150.333" type="line" smooth="yes"/>
      <point x="472" y="-150.333"/>
      <point x="484.334" y="-137.333"/>
      <point x="484.334" y="-122.333" type="curve" smooth="yes"/>
      <point x="484.334" y="-114.666"/>
      <point x="481.334" y="-105.333"/>
      <point x="473.667" y="-105.333" type="curve" smooth="yes"/>
      <point x="326.334" y="-105.333" type="line"/>
    </contour>
  </outline>
</glyph>
<glyph name="a" format="2">
  <advance width="490"/>
  <unicode hex="0061"/>
  <anchor x="225" y="500" name="t.uni0302"/>
  <anchor x="226.015" y="500" name="t.ring"/>
  <anchor x="440" y="10" name="b.ogonek"/>
  <anchor x="235.333" y="-60" name="b.minus-60"/>
  <outline>
    <contour>
      <point x="293.666" y="48.667" type="line"/>
      <point x="300.333" y="11"/>
      <point x="322.666" y="-10"/>
      <point x="368.666" y="-10" type="curve" smooth="yes"/>
      <point x="417.999" y="-10"/>
      <point x="455.999" y="9.667"/>
      <point x="487.666" y="39.667" type="curve"/>
      <point x="485.666" y="51.667"/>
      <point x="481.666" y="60"/>
      <point x="469.999" y="67.334" type="curve"/>
      <point x="458.999" y="58.667"/>
      <point x="446.666" y="52.667"/>
      <point x="429.293" y="52.667" type="curve" smooth="yes"/>
      <point x="405.333" y="52.667"/>
      <point x="401.666" y="77.667"/>
      <point x="401.666" y="125.667" type="curve" smooth="yes"/>
      <point x="401.666" y="270.667" type="line" smooth="yes"/>
      <point x="401.666" y="403.221"/>
      <point x="326.003" y="442.333"/>
      <point x="239.924" y="442.333" type="curve" smooth="yes"/>
      <point x="161.333" y="442.333"/>
      <point x="59" y="396.333"/>
      <point x="59" y="332.771" type="curve" smooth="yes"/>
      <point x="59" y="306.667"/>
      <point x="71" y="288"/>
      <point x="104.667" y="288" type="curve" smooth="yes"/>
      <point x="138.334" y="288"/>
      <point x="162" y="309.667"/>
      <point x="162" y="332.111" type="curve" smooth="yes"/>
      <point x="162" y="345.074"/>
      <point x="158.333" y="357.7"/>
      <point x="158.333" y="372.851" type="curve" smooth="yes"/>
      <point x="158.333" y="390.701"/>
      <point x="170.646" y="403.333"/>
      <point x="208.521" y="403.333" type="curve" smooth="yes"/>
      <point x="257.937" y="403.333"/>
      <point x="290.333" y="377.455"/>
      <point x="290.333" y="259.667" type="curve" smooth="yes"/>
      <point x="290.333" y="83.667" type="line"/>
      <point x="261" y="59.667"/>
      <point x="233.333" y="43.667"/>
      <point x="211" y="43.667" type="curve" smooth="yes"/>
      <point x="173" y="43.667"/>
      <point x="148.334" y="74.334"/>
      <point x="148.334" y="109.79" type="curve" smooth="yes"/>
      <point x="148.334" y="153"/>
      <point x="170.654" y="186.995"/>
      <point x="229.333" y="204.667" type="curve" smooth="yes"/>
      <point x="304.704" y="227.392" type="line"/>
      <point x="304.704" y="263.82" type="line"/>
      <point x="215" y="238.333" type="line" smooth="yes"/>
      <point x="92.185" y="202.21"/>
      <point x="40.667" y="161.333"/>
      <point x="40.667" y="96" type="curve" smooth="yes"/>
      <point x="40.667" y="24"/>
      <point x="87.334" y="-10"/>
      <point x="156.897" y="-10" type="curve" smooth="yes"/>
      <point x="192.333" y="-10"/>
      <point x="229.193" y="3.088"/>
      <point x="262.333" y="28.667" type="curve" smooth="yes"/>
      <point x="289" y="48.667" type="line"/>
    </contour>
  </outline>
</glyph>
<glyph name="b" format="2">
  <advance width="526"/>
  <unicode hex="0062"/>
  <anchor x="265.667" y="740" name="t.uni0302"/>
  <anchor x="245.667" y="-60" name="b.minus-60"/>
  <outline>
    <contour>
      <point x="69.667" y="-4" type="curve"/>
      <point x="79.333" y="-9.333"/>
      <point x="88.333" y="-12.667"/>
      <point x="99.667" y="-12.667" type="curve"/>
      <point x="113.333" y="-1.333"/>
      <point x="124.333" y="12.333"/>
      <point x="134" y="29" type="curve"/>
      <point x="170" y="-1"/>
      <point x="220.333" y="-10"/>
      <point x="265" y="-10" type="curve" smooth="yes"/>
      <point x="373" y="-10"/>
      <point x="490.667" y="94.333"/>
      <point x="490.667" y="239.765" type="curve" smooth="yes"/>
      <point x="490.667" y="358.4"/>
      <point x="418.245" y="442.333"/>
      <point x="304.333" y="442.333" type="curve" smooth="yes"/>
      <point x="262.456" y="442.333"/>
      <point x="212.139" y="407.408"/>
      <point x="171.333" y="374.333" type="curve"/>
      <point x="171.333" y="334.666" type="line"/>
      <point x="217.919" y="373.958"/>
      <point x="242.48" y="380.333"/>
      <point x="274.333" y="380.333" type="curve" smooth="yes"/>
      <point x="327.334" y="380.333"/>
      <point x="368.667" y="325.666"/>
      <point x="368.667" y="228" type="curve" smooth="yes"/>
      <point x="368.667" y="135.333"/>
      <point x="344" y="29.333"/>
      <point x="259.667" y="29.333" type="curve" smooth="yes"/>
      <point x="230" y="29.333"/>
      <point x="207.666" y="44.666"/>
      <point x="188.333" y="68.333" type="curve"/>
      <point x="188.333" y="583" type="line" smooth="yes"/>
      <point x="188.333" y="648"/>
      <point x="191.666" y="681.999"/>
      <point x="191.666" y="685.999" type="curve" smooth="yes"/>
      <point x="191.666" y="694.333"/>
      <point x="185.666" y="697.999"/>
      <point x="176.666" y="697.999" type="curve"/>
      <point x="143.666" y="686.666"/>
      <point x="65" y="674.666"/>
      <point x="4.333" y="671.666" type="curve"/>
      <point x="1.667" y="660.999"/>
      <point x="3" y="648.333"/>
      <point x="8.333" y="640.333" type="curve"/>
      <point x="67" y="636.333"/>
      <point x="75" y="633"/>
      <point x="75" y="578.333" type="curve" smooth="yes"/>
      <point x="75" y="108.333" type="line" smooth="yes"/>
      <point x="75" y="40"/>
      <point x="73.333" y="26"/>
    </contour>
  </outline>
</glyph>
<glyph name="c" format="2">
  <advance width="447"/>
  <unicode hex="0063"/>
  <anchor x="236" y="500" name="t.uni0302"/>
  <anchor x="241.667" y="-60" name="b.minus-60"/>
  <anchor x="243.333" y="0" name="b.cedilla"/>
  <outline>
    <contour>
      <point x="414" y="88.333" type="curve"/>
      <point x="412.667" y="99.333"/>
      <point x="408.667" y="113.333"/>
      <point x="398.334" y="113.666" type="curve"/>
      <point x="360.334" y="74.333"/>
      <point x="323.334" y="54.333"/>
      <point x="289.667" y="54.333" type="curve" smooth="yes"/>
      <point x="215.334" y="54.333"/>
      <point x="155.667" y="115"/>
      <point x="155.667" y="234" type="curve" smooth="yes"/>
      <point x="155.667" y="344.666"/>
      <point x="188.334" y="403.333"/>
      <point x="245.667" y="403.333" type="curve" smooth="yes"/>
      <point x="290" y="403.333"/>
      <point x="302.667" y="365.666"/>
      <point x="306" y="332.666" type="curve" smooth="yes"/>
      <point x="309" y="305.666"/>
      <point x="331.667" y="289.333"/>
      <point x="360" y="289.333" type="curve" smooth="yes"/>
      <point x="388.334" y="289.333"/>
      <point x="413" y="310.333"/>
      <point x="413" y="341.333" type="curve" smooth="yes"/>
      <point x="413" y="389.666"/>
      <point x="358" y="442.333"/>
      <point x="253.334" y="442.333" type="curve" smooth="yes"/>
      <point x="141.667" y="442.333"/>
      <point x="37" y="349.333"/>
      <point x="37" y="203.333" type="curve" smooth="yes"/>
      <point x="37" y="69"/>
      <point x="118.334" y="-10"/>
      <point x="248.334" y="-10" type="curve" smooth="yes"/>
      <point x="308.334" y="-10"/>
      <point x="372" y="24.333"/>
    </contour>
  </outline>
</glyph>
<glyph name="d" format="2">
  <advance width="543"/>
  <unicode hex="0064"/>
  <anchor x="281.667" y="740" name="t.uni0302"/>
  <anchor x="266.333" y="-60" name="b.minus-60"/>
  <anchor x="527" y="654" name="apostrophe"/>
  <outline>
    <contour>
      <point x="359.333" y="1.333" type="curve"/>
      <point x="363.333" y="-7.667"/>
      <point x="369.667" y="-10.667"/>
      <point x="381" y="-10" type="curve"/>
      <point x="413" y="2.667"/>
      <point x="464.666" y="17"/>
      <point x="531" y="25.333" type="curve"/>
      <point x="534.333" y="31.333"/>
      <point x="533" y="49.667"/>
      <point x="529.666" y="55.666" type="curve"/>
      <point x="472.666" y="60.666"/>
      <point x="462.333" y="77.666"/>
      <point x="462.333" y="131.999" type="curve" smooth="yes"/>
      <point x="462.333" y="590" type="line"/>
      <point x="349" y="590" type="line"/>
      <point x="349" y="115.666" type="line" smooth="yes"/>
      <point x="349" y="75.666"/>
      <point x="352.333" y="40.667"/>
    </contour>
    <contour>
      <point x="362.333" y="423.333" type="line"/>
      <point x="337.667" y="434.333"/>
      <point x="305" y="442.333"/>
      <point x="272" y="442.333" type="curve" smooth="yes"/>
      <point x="141.667" y="442.333"/>
      <point x="37.667" y="331.333"/>
      <point x="37.667" y="199.666" type="curve" smooth="yes"/>
      <point x="37.667" y="83.333"/>
      <point x="105" y="-10"/>
      <point x="219" y="-10" type="curve" smooth="yes"/>
      <point x="258.667" y="-10"/>
      <point x="316.667" y="23.666"/>
      <point x="359" y="62.666" type="curve"/>
      <point x="357.333" y="104.999" type="line"/>
      <point x="328.667" y="76.333"/>
      <point x="290" y="49.667"/>
      <point x="255.667" y="49.667" type="curve" smooth="yes"/>
      <point x="204.334" y="49.667"/>
      <point x="159.667" y="106.612"/>
      <point x="159.667" y="226.166" type="curve" smooth="yes"/>
      <point x="159.667" y="296.426"/>
      <point x="173" y="402.333"/>
      <point x="266.333" y="402.333" type="curve" smooth="yes"/>
      <point x="302" y="402.333"/>
      <point x="328.333" y="395.392"/>
      <point x="362.333" y="340.666" type="curve"/>
    </contour>
    <contour>
      <point x="349.001" y="576" type="curve"/>
      <point x="462.334" y="576" type="line"/>
      <point x="462.334" y="627.291"/>
      <point x="463.408" y="656.362"/>
      <point x="466.334" y="684.333" type="curve"/>
      <point x="466.334" y="692.834"/>
      <point x="458.866" y="698"/>
      <point x="446.667" y="698" type="curve"/>
      <point x="416.382" y="685.963"/>
      <point x="340.101" y="672.894"/>
      <point x="282.001" y="669.666" type="curve"/>
      <point x="280.324" y="664.366"/>
      <point x="281.518" y="645.114"/>
      <point x="284.001" y="637.666" type="curve"/>
      <point x="338.07" y="632.628"/>
      <point x="349.001" y="622.333"/>
    </contour>
  </outline>
</glyph>
<glyph name="e" format="2">
  <advance width="473"/>
  <unicode hex="0065"/>
  <anchor x="247.667" y="500" name="t.uni0302"/>
  <anchor x="337.667" y="10" name="b.ogonek"/>
  <anchor x="252.667" y="-60" name="b.minus-60"/>
  <anchor x="246.667" y="0" name="b.cedilla"/>
  <outline>
    <contour>
      <point x="417.333" y="117" type="curve"/>
      <point x="376.716" y="75.358"/>
      <point x="330.71" y="63.667"/>
      <point x="287.333" y="63.667" type="curve" smooth="yes"/>
      <point x="202.786" y="63.667"/>
      <point x="157" y="125.657"/>
      <point x="157" y="239.334" type="curve"/>
      <point x="405.666" y="234.667" type="line" smooth="yes"/>
      <point x="423.568" y="234.29"/>
      <point x="431.333" y="245.609"/>
      <point x="431.333" y="261" type="curve" smooth="yes"/>
      <point x="431.333" y="352.056"/>
      <point x="387.565" y="441.667"/>
      <point x="257.862" y="441.667" type="curve" smooth="yes"/>
      <point x="147.378" y="441.667"/>
      <point x="38.3333" y="345.729"/>
      <point x="38.3333" y="197.966" type="curve" smooth="yes"/>
      <point x="38.3333" y="63.357"/>
      <point x="124.179" y="-10"/>
      <point x="251.75" y="-10" type="curve" smooth="yes"/>
      <point x="321.935" y="-10"/>
      <point x="386.109" y="22.976"/>
      <point x="434.333" y="91" type="curve"/>
      <point x="433.305" y="103.093"/>
      <point x="427.894" y="116.676"/>
    </contour>
    <contour>
      <point x="159.333" y="274.667" type="line"/>
      <point x="171.512" y="369.963"/>
      <point x="201.797" y="402.667"/>
      <point x="246.976" y="402.667" type="curve" smooth="yes"/>
      <point x="283.066" y="402.667"/>
      <point x="318" y="373.679"/>
      <point x="318" y="298.334" type="curve" smooth="yes"/>
      <point x="318" y="290.456"/>
      <point x="313.765" y="280.076"/>
      <point x="303" y="279.667" type="curve" smooth="yes"/>
    </contour>
  </outline>
</glyph>
<glyph name="f" format="2">
  <advance width="364"/>
  <unicode hex="0066"/>
  <anchor x="132" y="-110" name="m.uni0316_2"/>
  <anchor x="410" y="750" name="m.uni031A_3"/>
  <outline>
    <contour>
      <point x="30" y="-2" type="curve"/>
      <point x="69" y="-1"/>
      <point x="110" y="0"/>
      <point x="158.667" y="0" type="curve"/>
      <point x="202.14" y="-0.44"/>
      <point x="246.193" y="-1"/>
      <point x="287.333" y="-2" type="curve"/>
      <point x="293.333" y="4.16667"/>
      <point x="293.333" y="25.4167"/>
      <point x="287.333" y="31.6667" type="curve"/>
      <point x="226.333" y="35"/>
      <point x="215.333" y="39.3333"/>
      <point x="215.333" y="122" type="curve"/>
      <point x="102" y="122" type="line"/>
      <point x="102" y="39.3333"/>
      <point x="91" y="35"/>
      <point x="30" y="31.6667" type="curve"/>
      <point x="24" y="25.4167"/>
      <point x="24" y="4.16667"/>
    </contour>
    <contour>
      <point x="102" y="122" type="line"/>
      <point x="215.333" y="122" type="line"/>
      <point x="215.333" y="386" type="line"/>
      <point x="303.667" y="386" type="line" smooth="yes"/>
      <point x="318.667" y="386"/>
      <point x="334.667" y="390.667"/>
      <point x="334.667" y="401.667" type="curve" smooth="yes"/>
      <point x="334.667" y="423.667" type="line" smooth="yes"/>
      <point x="334.667" y="429"/>
      <point x="333" y="432.333"/>
      <point x="318.667" y="432.333" type="curve" smooth="yes"/>
      <point x="215.333" y="432.333" type="line"/>
      <point x="215.333" y="485.333" type="line" smooth="yes"/>
      <point x="215.333" y="636"/>
      <point x="257.667" y="658.667"/>
      <point x="283.333" y="658.667" type="curve" smooth="yes"/>
      <point x="304.667" y="658.667"/>
      <point x="312.755" y="644.692"/>
      <point x="322" y="617" type="curve" smooth="yes"/>
      <point x="330.755" y="589.692"/>
      <point x="351.667" y="568.333"/>
      <point x="382.667" y="568.333" type="curve" smooth="yes"/>
      <point x="410.333" y="568.333"/>
      <point x="434.333" y="589.333"/>
      <point x="434.333" y="624.667" type="curve" smooth="yes"/>
      <point x="434.333" y="662"/>
      <point x="387.333" y="698"/>
      <point x="302.333" y="698" type="curve" smooth="yes"/>
      <point x="184.333" y="698"/>
      <point x="102" y="594.333"/>
      <point x="102" y="459" type="curve" smooth="yes"/>
      <point x="102" y="432.333" type="line"/>
      <point x="83.6667" y="432.333" type="line" smooth="yes"/>
      <point x="55" y="432.333"/>
      <point x="26" y="425"/>
      <point x="26" y="417" type="curve" smooth="yes"/>
      <point x="26" y="394.667" type="line" smooth="yes"/>
      <point x="26" y="388.333"/>
      <point x="29" y="386"/>
      <point x="45.6667" y="386" type="curve" smooth="yes"/>
      <point x="102" y="386" type="line"/>
    </contour>
  </outline>
  <guideline angle="90" x="142" y="0"/>
</glyph>
<glyph name="g" format="2">
  <advance width="504"/>
  <unicode hex="0067"/>
  <anchor x="242.667" y="500" name="t.uni0302"/>
  <outline>
    <contour>
      <point x="47.3327" y="293" type="curve" smooth="yes"/>
      <point x="47.3327" y="193.667"/>
      <point x="137.667" y="140"/>
      <point x="227.333" y="140" type="curve" smooth="yes"/>
      <point x="316.667" y="140"/>
      <point x="404.333" y="191"/>
      <point x="404.333" y="290.334" type="curve" smooth="yes"/>
      <point x="404.333" y="343.334"/>
      <point x="381" y="377"/>
      <point x="348.667" y="405.667" type="curve"/>
      <point x="356.333" y="415.667"/>
      <point x="385" y="432.334"/>
      <point x="396" y="432.334" type="curve" smooth="yes"/>
      <point x="404.333" y="432.334"/>
      <point x="411.333" y="427.334"/>
      <point x="415.333" y="420.334" type="curve"/>
      <point x="419.333" y="409"/>
      <point x="435.667" y="391.667"/>
      <point x="456" y="391.667" type="curve" smooth="yes"/>
      <point x="481" y="391.667"/>
      <point x="497.667" y="405.667"/>
      <point x="497.667" y="437.001" type="curve" smooth="yes"/>
      <point x="497.667" y="456.667"/>
      <point x="474" y="481.334"/>
      <point x="439.667" y="481.334" type="curve" smooth="yes"/>
      <point x="401.667" y="481.334"/>
      <point x="347" y="453.667"/>
      <point x="319" y="425.001" type="curve"/>
      <point x="303" y="434.334"/>
      <point x="278" y="442.334"/>
      <point x="228.333" y="442.334" type="curve" smooth="yes"/>
      <point x="140.667" y="442.334"/>
      <point x="47.3327" y="389.667"/>
    </contour>
    <contour>
      <point x="14.6667" y="-112" type="curve" smooth="yes"/>
      <point x="14.6667" y="-220.333"/>
      <point x="104.001" y="-238"/>
      <point x="195.666" y="-238" type="curve" smooth="yes"/>
      <point x="333.333" y="-238"/>
      <point x="488" y="-167.667"/>
      <point x="488" y="-58.334" type="curve" smooth="yes"/>
      <point x="488" y="55.333"/>
      <point x="334" y="64.334"/>
      <point x="252" y="64.334" type="curve" smooth="yes"/>
      <point x="226.98" y="64.334"/>
      <point x="201.093" y="59.52"/>
      <point x="177.955" y="59.52" type="curve" smooth="yes"/>
      <point x="149.014" y="59.52"/>
      <point x="125.667" y="69.992"/>
      <point x="125.667" y="107" type="curve" smooth="yes"/>
      <point x="125.667" y="126"/>
      <point x="137" y="148"/>
      <point x="153.666" y="165.667" type="curve"/>
      <point x="126.667" y="178.334" type="line"/>
      <point x="92.6667" y="152"/>
      <point x="41.9997" y="94.334"/>
      <point x="41.9997" y="70.001" type="curve" smooth="yes"/>
      <point x="41.9997" y="9.072"/>
      <point x="107.4" y="-22.017"/>
      <point x="161.841" y="-22.104" type="curve" smooth="yes"/>
      <point x="187.623" y="-22.142"/>
      <point x="212.375" y="-18.795"/>
      <point x="232.608" y="-18.781" type="curve" smooth="yes"/>
      <point x="303.106" y="-18.731"/>
      <point x="402.333" y="-30.925"/>
      <point x="402.333" y="-84.334" type="curve" smooth="yes"/>
      <point x="402.333" y="-177.797"/>
      <point x="309.247" y="-197.667"/>
      <point x="224.333" y="-197.667" type="curve" smooth="yes"/>
      <point x="168.333" y="-197.667"/>
      <point x="110.334" y="-155.334"/>
      <point x="110.334" y="-98.667" type="curve" smooth="yes"/>
      <point x="110.334" y="-59"/>
      <point x="111.334" y="-33.334"/>
      <point x="138.333" y="-3.333" type="curve"/>
      <point x="115.001" y="2.667" type="line"/>
      <point x="61.9997" y="-21.333"/>
      <point x="14.6667" y="-83.667"/>
    </contour>
    <contour>
      <point x="154.666" y="304" type="curve" smooth="yes"/>
      <point x="154.666" y="376.667"/>
      <point x="175" y="406.667"/>
      <point x="219.333" y="406.667" type="curve" smooth="yes"/>
      <point x="271.667" y="406.667"/>
      <point x="296.333" y="365.334"/>
      <point x="296.333" y="285" type="curve" smooth="yes"/>
      <point x="296.333" y="190"/>
      <point x="262" y="175.667"/>
      <point x="232.333" y="175.667" type="curve" smooth="yes"/>
      <point x="163" y="175.667"/>
      <point x="154.666" y="248.667"/>
    </contour>
  </outline>
</glyph>
<glyph name="h" format="2">
  <advance width="593"/>
  <unicode hex="0068"/>
  <anchor x="316.667" y="740" name="t.uni0302"/>
  <anchor x="322" y="-60" name="b.minus-60"/>
  <anchor x="231" y="6.66667" name="b.cedilla"/>
  <outline>
    <contour>
      <point x="25" y="-2" type="curve"/>
      <point x="63" y="-1"/>
      <point x="104.333" y="0"/>
      <point x="153" y="0" type="curve" smooth="yes"/>
      <point x="197" y="0"/>
      <point x="226" y="-1"/>
      <point x="264.667" y="-2" type="curve"/>
      <point x="270.667" y="4"/>
      <point x="270.667" y="25.6667"/>
      <point x="264.667" y="31.6667" type="curve"/>
      <point x="219.667" y="36"/>
      <point x="209.667" y="39.3333"/>
      <point x="209.667" y="122" type="curve"/>
      <point x="96.3333" y="122" type="line"/>
      <point x="96.3333" y="39.3333"/>
      <point x="85.6667" y="36.6667"/>
      <point x="25" y="31.6667" type="curve"/>
      <point x="19" y="25.6667"/>
      <point x="19" y="4"/>
    </contour>
    <contour>
      <point x="332.667" y="-2" type="curve"/>
      <point x="370.667" y="-1"/>
      <point x="402.667" y="0"/>
      <point x="448" y="0" type="curve" smooth="yes"/>
      <point x="498" y="0"/>
      <point x="539.667" y="-1"/>
      <point x="578.333" y="-2" type="curve"/>
      <point x="584" y="4"/>
      <point x="584" y="25.6667"/>
      <point x="578.333" y="31.6667" type="curve"/>
      <point x="519" y="35.3333"/>
      <point x="504.667" y="39.3333"/>
      <point x="504.667" y="122" type="curve"/>
      <point x="391.333" y="122" type="line"/>
      <point x="391.333" y="39.3333"/>
      <point x="377.333" y="35.3333"/>
      <point x="332.667" y="31.6667" type="curve"/>
      <point x="327" y="25.6667"/>
      <point x="327" y="4"/>
    </contour>
    <contour>
      <point x="209.667" y="122" type="line"/>
      <point x="209.667" y="576" type="line"/>
      <point x="96.3333" y="576" type="line"/>
      <point x="96.3333" y="122" type="line"/>
    </contour>
    <contour>
      <point x="504.667" y="122" type="line"/>
      <point x="504.667" y="279.667" type="line" smooth="yes"/>
      <point x="504.667" y="390.887"/>
      <point x="464.619" y="442.333"/>
      <point x="379" y="442.333" type="curve" smooth="yes"/>
      <point x="340.325" y="442.333"/>
      <point x="270.588" y="408.218"/>
      <point x="192.667" y="350.667" type="curve"/>
      <point x="193.333" y="312.667" type="line"/>
      <point x="240.739" y="352.663"/>
      <point x="287.052" y="375.667"/>
      <point x="319.667" y="375.667" type="curve" smooth="yes"/>
      <point x="365.789" y="375.667"/>
      <point x="391.333" y="344.305"/>
      <point x="391.333" y="288" type="curve" smooth="yes"/>
      <point x="391.333" y="122" type="line"/>
    </contour>
    <contour>
      <point x="96.3883" y="576" type="curve"/>
      <point x="209.722" y="576" type="line"/>
      <point x="209.722" y="626"/>
      <point x="210.722" y="655.667"/>
      <point x="213.722" y="684.333" type="curve"/>
      <point x="213.722" y="693"/>
      <point x="206.055" y="698"/>
      <point x="194.055" y="698" type="curve"/>
      <point x="164.722" y="686.333"/>
      <point x="88.3883" y="673"/>
      <point x="29.3883" y="669.667" type="curve"/>
      <point x="27.3883" y="663.333"/>
      <point x="29.3883" y="643.667"/>
      <point x="31.3883" y="637.667" type="curve"/>
      <point x="85.2149" y="632.773"/>
      <point x="96.3883" y="622.5"/>
    </contour>
  </outline>
  <guideline angle="0" x="0" y="576"/>
</glyph>
<glyph name="i" format="2">
  <advance width="305"/>
  <unicode hex="0069"/>
  <anchor x="137" y="795" name="m.uni0302"/>
  <anchor x="136" y="-110" name="m.uni0316_2"/>
  <anchor x="209" y="10" name="b.uni0321_4"/>
  <outline>
    <component base="dotlessi"/>
    <contour>
      <point x="94.6667" y="597" type="curve" smooth="yes"/>
      <point x="94.6667" y="566.333"/>
      <point x="118.667" y="535.667"/>
      <point x="153.333" y="535.667" type="curve" smooth="yes"/>
      <point x="192.667" y="535.667"/>
      <point x="218" y="568.667"/>
      <point x="218" y="593" type="curve" smooth="yes"/>
      <point x="218" y="621"/>
      <point x="195.667" y="654.333"/>
      <point x="158.667" y="654.333" type="curve" smooth="yes"/>
      <point x="119.333" y="654.333"/>
      <point x="94.6667" y="625"/>
    </contour>
  </outline>
</glyph>
<glyph name="j" format="2">
  <advance width="295"/>
  <unicode hex="006A"/>
  <outline>
    <component base="uni0237"/>
    <contour>
      <point x="91.0003" y="595.001" type="curve" smooth="yes"/>
      <point x="91.0003" y="565.106"/>
      <point x="113.491" y="535.667"/>
      <point x="152.333" y="535.667" type="curve" smooth="yes"/>
      <point x="191.854" y="535.667"/>
      <point x="214.333" y="565.087"/>
      <point x="214.333" y="595.001" type="curve" smooth="yes"/>
      <point x="214.333" y="625.58"/>
      <point x="191.879" y="654.334"/>
      <point x="152.333" y="654.334" type="curve" smooth="yes"/>
      <point x="113.466" y="654.334"/>
      <point x="91.0003" y="625.562"/>
    </contour>
  </outline>
</glyph>
<glyph name="k" format="2">
  <advance width="580"/>
  <unicode hex="006B"/>
  <anchor x="298.333" y="740" name="t.uni0302"/>
  <anchor x="296.667" y="-60" name="b.minus-60"/>
  <outline>
    <contour>
      <point x="26.6667" y="-2" type="curve"/>
      <point x="64.6667" y="-1"/>
      <point x="106" y="0"/>
      <point x="154.667" y="0" type="curve" smooth="yes"/>
      <point x="198.667" y="0"/>
      <point x="227.667" y="-1"/>
      <point x="266.334" y="-2" type="curve"/>
      <point x="272.334" y="4"/>
      <point x="272.334" y="25.667"/>
      <point x="266.334" y="31.667" type="curve"/>
      <point x="221.334" y="36"/>
      <point x="211.334" y="39.334"/>
      <point x="211.334" y="122" type="curve"/>
      <point x="97.9997" y="122" type="line"/>
      <point x="97.9997" y="39.334"/>
      <point x="87.3337" y="36.667"/>
      <point x="26.6667" y="31.667" type="curve"/>
      <point x="20.6667" y="25.667"/>
      <point x="20.6667" y="4"/>
    </contour>
    <contour>
      <point x="97.9997" y="110" type="line"/>
      <point x="211.334" y="110" type="line"/>
      <point x="211.334" y="583" type="line" smooth="yes"/>
      <point x="211.334" y="648"/>
      <point x="214.667" y="681.999"/>
      <point x="214.667" y="685.999" type="curve" smooth="yes"/>
      <point x="214.667" y="694.333"/>
      <point x="208.667" y="697.999"/>
      <point x="199.667" y="697.999" type="curve"/>
      <point x="166.667" y="686.666"/>
      <point x="87.9997" y="674.666"/>
      <point x="27.3337" y="671.666" type="curve"/>
      <point x="24.6667" y="660.999"/>
      <point x="25.9997" y="648.333"/>
      <point x="31.3337" y="640.333" type="curve"/>
      <point x="89.3337" y="637"/>
      <point x="97.9997" y="632.333"/>
      <point x="97.9997" y="575" type="curve" smooth="yes"/>
    </contour>
    <contour>
      <point x="193" y="209.334" type="line"/>
      <point x="246" y="209.334"/>
      <point x="270.667" y="200"/>
      <point x="286" y="177" type="curve" smooth="yes"/>
      <point x="351.667" y="76.334" type="line" smooth="yes"/>
      <point x="368.667" y="51.334"/>
      <point x="376" y="29.667"/>
      <point x="376.334" y="2.333" type="curve"/>
      <point x="376.334" y="0"/>
      <point x="378" y="-2"/>
      <point x="381" y="-2" type="curve"/>
      <point x="391" y="-1.667"/>
      <point x="423" y="0"/>
      <point x="453" y="0" type="curve" smooth="yes"/>
      <point x="490.667" y="0"/>
      <point x="538.334" y="-1"/>
      <point x="569.667" y="-2" type="curve"/>
      <point x="575.667" y="4"/>
      <point x="575.667" y="25.667"/>
      <point x="569.667" y="31.667" type="curve"/>
      <point x="529.334" y="36"/>
      <point x="507.334" y="37.667"/>
      <point x="480.334" y="76.334" type="curve" smooth="yes"/>
      <point x="359" y="245.667" type="line"/>
      <point x="355.667" y="250"/>
      <point x="353.334" y="254.667"/>
      <point x="353.334" y="259" type="curve" smooth="yes"/>
      <point x="353.334" y="261.667"/>
      <point x="354.504" y="265.487"/>
      <point x="358.057" y="269.263" type="curve" smooth="yes"/>
      <point x="418.667" y="334" type="line" smooth="yes"/>
      <point x="463.901" y="383.424"/>
      <point x="489.667" y="396"/>
      <point x="543.667" y="400.667" type="curve"/>
      <point x="549.667" y="406.667"/>
      <point x="549.667" y="428.334"/>
      <point x="543.667" y="434.334" type="curve"/>
      <point x="521.334" y="433.334"/>
      <point x="470" y="432.334"/>
      <point x="440.667" y="432.334" type="curve" smooth="yes"/>
      <point x="403.334" y="432.334"/>
      <point x="359.667" y="433.334"/>
      <point x="327.334" y="434.334" type="curve"/>
      <point x="321.334" y="428.334"/>
      <point x="321.334" y="406.667"/>
      <point x="327.334" y="400.667" type="curve"/>
      <point x="360.667" y="398"/>
      <point x="376" y="391.667"/>
      <point x="376" y="378.334" type="curve" smooth="yes"/>
      <point x="376" y="352.667"/>
      <point x="315" y="287.667"/>
      <point x="290.667" y="270.667" type="curve" smooth="yes"/>
      <point x="269.334" y="256"/>
      <point x="226.334" y="244"/>
      <point x="193" y="244" type="curve"/>
    </contour>
  </outline>
</glyph>
<glyph name="l" format="2">
  <advance width="305"/>
  <unicode hex="006C"/>
  <anchor x="144" y="740" name="t.uni0302"/>
  <anchor x="158.667" y="-60" name="b.minus-60"/>
  <anchor x="277.333" y="654" name="apostrophe"/>
  <outline>
    <contour>
      <point x="30" y="-2" type="curve"/>
      <point x="69" y="-1"/>
      <point x="110" y="0"/>
      <point x="158.667" y="0" type="curve"/>
      <point x="202.14" y="-0.44"/>
      <point x="246.193" y="-1"/>
      <point x="287.333" y="-2" type="curve"/>
      <point x="293.333" y="4.16667"/>
      <point x="293.333" y="25.4167"/>
      <point x="287.333" y="31.6667" type="curve"/>
      <point x="226.333" y="35"/>
      <point x="215.333" y="39.3333"/>
      <point x="215.333" y="122" type="curve"/>
      <point x="102" y="122" type="line"/>
      <point x="102" y="39.3333"/>
      <point x="91" y="35"/>
      <point x="30" y="31.6667" type="curve"/>
      <point x="24" y="25.4167"/>
      <point x="24" y="4.16667"/>
    </contour>
    <contour>
      <point x="102" y="122" type="line"/>
      <point x="215.333" y="122" type="line"/>
      <point x="215.333" y="576" type="line"/>
      <point x="102" y="576" type="line"/>
    </contour>
    <contour>
      <point x="102" y="576" type="curve"/>
      <point x="215.333" y="576" type="line"/>
      <point x="215.333" y="626"/>
      <point x="216.333" y="655.667"/>
      <point x="219.333" y="684.333" type="curve"/>
      <point x="219.333" y="693"/>
      <point x="211.667" y="698"/>
      <point x="199.667" y="698" type="curve"/>
      <point x="170.333" y="686.333"/>
      <point x="94" y="673"/>
      <point x="35" y="669.667" type="curve"/>
      <point x="33" y="663.333"/>
      <point x="35" y="643.667"/>
      <point x="37" y="637.667" type="curve"/>
      <point x="90.8266" y="632.773"/>
      <point x="102" y="622.5"/>
    </contour>
  </outline>
  <guideline angle="90" x="142" y="0"/>
</glyph>
<glyph name="m" format="2">
  <advance width="867"/>
  <unicode hex="006D"/>
  <anchor x="431.333" y="500" name="t.uni0302"/>
  <anchor x="431.667" y="-60" name="b.minus-60"/>
  <outline>
    <contour>
      <point x="26.6667" y="-2" type="curve"/>
      <point x="64.6667" y="-1"/>
      <point x="106" y="0"/>
      <point x="154.667" y="0" type="curve" smooth="yes"/>
      <point x="198.667" y="0"/>
      <point x="227.667" y="-1"/>
      <point x="266.334" y="-2" type="curve"/>
      <point x="272.334" y="4"/>
      <point x="272.334" y="25.667"/>
      <point x="266.334" y="31.667" type="curve"/>
      <point x="221.334" y="36"/>
      <point x="211.334" y="39.334"/>
      <point x="211.334" y="122" type="curve"/>
      <point x="97.9997" y="122" type="line"/>
      <point x="97.9997" y="39.334"/>
      <point x="87.3337" y="36.667"/>
      <point x="26.6667" y="31.667" type="curve"/>
      <point x="20.6667" y="25.667"/>
      <point x="20.6667" y="4"/>
    </contour>
    <contour>
      <point x="327" y="-2" type="curve"/>
      <point x="366" y="-1"/>
      <point x="390" y="0"/>
      <point x="438.667" y="0" type="curve"/>
      <point x="482.14" y="-0.44"/>
      <point x="509.193" y="-1"/>
      <point x="550.333" y="-2" type="curve"/>
      <point x="556.333" y="4.167"/>
      <point x="556.333" y="25.417"/>
      <point x="550.333" y="31.667" type="curve"/>
      <point x="506" y="35"/>
      <point x="495.333" y="39.334"/>
      <point x="495.333" y="122" type="curve"/>
      <point x="382" y="122" type="line"/>
      <point x="382" y="39.334"/>
      <point x="371.334" y="35"/>
      <point x="327" y="31.667" type="curve"/>
      <point x="321" y="25.417"/>
      <point x="321" y="4.167"/>
    </contour>
    <contour>
      <point x="607.334" y="-2" type="curve"/>
      <point x="645.334" y="-1"/>
      <point x="677.334" y="0"/>
      <point x="722.667" y="0" type="curve" smooth="yes"/>
      <point x="772.667" y="0"/>
      <point x="814.333" y="-1"/>
      <point x="853" y="-2" type="curve"/>
      <point x="858.667" y="4"/>
      <point x="858.667" y="25.667"/>
      <point x="853" y="31.667" type="curve"/>
      <point x="793.667" y="35.334"/>
      <point x="779.333" y="39.334"/>
      <point x="779.333" y="122" type="curve"/>
      <point x="666" y="122" type="line"/>
      <point x="666" y="39.334"/>
      <point x="652" y="35.334"/>
      <point x="607.334" y="31.667" type="curve"/>
      <point x="601.667" y="25.667"/>
      <point x="601.667" y="4"/>
    </contour>
    <contour>
      <point x="97.9997" y="316" type="curve"/>
      <point x="211.334" y="336" type="line"/>
      <point x="211.334" y="366.576"/>
      <point x="207.425" y="406.922"/>
      <point x="202" y="429.334" type="curve" smooth="yes"/>
      <point x="199.749" y="438.636"/>
      <point x="194.259" y="443.334"/>
      <point x="182.667" y="443.334" type="curve"/>
      <point x="135.958" y="429.192"/>
      <point x="85.3547" y="418.757"/>
      <point x="30.9997" y="411.667" type="curve"/>
      <point x="29.3277" y="406.651"/>
      <point x="30.5107" y="388.469"/>
      <point x="32.9997" y="381" type="curve"/>
      <point x="89.7407" y="375.81"/>
      <point x="97.9997" y="361.582"/>
    </contour>
    <contour>
      <point x="666" y="122" type="line"/>
      <point x="779.333" y="122" type="line"/>
      <point x="779.333" y="281.667" type="line" smooth="yes"/>
      <point x="779.333" y="384.667"/>
      <point x="747.333" y="441.334"/>
      <point x="660.667" y="441.334" type="curve" smooth="yes"/>
      <point x="615.667" y="441.334"/>
      <point x="527" y="400"/>
      <point x="471" y="356.667" type="curve"/>
      <point x="476.667" y="320.334" type="line"/>
      <point x="521.667" y="358.667"/>
      <point x="574.333" y="374.667"/>
      <point x="600.667" y="374.667" type="curve" smooth="yes"/>
      <point x="640" y="374.667"/>
      <point x="666" y="355.334"/>
      <point x="666" y="295" type="curve" smooth="yes"/>
    </contour>
    <contour>
      <point x="382" y="122" type="line"/>
      <point x="495.333" y="122" type="line"/>
      <point x="495.333" y="282" type="line" smooth="yes"/>
      <point x="495.333" y="364"/>
      <point x="472.333" y="441.334"/>
      <point x="373.334" y="441.334" type="curve" smooth="yes"/>
      <point x="326.334" y="441.334"/>
      <point x="249.334" y="394"/>
      <point x="196.334" y="355" type="curve"/>
      <point x="196.667" y="316" type="line"/>
      <point x="238.334" y="351"/>
      <point x="282.667" y="374.667"/>
      <point x="313.334" y="374.667" type="curve" smooth="yes"/>
      <point x="352.667" y="374.667"/>
      <point x="382" y="354.667"/>
      <point x="382" y="294.334" type="curve" smooth="yes"/>
    </contour>
    <contour>
      <point x="97.9997" y="122" type="line"/>
      <point x="211.334" y="122" type="line"/>
      <point x="211.334" y="336" type="line"/>
      <point x="97.9997" y="316" type="line"/>
    </contour>
  </outline>
</glyph>
<glyph name="n" format="2">
  <advance width="593"/>
  <unicode hex="006E"/>
  <anchor x="238" y="500" name="t.uni0302"/>
  <anchor x="288.333" y="-60" name="b.minus-60"/>
  <anchor x="-5.333" y="654" name="apostrophe"/>
  <outline>
    <contour>
      <point x="26.7667" y="-2" type="curve"/>
      <point x="64.7667" y="-1"/>
      <point x="106.1" y="0"/>
      <point x="154.767" y="0" type="curve" smooth="yes"/>
      <point x="198.767" y="0"/>
      <point x="227.767" y="-1"/>
      <point x="266.433" y="-2" type="curve"/>
      <point x="272.433" y="4"/>
      <point x="272.433" y="25.667"/>
      <point x="266.433" y="31.667" type="curve"/>
      <point x="221.433" y="36"/>
      <point x="211.433" y="39.334"/>
      <point x="211.433" y="122" type="curve"/>
      <point x="98.0997" y="122" type="line"/>
      <point x="98.0997" y="39.334"/>
      <point x="87.4337" y="36.667"/>
      <point x="26.7667" y="31.667" type="curve"/>
      <point x="20.7667" y="25.667"/>
      <point x="20.7667" y="4"/>
    </contour>
    <contour>
      <point x="332.433" y="-2" type="curve"/>
      <point x="370.433" y="-1"/>
      <point x="402.433" y="0"/>
      <point x="447.767" y="0" type="curve" smooth="yes"/>
      <point x="497.767" y="0"/>
      <point x="539.433" y="-1"/>
      <point x="578.1" y="-2" type="curve"/>
      <point x="583.767" y="4"/>
      <point x="583.767" y="25.667"/>
      <point x="578.1" y="31.667" type="curve"/>
      <point x="518.767" y="35.334"/>
      <point x="504.433" y="39.334"/>
      <point x="504.433" y="122" type="curve"/>
      <point x="391.1" y="122" type="line"/>
      <point x="391.1" y="39.334"/>
      <point x="377.1" y="35.334"/>
      <point x="332.433" y="31.667" type="curve"/>
      <point x="326.767" y="25.667"/>
      <point x="326.767" y="4"/>
    </contour>
    <contour>
      <point x="98.0997" y="316" type="curve"/>
      <point x="211.433" y="336" type="line"/>
      <point x="211.433" y="366.576"/>
      <point x="207.524" y="406.922"/>
      <point x="202.1" y="429.334" type="curve" smooth="yes"/>
      <point x="199.849" y="438.636"/>
      <point x="194.359" y="443.334"/>
      <point x="182.767" y="443.334" type="curve"/>
      <point x="136.057" y="429.192"/>
      <point x="85.4547" y="418.757"/>
      <point x="31.0997" y="411.667" type="curve"/>
      <point x="29.4277" y="406.651"/>
      <point x="30.6107" y="388.469"/>
      <point x="33.0997" y="381" type="curve"/>
      <point x="89.8407" y="375.81"/>
      <point x="98.0997" y="361.582"/>
    </contour>
    <contour>
      <point x="98.0997" y="110" type="line"/>
      <point x="211.433" y="110" type="line"/>
      <point x="211.433" y="344" type="line"/>
      <point x="98.0997" y="324" type="line"/>
    </contour>
    <contour>
      <point x="391.1" y="110" type="line"/>
      <point x="504.433" y="110" type="line"/>
      <point x="504.433" y="279.667" type="line" smooth="yes"/>
      <point x="504.433" y="390.635"/>
      <point x="464.219" y="442.334"/>
      <point x="378.767" y="442.334" type="curve" smooth="yes"/>
      <point x="338.813" y="442.334"/>
      <point x="277.689" y="407.009"/>
      <point x="200.1" y="348.667" type="curve"/>
      <point x="211.433" y="319" type="line"/>
      <point x="258.436" y="355.247"/>
      <point x="296.97" y="375.667"/>
      <point x="320.61" y="375.667" type="curve" smooth="yes"/>
      <point x="367.622" y="375.667"/>
      <point x="391.1" y="345.258"/>
      <point x="391.1" y="288" type="curve" smooth="yes"/>
    </contour>
  </outline>
</glyph>
<glyph name="o" format="2">
  <advance width="535"/>
  <unicode hex="006F"/>
  <anchor x="252.667" y="500" name="t.uni0302"/>
  <anchor x="353.667" y="10" name="b.ogonek"/>
  <anchor x="263" y="-60" name="b.minus-60"/>
  <outline>
    <contour>
      <point x="38.333" y="207.059" type="curve" smooth="yes"/>
      <point x="38.333" y="82.876"/>
      <point x="117.43" y="-10"/>
      <point x="257.441" y="-10" type="curve" smooth="yes"/>
      <point x="398.899" y="-10"/>
      <point x="497" y="84.223"/>
      <point x="497" y="213.113" type="curve" smooth="yes"/>
      <point x="497" y="344.142"/>
      <point x="421.63" y="442.334"/>
      <point x="278.104" y="442.334" type="curve" smooth="yes"/>
      <point x="132.547" y="442.334"/>
      <point x="38.333" y="342.544"/>
    </contour>
    <contour>
      <point x="160.333" y="229.7" type="curve" smooth="yes"/>
      <point x="160.333" y="334.884"/>
      <point x="195.753" y="402.667"/>
      <point x="260.977" y="402.667" type="curve" smooth="yes"/>
      <point x="332.579" y="402.667"/>
      <point x="375" y="320.345"/>
      <point x="375" y="183.334" type="curve" smooth="yes"/>
      <point x="375" y="79.358"/>
      <point x="328.245" y="29.667"/>
      <point x="277.714" y="29.667" type="curve" smooth="yes"/>
      <point x="202.462" y="29.667"/>
      <point x="160.333" y="131.1"/>
    </contour>
  </outline>
</glyph>
<glyph name="p" format="2">
  <advance width="573"/>
  <unicode hex="0070"/>
  <anchor x="252.667" y="500" name="t.uni0302"/>
  <anchor x="352.333" y="-60" name="b.minus-60"/>
  <outline>
    <contour>
      <point x="102" y="-110" type="line"/>
      <point x="215.333" y="-110" type="line"/>
      <point x="215.333" y="317.667" type="line" smooth="yes"/>
      <point x="215.333" y="359"/>
      <point x="210.311" y="398.328"/>
      <point x="206" y="429.333" type="curve"/>
      <point x="204.311" y="438.995"/>
      <point x="198.667" y="443.333"/>
      <point x="186.667" y="443.333" type="curve"/>
      <point x="152.667" y="433"/>
      <point x="104" y="420.667"/>
      <point x="35" y="411.667" type="curve"/>
      <point x="33" y="405.667"/>
      <point x="35" y="387"/>
      <point x="37" y="381" type="curve"/>
      <point x="91.6667" y="376"/>
      <point x="102" y="369"/>
      <point x="102" y="311.667" type="curve" smooth="yes"/>
    </contour>
    <contour>
      <point x="200" y="15.3333" type="line"/>
      <point x="226.667" y="0.333333"/>
      <point x="263" y="-10"/>
      <point x="293.333" y="-10" type="curve" smooth="yes"/>
      <point x="441.333" y="-10"/>
      <point x="534.333" y="94"/>
      <point x="534.333" y="236.333" type="curve" smooth="yes"/>
      <point x="534.333" y="352.333"/>
      <point x="459.333" y="442.333"/>
      <point x="344" y="442.333" type="curve" smooth="yes"/>
      <point x="309.333" y="442.333"/>
      <point x="254.333" y="406.667"/>
      <point x="217.667" y="370.333" type="curve"/>
      <point x="204" y="370.333" type="line"/>
      <point x="204" y="317.333" type="line"/>
      <point x="232" y="350.667"/>
      <point x="279.333" y="382.333"/>
      <point x="313.333" y="382.333" type="curve" smooth="yes"/>
      <point x="362" y="382.333"/>
      <point x="412.333" y="325"/>
      <point x="412.333" y="209.333" type="curve" smooth="yes"/>
      <point x="412.333" y="126"/>
      <point x="382.667" y="29.3333"/>
      <point x="287.333" y="29.3333" type="curve" smooth="yes"/>
      <point x="266.333" y="29.3333"/>
      <point x="233" y="40.6667"/>
      <point x="200" y="81.3333" type="curve"/>
    </contour>
    <contour>
      <point x="30" y="-234" type="curve"/>
      <point x="69" y="-233"/>
      <point x="110" y="-232"/>
      <point x="158.667" y="-232" type="curve"/>
      <point x="202.14" y="-232.44"/>
      <point x="246.193" y="-233"/>
      <point x="287.333" y="-234" type="curve"/>
      <point x="293.333" y="-227.833"/>
      <point x="293.333" y="-206.583"/>
      <point x="287.333" y="-200.333" type="curve"/>
      <point x="226.333" y="-197"/>
      <point x="215.333" y="-192.667"/>
      <point x="215.333" y="-110" type="curve"/>
      <point x="102" y="-110" type="line"/>
      <point x="102" y="-192.667"/>
      <point x="91" y="-197"/>
      <point x="30" y="-200.333" type="curve"/>
      <point x="24" y="-206.583"/>
      <point x="24" y="-227.833"/>
    </contour>
  </outline>
</glyph>
<glyph name="q" format="2">
  <advance width="550"/>
  <unicode hex="0071"/>
  <anchor x="252.667" y="500" name="t.uni0302"/>
  <anchor x="352.333" y="-60" name="b.minus-60"/>
  <outline>
    <contour>
      <point x="35.6667" y="207.667" type="curve" smooth="yes"/>
      <point x="35.6667" y="91.3333"/>
      <point x="107.333" y="-10"/>
      <point x="241.333" y="-10" type="curve" smooth="yes"/>
      <point x="273" y="-10"/>
      <point x="320.667" y="9.66667"/>
      <point x="346.667" y="25" type="curve"/>
      <point x="363.51" y="25" type="line"/>
      <point x="363.51" y="75.1697" type="line"/>
      <point x="344.436" y="54.4026"/>
      <point x="304.254" y="42"/>
      <point x="280.667" y="42" type="curve" smooth="yes"/>
      <point x="228" y="42"/>
      <point x="157.667" y="80"/>
      <point x="157.667" y="228.333" type="curve" smooth="yes"/>
      <point x="157.667" y="329.667"/>
      <point x="201" y="403"/>
      <point x="271" y="403" type="curve" smooth="yes"/>
      <point x="300.667" y="403"/>
      <point x="323.333" y="392.333"/>
      <point x="350.667" y="358" type="curve"/>
      <point x="350.667" y="-110" type="line"/>
      <point x="464" y="-110" type="line"/>
      <point x="464" y="325" type="line" smooth="yes"/>
      <point x="464" y="367.667"/>
      <point x="465.702" y="405.184"/>
      <point x="468" y="423.667" type="curve"/>
      <point x="468" y="435.667"/>
      <point x="459" y="443.333"/>
      <point x="446" y="443.333" type="curve" smooth="yes"/>
      <point x="434" y="443.333"/>
      <point x="403.667" y="424.667"/>
      <point x="385.667" y="405.667" type="curve"/>
      <point x="356" y="425"/>
      <point x="323.667" y="442.333"/>
      <point x="274.333" y="442.333" type="curve" smooth="yes"/>
      <point x="145" y="442.333"/>
      <point x="35.6667" y="340.333"/>
    </contour>
    <contour>
      <point x="278.667" y="-234" type="curve"/>
      <point x="317.667" y="-233"/>
      <point x="358.667" y="-232"/>
      <point x="407.333" y="-232" type="curve"/>
      <point x="450.807" y="-232.44"/>
      <point x="494.86" y="-233"/>
      <point x="536" y="-234" type="curve"/>
      <point x="542" y="-227.833"/>
      <point x="542" y="-206.583"/>
      <point x="536" y="-200.333" type="curve"/>
      <point x="475" y="-197"/>
      <point x="464" y="-192.667"/>
      <point x="464" y="-110" type="curve"/>
      <point x="350.667" y="-110" type="line"/>
      <point x="350.667" y="-192.667"/>
      <point x="339.667" y="-197"/>
      <point x="278.667" y="-200.333" type="curve"/>
      <point x="272.667" y="-206.583"/>
      <point x="272.667" y="-227.833"/>
    </contour>
  </outline>
</glyph>
<glyph name="r" format="2">
  <advance width="409"/>
  <unicode hex="0072"/>
  <anchor x="252.667" y="500" name="t.uni0302"/>
  <anchor x="156.333" y="-60" name="b.minus-60"/>
  <outline>
    <contour>
      <point x="98.667" y="120" type="line"/>
      <point x="98.667" y="38.334"/>
      <point x="87.334" y="36.334"/>
      <point x="26" y="31.667" type="curve"/>
      <point x="20" y="25.667"/>
      <point x="20" y="4"/>
      <point x="26" y="-2" type="curve"/>
      <point x="65.667" y="-1"/>
      <point x="106.667" y="0"/>
      <point x="156" y="0" type="curve" smooth="yes"/>
      <point x="204.667" y="0"/>
      <point x="246.667" y="-1"/>
      <point x="287" y="-2" type="curve"/>
      <point x="293" y="4"/>
      <point x="293" y="25.667"/>
      <point x="287" y="31.667" type="curve"/>
      <point x="223" y="36"/>
      <point x="211.667" y="38.334"/>
      <point x="211.667" y="120" type="curve"/>
    </contour>
    <contour>
      <point x="211.667" y="120" type="line"/>
      <point x="211.667" y="265.666" type="line" smooth="yes"/>
      <point x="211.667" y="301.666"/>
      <point x="238.334" y="359.667"/>
      <point x="272.334" y="359.667" type="curve" smooth="yes"/>
      <point x="281.334" y="359.667"/>
      <point x="291.667" y="353"/>
      <point x="299.667" y="342.667" type="curve" smooth="yes"/>
      <point x="306.667" y="334"/>
      <point x="322" y="324.333"/>
      <point x="343" y="324.333" type="curve" smooth="yes"/>
      <point x="370.334" y="324.333"/>
      <point x="396.667" y="352.667"/>
      <point x="396.667" y="389" type="curve" smooth="yes"/>
      <point x="396.667" y="412.667"/>
      <point x="370.667" y="442.334"/>
      <point x="332.667" y="442.334" type="curve" smooth="yes"/>
      <point x="293.667" y="442.334"/>
      <point x="254.667" y="407.667"/>
      <point x="216.334" y="350.667" type="curve"/>
      <point x="213.677" y="347"/>
      <point x="210.929" y="349.667"/>
      <point x="210.667" y="351.334" type="curve"/>
      <point x="208.667" y="384.667"/>
      <point x="205" y="426"/>
      <point x="203.334" y="429.333" type="curve"/>
      <point x="202" y="437"/>
      <point x="196" y="443.334"/>
      <point x="184" y="443.334" type="curve"/>
      <point x="142.667" y="431.667"/>
      <point x="98.667" y="419.333"/>
      <point x="31.667" y="411.667" type="curve"/>
      <point x="29.667" y="405.667"/>
      <point x="31.667" y="387.667"/>
      <point x="33.667" y="381.667" type="curve"/>
      <point x="88.334" y="376.667"/>
      <point x="98.667" y="369"/>
      <point x="98.667" y="311.666" type="curve" smooth="yes"/>
      <point x="98.667" y="120" type="line"/>
    </contour>
  </outline>
</glyph>
<glyph name="s" format="2">
  <advance width="415"/>
  <unicode hex="0073"/>
  <anchor x="201.333" y="500" name="t.uni0302"/>
  <anchor x="222.667" y="-60" name="b.minus-60"/>
  <anchor x="210.667" y="0" name="b.cedilla"/>
  <outline>
    <contour>
      <point x="58" y="143.334" type="curve"/>
      <point x="66.685" y="95.342"/>
      <point x="71.457" y="44.384"/>
      <point x="72.628" y="-1.333" type="curve"/>
      <point x="105.263" y="-1.376"/>
      <point x="169.532" y="-10"/>
      <point x="206.333" y="-10" type="curve" smooth="yes"/>
      <point x="290.699" y="-10"/>
      <point x="368" y="34.847"/>
      <point x="368" y="123" type="curve" smooth="yes"/>
      <point x="368" y="188.041"/>
      <point x="323.18" y="234.933"/>
      <point x="251.666" y="258.914" type="curve" smooth="yes"/>
      <point x="185.331" y="281.423"/>
      <point x="161.667" y="297.409"/>
      <point x="161.667" y="348.334" type="curve" smooth="yes"/>
      <point x="161.667" y="382.334"/>
      <point x="186.334" y="402.667"/>
      <point x="216.667" y="402.667" type="curve" smooth="yes"/>
      <point x="247.666" y="402.667"/>
      <point x="289.666" y="378.667"/>
      <point x="310.666" y="309.667" type="curve"/>
      <point x="321.333" y="306.334"/>
      <point x="333.333" y="307.334"/>
      <point x="340.667" y="313.334" type="curve"/>
      <point x="335.964" y="351.887"/>
      <point x="334.453" y="385"/>
      <point x="336.786" y="417" type="curve"/>
      <point x="299.12" y="423.334"/>
      <point x="267.326" y="442.334"/>
      <point x="215.667" y="442.334" type="curve" smooth="yes"/>
      <point x="122.316" y="442.334"/>
      <point x="62.667" y="393.968"/>
      <point x="62.667" y="317.667" type="curve" smooth="yes"/>
      <point x="62.667" y="252.076"/>
      <point x="95.547" y="213.94"/>
      <point x="164.334" y="187.334" type="curve" smooth="yes"/>
      <point x="243.025" y="156.883"/>
      <point x="265.333" y="133.757"/>
      <point x="265.333" y="88" type="curve" smooth="yes"/>
      <point x="265.333" y="50.637"/>
      <point x="242.645" y="27.667"/>
      <point x="205.667" y="27.667" type="curve" smooth="yes"/>
      <point x="151" y="27.667"/>
      <point x="114.334" y="76"/>
      <point x="95" y="145" type="curve"/>
      <point x="82.334" y="149"/>
      <point x="70.667" y="148"/>
    </contour>
  </outline>
</glyph>
<glyph name="t" format="2">
  <advance width="347"/>
  <unicode hex="0074"/>
  <anchor x="147.667" y="636.667" name="t.uni0302"/>
  <anchor x="188.667" y="-60" name="b.minus-60"/>
  <anchor x="195" y="0" name="b.cedilla"/>
  <outline>
    <contour>
      <point x="63.6667" y="432.333" type="line" smooth="yes"/>
      <point x="49.6667" y="432.333"/>
      <point x="34.3333" y="427.333"/>
      <point x="22.3333" y="417.333" type="curve"/>
      <point x="22.3333" y="392" type="line" smooth="yes"/>
      <point x="22.3333" y="387"/>
      <point x="23.3333" y="386"/>
      <point x="27.3333" y="386" type="curve" smooth="yes"/>
      <point x="90.3333" y="386" type="line"/>
      <point x="90.3333" y="99.6667" type="line" smooth="yes"/>
      <point x="90.3333" y="27.3333"/>
      <point x="125" y="-10"/>
      <point x="189.667" y="-10" type="curve" smooth="yes"/>
      <point x="241.667" y="-10"/>
      <point x="301.667" y="16"/>
      <point x="328" y="49.3333" type="curve"/>
      <point x="327.333" y="60.6667"/>
      <point x="321.333" y="66.6667"/>
      <point x="310" y="73.6667" type="curve"/>
      <point x="292.667" y="60.3333"/>
      <point x="266" y="55"/>
      <point x="244.667" y="55" type="curve" smooth="yes"/>
      <point x="221" y="55"/>
      <point x="203.667" y="76.3333"/>
      <point x="203.667" y="130.333" type="curve" smooth="yes"/>
      <point x="203.667" y="386" type="line"/>
      <point x="305.667" y="386" type="line" smooth="yes"/>
      <point x="315.667" y="386"/>
      <point x="329.667" y="390"/>
      <point x="329.667" y="399" type="curve" smooth="yes"/>
      <point x="329.667" y="426.333" type="line" smooth="yes"/>
      <point x="329.667" y="430.333"/>
      <point x="326.667" y="432.333"/>
      <point x="321.667" y="432.333" type="curve" smooth="yes"/>
      <point x="203.667" y="432.333" type="line"/>
      <point x="204.667" y="468" type="line" smooth="yes"/>
      <point x="206.536" y="534.337"/>
      <point x="209.667" y="565.667"/>
      <point x="211.667" y="578.333" type="curve"/>
      <point x="211.667" y="584.333"/>
      <point x="208.667" y="587.333"/>
      <point x="203.667" y="587.333" type="curve" smooth="yes"/>
      <point x="194" y="587.333"/>
      <point x="104.333" y="556"/>
      <point x="99.6667" y="548.333" type="curve"/>
      <point x="94" y="538"/>
      <point x="90.3333" y="505"/>
      <point x="90.3333" y="432.333" type="curve"/>
    </contour>
  </outline>
</glyph>
<glyph name="u" format="2">
  <advance width="576"/>
  <unicode hex="0075"/>
  <anchor x="264.667" y="500" name="t.uni0302"/>
  <anchor x="463.333" y="10" name="b.ogonek"/>
  <anchor x="299" y="-60" name="b.minus-60"/>
  <outline>
    <contour>
      <point x="216.999" y="-10" type="curve" smooth="yes"/>
      <point x="256.999" y="-10"/>
      <point x="334.666" y="26"/>
      <point x="391.666" y="64.333" type="curve"/>
      <point x="392.333" y="105.666" type="line"/>
      <point x="347" y="68.999"/>
      <point x="298.333" y="55"/>
      <point x="274.999" y="55" type="curve" smooth="yes"/>
      <point x="238.333" y="55"/>
      <point x="201.666" y="62.999"/>
      <point x="201.666" y="139.333" type="curve" smooth="yes"/>
      <point x="201.666" y="311.333" type="line" smooth="yes"/>
      <point x="201.666" y="377.334"/>
      <point x="204.333" y="393.667"/>
      <point x="204.333" y="409.667" type="curve" smooth="yes"/>
      <point x="204.333" y="422.001"/>
      <point x="200.666" y="430.334"/>
      <point x="194.999" y="434.334" type="curve"/>
      <point x="181.333" y="433.334"/>
      <point x="162.333" y="432.334"/>
      <point x="145.333" y="432.334" type="curve" smooth="yes"/>
      <point x="100.666" y="432.334"/>
      <point x="63" y="433.334"/>
      <point x="23" y="434.334" type="curve"/>
      <point x="17" y="428.334"/>
      <point x="17" y="406.667"/>
      <point x="23" y="400.667" type="curve"/>
      <point x="69.666" y="398"/>
      <point x="88.333" y="387.667"/>
      <point x="88.333" y="310" type="curve" smooth="yes"/>
      <point x="88.333" y="142" type="line" smooth="yes"/>
      <point x="88.333" y="48.333"/>
      <point x="126.666" y="-10"/>
    </contour>
    <contour>
      <point x="383.666" y="4.667" type="curve"/>
      <point x="384.666" y="-5.667"/>
      <point x="393.333" y="-10"/>
      <point x="406.333" y="-10" type="curve"/>
      <point x="438.333" y="2.667"/>
      <point x="490.333" y="17"/>
      <point x="556.666" y="25.333" type="curve"/>
      <point x="559.999" y="31.333"/>
      <point x="558.666" y="49.667"/>
      <point x="555.333" y="55.666" type="curve"/>
      <point x="497.999" y="60.666"/>
      <point x="487.666" y="77.666"/>
      <point x="487.666" y="132" type="curve" smooth="yes"/>
      <point x="487.666" y="311.333" type="line" smooth="yes"/>
      <point x="487.666" y="377.334"/>
      <point x="490.333" y="393.667"/>
      <point x="490.333" y="409.667" type="curve" smooth="yes"/>
      <point x="490.333" y="422.001"/>
      <point x="486.666" y="430.334"/>
      <point x="480.999" y="434.334" type="curve"/>
      <point x="467.333" y="433.334"/>
      <point x="448.666" y="432.334"/>
      <point x="431" y="432.334" type="curve" smooth="yes"/>
      <point x="401.666" y="432.334"/>
      <point x="346.333" y="433.334"/>
      <point x="309" y="434.334" type="curve"/>
      <point x="303" y="428.334"/>
      <point x="303" y="406.667"/>
      <point x="309" y="400.667" type="curve"/>
      <point x="359.333" y="396.334"/>
      <point x="374.333" y="387.667"/>
      <point x="374.333" y="309.667" type="curve" smooth="yes"/>
      <point x="374.333" y="122" type="line" smooth="yes"/>
      <point x="374.333" y="81.333"/>
      <point x="377.333" y="44.667"/>
    </contour>
  </outline>
</glyph>
<glyph name="w" format="2">
  <advance width="767"/>
  <unicode hex="0077"/>
  <anchor x="378" y="500" name="t.uni0302"/>
  <anchor x="352.333" y="-60" name="b.minus-60"/>
  <outline>
    <contour>
      <point x="247.667" y="-12" type="curve" smooth="yes"/>
      <point x="257.333" y="-12"/>
      <point x="272.667" y="-8.666"/>
      <point x="280.333" y="10.667" type="curve" smooth="yes"/>
      <point x="376.667" y="256.667" type="line"/>
      <point x="475" y="8.667" type="line" smooth="yes"/>
      <point x="481.667" y="-8"/>
      <point x="497" y="-12"/>
      <point x="509" y="-12" type="curve" smooth="yes"/>
      <point x="518.667" y="-12"/>
      <point x="532.667" y="-8"/>
      <point x="540" y="10.334" type="curve" smooth="yes"/>
      <point x="665.667" y="319.334" type="line" smooth="yes"/>
      <point x="682.667" y="361.667"/>
      <point x="699.333" y="396.334"/>
      <point x="753.667" y="400.667" type="curve"/>
      <point x="759.667" y="406.667"/>
      <point x="759.667" y="428.334"/>
      <point x="753.667" y="434.334" type="curve"/>
      <point x="732.333" y="433.334"/>
      <point x="713" y="432.334"/>
      <point x="685.667" y="432.334" type="curve" smooth="yes"/>
      <point x="651" y="432.334"/>
      <point x="608.333" y="433.334"/>
      <point x="573.667" y="434.334" type="curve"/>
      <point x="567.667" y="428.334"/>
      <point x="567.667" y="406.667"/>
      <point x="573.667" y="400.667" type="curve"/>
      <point x="634.667" y="396.667"/>
      <point x="634" y="369.667"/>
      <point x="617.333" y="325.334" type="curve" smooth="yes"/>
      <point x="550.667" y="150.667" type="line" smooth="yes"/>
      <point x="544.667" y="134.334"/>
      <point x="539.333" y="135"/>
      <point x="534" y="148.667" type="curve"/>
      <point x="466" y="338.334" type="line" smooth="yes"/>
      <point x="450.333" y="382"/>
      <point x="452.011" y="395.921"/>
      <point x="504" y="400.667" type="curve"/>
      <point x="510" y="406.667"/>
      <point x="510" y="428.334"/>
      <point x="504" y="434.334" type="curve"/>
      <point x="469.333" y="433.334"/>
      <point x="427.333" y="432.334"/>
      <point x="383.333" y="432.334" type="curve" smooth="yes"/>
      <point x="353.667" y="432.334"/>
      <point x="312" y="433.334"/>
      <point x="279.333" y="434.334" type="curve"/>
      <point x="273.333" y="428.334"/>
      <point x="273.333" y="406.667"/>
      <point x="279.333" y="400.667" type="curve"/>
      <point x="320.893" y="395.02"/>
      <point x="329.235" y="380.324"/>
      <point x="345.98" y="336.7" type="curve" smooth="yes"/>
      <point x="355" y="312.667" type="line"/>
      <point x="293.667" y="149" type="line" smooth="yes"/>
      <point x="287.333" y="133.334"/>
      <point x="284" y="131.667"/>
      <point x="277" y="149" type="curve"/>
      <point x="210.333" y="336.334" type="line" smooth="yes"/>
      <point x="194.667" y="379.667"/>
      <point x="195" y="396.334"/>
      <point x="239" y="400.667" type="curve"/>
      <point x="245" y="406.667"/>
      <point x="245" y="428.334"/>
      <point x="239" y="434.334" type="curve"/>
      <point x="206.333" y="433.334"/>
      <point x="168.667" y="432.334"/>
      <point x="125.333" y="432.334" type="curve" smooth="yes"/>
      <point x="89.333" y="432.334"/>
      <point x="46.333" y="433.334"/>
      <point x="13" y="434.334" type="curve"/>
      <point x="7" y="428.334"/>
      <point x="7" y="406.667"/>
      <point x="13" y="400.667" type="curve"/>
      <point x="60.212" y="394.404"/>
      <point x="73" y="378.334"/>
      <point x="92.667" y="327" type="curve" smooth="yes"/>
      <point x="217.667" y="8.667" type="line" smooth="yes"/>
      <point x="224.333" y="-8.666"/>
      <point x="235.667" y="-12"/>
    </contour>
  </outline>
</glyph>
<glyph name="y" format="2">
  <advance width="544"/>
  <unicode hex="0079"/>
  <anchor x="252.667" y="500" name="t.uni0302"/>
  <anchor x="352.333" y="-60" name="b.minus-60"/>
  <outline>
    <contour>
      <point x="309.333" y="101.333" type="line"/>
      <point x="205.667" y="338.334" type="line" smooth="yes"/>
      <point x="188.333" y="378.334"/>
      <point x="181.333" y="396"/>
      <point x="239.333" y="400.667" type="curve"/>
      <point x="245.333" y="406.667"/>
      <point x="245.333" y="428.334"/>
      <point x="239.333" y="434.334" type="curve"/>
      <point x="202.333" y="433.334"/>
      <point x="149" y="432.334"/>
      <point x="113" y="432.334" type="curve" smooth="yes"/>
      <point x="79" y="432.334"/>
      <point x="32" y="433.334"/>
      <point x="12" y="434.334" type="curve"/>
      <point x="6" y="428.334"/>
      <point x="6" y="406.667"/>
      <point x="12" y="400.667" type="curve"/>
      <point x="54.667" y="396.334"/>
      <point x="64.333" y="388.667"/>
      <point x="91" y="326.334" type="curve" smooth="yes"/>
      <point x="246.667" y="-33.334" type="line"/>
    </contour>
    <contour>
      <point x="69.667" y="-184.334" type="curve" smooth="yes"/>
      <point x="69.333" y="-210"/>
      <point x="87.333" y="-232"/>
      <point x="119" y="-232" type="curve" smooth="yes"/>
      <point x="192" y="-232"/>
      <point x="212.333" y="-209.333"/>
      <point x="271.667" y="-74" type="curve" smooth="yes"/>
      <point x="452" y="337.334" type="line" smooth="yes"/>
      <point x="467" y="371"/>
      <point x="492.667" y="396.667"/>
      <point x="533" y="400.667" type="curve"/>
      <point x="539" y="406.667"/>
      <point x="539" y="428.334"/>
      <point x="533" y="434.334" type="curve"/>
      <point x="509.667" y="433.334"/>
      <point x="490" y="432.334"/>
      <point x="462" y="432.334" type="curve" smooth="yes"/>
      <point x="428.667" y="432.334"/>
      <point x="395.667" y="433.334"/>
      <point x="361" y="434.334" type="curve"/>
      <point x="355" y="428.334"/>
      <point x="355" y="406.667"/>
      <point x="361" y="400.667" type="curve"/>
      <point x="393" y="397.667"/>
      <point x="425" y="392.334"/>
      <point x="409" y="356.334" type="curve" smooth="yes"/>
      <point x="209" y="-97.334" type="line"/>
      <point x="198" y="-125"/>
      <point x="184" y="-139.667"/>
      <point x="157" y="-139.667" type="curve" smooth="yes"/>
      <point x="134.667" y="-139.667"/>
      <point x="129.333" y="-135.667"/>
      <point x="111.667" y="-136" type="curve" smooth="yes"/>
      <point x="86.667" y="-136.334"/>
      <point x="70" y="-161.334"/>
    </contour>
  </outline>
</glyph>
<glyph name="z" format="2">
  <advance width="443"/>
  <unicode hex="007A"/>
  <anchor x="252.667" y="500" name="t.uni0302"/>
  <anchor x="197.667" y="-60" name="b.minus-60"/>
  <outline>
    <contour>
      <point x="64.333" y="443.667" type="curve"/>
      <point x="62.333" y="443.667"/>
      <point x="58.333" y="439.667"/>
      <point x="58.333" y="437.667" type="curve"/>
      <point x="57.333" y="392.667"/>
      <point x="51.667" y="351"/>
      <point x="43.333" y="302" type="curve"/>
      <point x="52.333" y="298"/>
      <point x="71" y="296"/>
      <point x="83" y="299" type="curve"/>
      <point x="103" y="372"/>
      <point x="134" y="392.334"/>
      <point x="164" y="393.334" type="curve" smooth="yes"/>
      <point x="274.333" y="396.667" type="line"/>
      <point x="276.333" y="394.667" type="line"/>
      <point x="32.667" y="32" type="line" smooth="yes"/>
      <point x="24.624" y="20.029"/>
      <point x="23.667" y="17"/>
      <point x="23.667" y="12" type="curve" smooth="yes"/>
      <point x="23.667" y="5"/>
      <point x="31.667" y="0.147"/>
      <point x="46.667" y="0" type="curve" smooth="yes"/>
      <point x="159.459" y="-1" type="line"/>
      <point x="159.667" y="39.666" type="line"/>
      <point x="403.667" y="404.667" type="line" smooth="yes"/>
      <point x="411" y="415.667"/>
      <point x="413.667" y="425.334"/>
      <point x="413.667" y="428.667" type="curve" smooth="yes"/>
      <point x="413.667" y="432.667"/>
      <point x="408.667" y="435.667"/>
      <point x="401.667" y="435.667" type="curve" smooth="yes"/>
      <point x="396.667" y="435.667"/>
      <point x="342" y="433.667"/>
      <point x="313" y="433.667" type="curve" smooth="yes"/>
      <point x="123.333" y="433.667" type="line" smooth="yes"/>
      <point x="91.333" y="433.667"/>
      <point x="81.333" y="440"/>
    </contour>
    <contour>
      <point x="159.667" y="36.666" type="line"/>
      <point x="159.667" y="-1" type="line"/>
      <point x="385.333" y="-3" type="line"/>
      <point x="397.333" y="31"/>
      <point x="410.333" y="83"/>
      <point x="417.333" y="133" type="curve"/>
      <point x="411.333" y="137"/>
      <point x="392.667" y="139"/>
      <point x="380.667" y="139" type="curve"/>
      <point x="366.667" y="110" type="line" smooth="yes"/>
      <point x="341.667" y="57"/>
      <point x="320.668" y="37.594"/>
      <point x="268.667" y="37.333" type="curve" smooth="yes"/>
    </contour>
  </outline>
</glyph>
<glyph name="braceleft" format="2">
  <advance width="297"/>
  <unicode hex="007B"/>
  <outline>
    <contour>
      <point x="198" y="551.999" type="line" smooth="yes"/>
      <point x="193.036" y="655.001"/>
      <point x="240" y="671.999"/>
      <point x="278" y="682.999" type="curve"/>
      <point x="284" y="688.999"/>
      <point x="284" y="700.999"/>
      <point x="278" y="706.999" type="curve"/>
      <point x="188" y="706.999"/>
      <point x="102.315" y="667.01"/>
      <point x="106" y="553.999" type="curve" smooth="yes"/>
      <point x="112" y="369.999" type="line"/>
      <point x="112" y="319.999"/>
      <point x="88" y="268.666"/>
      <point x="14" y="261.666" type="curve"/>
      <point x="5" y="252.666"/>
      <point x="6" y="240.333"/>
      <point x="14" y="232.333" type="curve"/>
      <point x="88" y="223.333"/>
      <point x="114" y="182"/>
      <point x="112" y="121" type="curve" smooth="yes"/>
      <point x="106" y="-49" type="line" smooth="yes"/>
      <point x="101" y="-179"/>
      <point x="177" y="-212"/>
      <point x="278" y="-212" type="curve"/>
      <point x="284" y="-206"/>
      <point x="284" y="-194"/>
      <point x="278" y="-188" type="curve"/>
      <point x="234" y="-188"/>
      <point x="194" y="-138"/>
      <point x="198" y="-54" type="curve" smooth="yes"/>
      <point x="206" y="95" type="line" smooth="yes"/>
      <point x="210" y="177"/>
      <point x="169" y="217"/>
      <point x="101" y="245" type="curve"/>
      <point x="101" y="248.999" type="line"/>
      <point x="168" y="267.999"/>
      <point x="210.289" y="297.013"/>
      <point x="206" y="385.999" type="curve" smooth="yes"/>
    </contour>
  </outline>
</glyph>
<glyph name="bar" format="2">
  <advance width="215"/>
  <unicode hex="007C"/>
  <outline>
    <contour>
      <point x="135" y="-232.667" type="curve"/>
      <point x="135" y="698" type="line"/>
      <point x="122.96" y="704"/>
      <point x="92.3733" y="704"/>
      <point x="80.3333" y="698" type="curve"/>
      <point x="80.3333" y="-232.667" type="line"/>
      <point x="92.3733" y="-238.667"/>
      <point x="122.96" y="-238.667"/>
    </contour>
  </outline>
</glyph>
<glyph name="braceright" format="2">
  <advance width="297"/>
  <unicode hex="007D"/>
  <outline>
    <contour>
      <point x="97.667" y="-56.666" type="line" smooth="yes"/>
      <point x="102.631" y="-159.668"/>
      <point x="55.667" y="-176.666"/>
      <point x="17.667" y="-187.666" type="curve"/>
      <point x="11.667" y="-193.666"/>
      <point x="11.667" y="-205.666"/>
      <point x="17.667" y="-211.666" type="curve"/>
      <point x="107.667" y="-211.666"/>
      <point x="193.352" y="-171.677"/>
      <point x="189.667" y="-58.666" type="curve" smooth="yes"/>
      <point x="183.667" y="125.334" type="line"/>
      <point x="183.667" y="175.334"/>
      <point x="207.667" y="226.667"/>
      <point x="281.667" y="233.667" type="curve"/>
      <point x="290.667" y="242.667"/>
      <point x="289.667" y="255"/>
      <point x="281.667" y="263" type="curve"/>
      <point x="208.667" y="272"/>
      <point x="181.514" y="313.338"/>
      <point x="183.667" y="374.333" type="curve" smooth="yes"/>
      <point x="189.667" y="544.333" type="line" smooth="yes"/>
      <point x="194.256" y="674.348"/>
      <point x="118.667" y="707.333"/>
      <point x="17.667" y="707.333" type="curve"/>
      <point x="11.667" y="701.333"/>
      <point x="11.667" y="689.333"/>
      <point x="17.667" y="683.333" type="curve"/>
      <point x="61.667" y="683.333"/>
      <point x="102.179" y="633.361"/>
      <point x="97.667" y="549.333" type="curve" smooth="yes"/>
      <point x="89.667" y="400.333" type="line" smooth="yes"/>
      <point x="85.265" y="318.354"/>
      <point x="126.667" y="278.333"/>
      <point x="194.667" y="250.333" type="curve"/>
      <point x="194.667" y="246.334" type="line"/>
      <point x="127.667" y="227.334"/>
      <point x="85.378" y="198.32"/>
      <point x="89.667" y="109.334" type="curve" smooth="yes"/>
    </contour>
  </outline>
</glyph>
<glyph name="asciitilde" format="2">
  <advance width="468"/>
  <unicode hex="007E"/>
  <outline>
    <contour>
      <point x="156.667" y="271.333" type="curve" smooth="yes"/>
      <point x="221.121" y="271.333"/>
      <point x="257.836" y="209"/>
      <point x="323.047" y="209" type="curve" smooth="yes"/>
      <point x="373.825" y="209"/>
      <point x="417.908" y="232.48"/>
      <point x="445" y="318.999" type="curve"/>
      <point x="440.52" y="331.489"/>
      <point x="434.225" y="338.851"/>
      <point x="422" y="342.333" type="curve"/>
      <point x="399.425" y="293.608"/>
      <point x="357.714" y="277.333"/>
      <point x="329.714" y="277.333" type="curve" smooth="yes"/>
      <point x="276.684" y="277.333"/>
      <point x="237.564" y="339.666"/>
      <point x="164" y="339.666" type="curve" smooth="yes"/>
      <point x="105.814" y="339.666"/>
      <point x="46.826" y="288.292"/>
      <point x="23.939" y="218.849" type="curve"/>
      <point x="28.777" y="212.21"/>
      <point x="41.243" y="204.333"/>
      <point x="51" y="204.333" type="curve"/>
      <point x="71.382" y="246.021"/>
      <point x="113.125" y="271.333"/>
    </contour>
  </outline>
</glyph>
